<?xml version="1.0" encoding="UTF-8"?>
<svg id="Ebene_1" xmlns="http://www.w3.org/2000/svg" version="1.1" viewBox="0 0 646.04 666.32">
  <!-- Generator: Adobe Illustrator 30.6.0, SVG Export Plug-In . SVG Version: 2.1.4 Build 109)  -->
  <defs>
    <style>
      .st0 {
        fill: #6b6b6b;
      }
    </style>
  </defs>
  <path class="st0" d="M640.8,464.31c-5.33-9-20.33-23-57.67-16.33-20.67,3.67-41.67,5.33-62.67,4.33-77.67-3.33-148-39-197-94-43.33-48.33-70-111.33-70.33-179.33,0-38,7.33-74.67,22.33-109.33,14.67-33.67,4.33-51.33-3-58.67-7.67-7.67-25.67-18.33-61-3.67C75.13,64.65-9.2,201.31.8,347.65c10,137.67,106.67,255.33,234.67,299.67,30.67,10.67,63,17,96.33,18.33,5.33.33,10.67.67,16,.67,111.67,0,216.33-52.67,282.33-142.33,22.33-31,16.33-50.67,10.67-59.67h0Z"/>
</svg>