<?xml version="1.0" encoding="UTF-8"?>
<svg id="Ebene_1" data-name="Ebene 1" xmlns="http://www.w3.org/2000/svg" viewBox="0 0 777.77 694.42">
  <defs>
    <style>
      .cls-1 {
        fill: #e1e8ed;
      }

      .cls-2 {
        fill: #6b6b6b;
      }
    </style>
  </defs>
  <path class="cls-1" d="M604.96,84.44c-17.84,0-35,2.64-51.2,7.56C534.6,38.47,482.62,0,421.29,0c-65.76,0-120.82,44.24-136.07,103.89-16.85-12.59-37.32-19.41-58.36-19.44-53.71,0-97.22,42.53-97.22,95,0,12.73,2.67,24.84,7.31,35.96-9.41-2.71-19.14-4.15-28.93-4.29C48.35,211.12,0,258.36,0,316.68s48.36,105.56,108.02,105.56h496.91c95.47,0,172.84-75.6,172.84-168.89s-77.38-168.89-172.82-168.89v-.02Z"/>
  <g id="Layer_2" data-name="Layer 2">
    <path class="cls-2" d="M490.36,565.75c-40.75,0-81.49-17.16-109.37-49.32-34.31-38.6-92.21-47.18-135.1-17.16l-38.6,25.73c-10.72,6.43-23.59,4.29-30.02-6.43-6.43-10.72-2.14-23.59,6.43-30.02l38.6-25.73c60.05-40.75,141.54-30.02,190.86,25.73,36.46,40.75,98.65,47.18,141.54,12.87l15.01-10.72c8.58-6.43,23.59-6.43,30.02,4.29,6.43,8.58,6.43,23.59-4.29,30.02l-12.87,8.58c-27.88,21.45-60.05,32.17-92.21,32.17Z"/>
    <path class="cls-2" d="M490.36,694.42c-40.75,0-81.49-17.16-109.37-49.32-34.31-38.6-92.21-47.18-135.1-17.16l-38.6,25.73c-10.72,6.43-23.59,4.29-30.02-6.43-6.43-10.72-4.29-23.59,6.43-30.02l38.6-25.73c60.05-40.75,141.54-30.02,190.86,25.73,36.46,40.75,98.65,47.18,141.54,12.87l15.01-10.72c8.58-6.43,23.59-6.43,30.02,4.29,6.43,8.58,6.43,23.59-4.29,30.02l-12.87,8.58c-27.88,21.45-60.05,32.17-92.21,32.17Z"/>
  </g>
</svg>