<?xml version="1.0" encoding="UTF-8"?>
<svg id="Ebene_1" data-name="Ebene 1" xmlns="http://www.w3.org/2000/svg" viewBox="0 0 777.77 602.55">
  <defs>
    <style>
      .cls-1 {
        fill: #e1e8ed;
      }

      .cls-2 {
        fill: #6b6b6b;
      }
    </style>
  </defs>
  <path class="cls-1" d="M604.96,84.44c-17.84,0-35,2.64-51.2,7.56C534.6,38.47,482.63,0,421.29,0c-65.76,0-120.82,44.24-136.07,103.89-16.85-12.59-37.32-19.41-58.36-19.44-53.71,0-97.22,42.53-97.22,95,0,12.73,2.67,24.87,7.31,35.98-9.41-2.72-19.14-4.17-28.93-4.31C48.36,211.12,0,258.36,0,316.67s48.36,105.56,108.02,105.56h496.91c95.47,0,172.84-75.6,172.84-168.89s-77.38-168.89-172.82-168.89h.01Z"/>
  <polygon class="cls-2" points="294.64 575.62 251.26 600.08 208.39 574.75 208.89 524.95 252.27 500.49 295.14 525.82 294.64 575.62"/>
  <polygon class="cls-2" points="414.73 510.09 371.35 534.55 328.48 509.22 328.98 459.43 372.36 434.96 415.23 460.3 414.73 510.09"/>
  <polygon class="cls-2" points="538.88 578.09 495.51 602.55 452.64 577.21 453.14 527.42 496.51 502.96 539.38 528.29 538.88 578.09"/>
  <polygon class="cls-2" points="653.12 508.07 609.74 532.53 566.87 507.2 567.37 457.4 610.75 432.94 653.62 458.28 653.12 508.07"/>
  <polygon class="cls-2" points="186.87 503.36 143.5 527.82 100.62 502.49 101.13 452.69 144.5 428.23 187.37 453.56 186.87 503.36"/>
</svg>