<?xml version="1.0" encoding="UTF-8"?>
<svg id="Ebene_1" xmlns="http://www.w3.org/2000/svg" version="1.1" viewBox="0 0 733.26 754.35">
  <!-- Generator: Adobe Illustrator 30.6.0, SVG Export Plug-In . SVG Version: 2.1.4 Build 109)  -->
  <defs>
    <style>
      .st0 {
        fill: #e1e8ed;
      }

      .st1 {
        fill: #6b6b6b;
      }
    </style>
  </defs>
  <path class="st1" d="M640.8,464.31c-5.33-9-20.33-23-57.67-16.33-20.67,3.67-41.67,5.33-62.67,4.33-77.67-3.33-148-39-197-94-43.33-48.33-70-111.33-70.33-179.33,0-38,7.33-74.67,22.33-109.33,14.67-33.67,4.33-51.33-3-58.67-7.67-7.67-25.67-18.33-61-3.67C75.13,64.65-9.2,201.31.8,347.65c10,137.67,106.67,255.33,234.67,299.67,30.67,10.67,63,17,96.33,18.33,5.33.33,10.67.67,16,.67,111.67,0,216.33-52.67,282.33-142.33,22.33-31,16.33-50.67,10.67-59.67h0Z"/>
  <path class="st0" d="M594.98,469.9c-14.27,0-28,2.22-40.96,6.33-15.29-45.07-56.89-77.44-105.93-77.44-52.62,0-96.67,37.29-108.87,87.49-13.29-10.53-29.73-16.29-46.69-16.36-42.96,0-77.78,35.8-77.78,80,0,10.73,2.13,20.91,5.87,30.29-7.51-2.31-15.3-3.54-23.16-3.64-47.73,0-86.42,39.8-86.42,88.89s38.69,88.89,86.42,88.89h397.53c76.36,0,138.27-63.64,138.27-142.22s-61.91-142.22-138.29-142.22h0Z"/>
</svg>