<?xml version="1.0" encoding="UTF-8"?>
<svg id="Ebene_1" data-name="Ebene 1" xmlns="http://www.w3.org/2000/svg" viewBox="0 0 874.25 846.87">
  <defs>
    <style>
      .cls-1 {
        fill: #e1e8ed;
      }

      .cls-2 {
        fill: #5dadec;
      }

      .cls-3 {
        fill: #6b6b6b;
      }

      .cls-4 {
        fill: #ffac33;
      }
    </style>
  </defs>
  <path class="cls-4" d="M355.55,44.44s0-44.44,44.44-44.44,44.44,44.44,44.44,44.44v44.44s0,44.44-44.44,44.44-44.44-44.44-44.44-44.44c0,0,0-44.44,0-44.44ZM755.55,355.56s44.44,0,44.44,44.44-44.44,44.44-44.44,44.44h-44.44s-44.44,0-44.44-44.44,44.44-44.44,44.44-44.44h44.44ZM88.88,355.56s44.44,0,44.44,44.44-44.44,44.44-44.44,44.44h-44.44s-44.44,0-44.44-44.44,44.44-44.44,44.44-44.44h44.44ZM202.68,162.07s31.42,31.42,0,62.84c-31.42,31.42-62.84,0-62.84,0l-31.44-31.4s-31.42-31.42,0-62.87c31.44-31.42,62.87,0,62.87,0l31.42,31.42h0ZM660.17,224.91s-31.42,31.42-62.84,0,0-62.84,0-62.84l31.42-31.42s31.42-31.42,62.84,0,0,62.84,0,62.84l-31.42,31.42h0"/>
  <circle class="cls-4" cx="399.99" cy="400" r="222.22"/>
  <path class="cls-1" d="M701.44,334.99c-17.84,0-35,2.64-51.2,7.56-19.16-53.53-71.13-92-132.47-92-65.76,0-120.82,44.24-136.07,103.89-16.85-12.59-37.32-19.41-58.36-19.44-53.71,0-97.22,42.53-97.22,95,0,12.73,2.67,24.87,7.31,35.98-9.41-2.72-19.14-4.17-28.93-4.31-59.66,0-108.02,47.24-108.02,105.55s48.36,105.56,108.02,105.56h496.91c95.47,0,172.84-75.6,172.84-168.89s-77.38-168.89-172.82-168.89h.01Z"/>
  <path class="cls-2" d="M331.23,801.54l-2.51-76.02-63.76,37.96c-14.67,7.85-23.59,23.35-23.02,39.98.96,24.63,21.49,43.94,46.13,43.4,24.22-.38,43.55-20.32,43.17-44.55,0-.25,0-.51-.02-.76h0ZM176.14,767.32l-2.53-76.02-63.76,37.96c-14.67,7.84-23.6,23.34-23.02,39.97.96,24.63,21.49,43.94,46.13,43.4,24.22-.37,43.56-20.3,43.2-44.53,0-.26-.01-.52-.02-.78h0Z"/>
  <path class="cls-3" d="M749.06,700.16c2.33-1.85,2.73-5.24.88-7.57-1.85-2.33-5.24-2.73-7.57-.88l6.69,8.45ZM727.85,703.21c-2.33,1.85-2.73,5.24-.88,7.57,1.85,2.33,5.24,2.73,7.57.88l-6.69-8.45ZM727.85,711.66c2.33,1.85,5.72,1.45,7.57-.88,1.85-2.33,1.45-5.72-.88-7.57l-6.69,8.45ZM720.02,691.71c-2.33-1.85-5.72-1.45-7.57.88-1.85,2.33-1.45,5.72.88,7.57l6.69-8.45ZM725.81,707.43c0,2.98,2.41,5.39,5.39,5.39s5.39-2.41,5.39-5.39h-10.78ZM736.58,681.57c0-2.98-2.41-5.39-5.39-5.39s-5.39,2.41-5.39,5.39h10.78ZM736.58,707.43c0-2.98-2.41-5.39-5.39-5.39s-5.39,2.41-5.39,5.39h10.78ZM725.81,770.66c0,2.98,2.41,5.39,5.39,5.39s5.39-2.41,5.39-5.39h-10.78ZM713.33,777.93c-2.33,1.85-2.73,5.24-.88,7.57s5.24,2.73,7.57.88l-6.69-8.45ZM734.54,774.89c2.33-1.85,2.73-5.24.88-7.57s-5.24-2.73-7.57-.88l6.69,8.45ZM734.54,766.44c-2.33-1.85-5.72-1.45-7.57.88-1.85,2.33-1.45,5.72.88,7.57l6.69-8.45ZM742.37,786.38c2.33,1.85,5.72,1.45,7.57-.88,1.85-2.33,1.45-5.72-.88-7.57l-6.69,8.45ZM736.58,770.66c0-2.98-2.41-5.39-5.39-5.39s-5.39,2.41-5.39,5.39h10.78ZM725.81,796.53c0,2.98,2.41,5.39,5.39,5.39s5.39-2.41,5.39-5.39h-10.78ZM688.16,743.13c-2.78-1.07-5.9.31-6.97,3.08-1.07,2.78.31,5.9,3.08,6.97l3.89-10.05h0ZM701.59,759.88c2.78,1.07,5.9-.31,6.97-3.08,1.07-2.78-.31-5.9-3.08-6.97l-3.89,10.05h0ZM708.86,755.67c.45-2.94-1.56-5.69-4.51-6.15-2.94-.45-5.69,1.56-6.15,4.51l10.65,1.64h.01ZM695.41,772.23c-.45,2.94,1.56,5.69,4.51,6.15,2.94.45,5.69-1.56,6.15-4.51l-10.65-1.64h-.01ZM706.21,759.53c2.58-1.48,3.48-4.77,2.01-7.35s-4.77-3.48-7.35-2.01l5.35,9.36h-.01ZM678.23,763.11c-2.58,1.48-3.48,4.77-2.01,7.35,1.48,2.58,4.77,3.48,7.35,2.01l-5.35-9.36h.01ZM700.86,750.18c-2.58,1.48-3.48,4.77-2.01,7.35,1.48,2.58,4.77,3.48,7.35,2.01l-5.35-9.36h.01ZM761.53,727.92c2.58-1.48,3.48-4.77,2.01-7.35-1.48-2.58-4.77-3.48-7.35-2.01l5.35,9.36h-.01ZM774.23,734.96c2.78,1.07,5.9-.31,6.97-3.08,1.07-2.78-.31-5.9-3.08-6.97l-3.89,10.05h0ZM760.8,718.22c-2.78-1.07-5.9.31-6.97,3.08-1.07,2.78.31,5.9,3.08,6.97l3.89-10.05h0ZM753.53,722.42c-.45,2.94,1.56,5.69,4.51,6.15,2.94.45,5.69-1.56,6.15-4.51l-10.65-1.64h-.01ZM766.99,705.87c.45-2.94-1.56-5.69-4.51-6.15-2.94-.45-5.69,1.56-6.15,4.51l10.65,1.64h.01ZM756.18,718.56c-2.58,1.48-3.48,4.77-2.01,7.35,1.48,2.58,4.77,3.48,7.35,2.01l-5.35-9.36h.01ZM784.16,714.99c2.58-1.48,3.48-4.77,2.01-7.35-1.48-2.58-4.77-3.48-7.35-2.01l5.35,9.36h-.01ZM684.28,724.91c-2.78,1.07-4.16,4.19-3.08,6.97,1.07,2.78,4.19,4.16,6.97,3.08l-3.89-10.05h0ZM705.48,728.27c2.78-1.07,4.16-4.19,3.08-6.97-1.07-2.78-4.19-4.16-6.97-3.08l3.89,10.05h0ZM698.21,724.06c.45,2.94,3.2,4.96,6.15,4.51,2.94-.45,4.96-3.21,4.51-6.15l-10.65,1.64h-.01ZM706.06,704.23c-.45-2.94-3.2-4.96-6.15-4.51-2.94.45-4.96,3.2-4.51,6.15l10.65-1.64h.01ZM700.86,727.92c2.58,1.48,5.88.58,7.35-2.01,1.48-2.58.58-5.88-2.01-7.35l-5.35,9.36h.01ZM683.58,705.63c-2.58-1.48-5.88-.58-7.35,2.01-1.48,2.58-.58,5.88,2.01,7.35l5.35-9.36h-.01ZM706.21,718.56c-2.58-1.48-5.88-.58-7.35,2.01-1.48,2.58-.58,5.88,2.01,7.35l5.35-9.36h-.01ZM756.18,759.53c2.58,1.48,5.88.58,7.35-2.01s.58-5.88-2.01-7.35l-5.35,9.36h.01ZM778.12,753.18c2.78-1.07,4.16-4.19,3.08-6.97-1.07-2.78-4.19-4.16-6.97-3.08l3.89,10.05h0ZM756.91,749.83c-2.78,1.07-4.16,4.19-3.08,6.97,1.07,2.78,4.19,4.16,6.97,3.08l-3.89-10.05h0ZM764.18,754.03c-.45-2.94-3.21-4.96-6.15-4.51-2.94.45-4.96,3.21-4.51,6.15l10.65-1.64h.01ZM756.33,773.87c.45,2.94,3.21,4.96,6.15,4.51s4.96-3.21,4.51-6.15l-10.65,1.64h-.01ZM761.53,750.18c-2.58-1.48-5.88-.58-7.35,2.01s-.58,5.88,2.01,7.35l5.35-9.36h-.01ZM778.82,772.47c2.58,1.48,5.88.58,7.35-2.01,1.48-2.58.58-5.88-2.01-7.35l-5.35,9.36h.01ZM742.37,691.71l-14.52,11.5,6.69,8.45,14.52-11.5-6.69-8.45ZM734.54,703.21l-14.52-11.5-6.69,8.45,14.52,11.5,6.69-8.45ZM736.58,707.43v-25.87h-10.78v25.87h10.78ZM725.81,707.43v63.23h10.78v-63.23h-10.78ZM720.02,786.38l14.52-11.5-6.69-8.45-14.52,11.5,6.69,8.45ZM727.85,774.89l14.52,11.5,6.69-8.45-14.52-11.5-6.69,8.45ZM725.81,770.66v25.87h10.78v-25.87h-10.78ZM684.28,753.18l17.32,6.7,3.89-10.05-17.32-6.7-3.89,10.05h0ZM698.21,754.03l-2.8,18.19,10.65,1.64,2.8-18.19-10.65-1.64ZM700.86,750.18l-22.63,12.93,5.35,9.36,22.63-12.93-5.35-9.36h0ZM706.21,759.53l55.32-31.61-5.35-9.36-55.32,31.61,5.35,9.36ZM778.12,724.91l-17.32-6.7-3.89,10.05,17.32,6.7,3.89-10.05ZM764.18,724.06l2.8-18.19-10.65-1.64-2.8,18.19,10.65,1.64ZM761.53,727.92l22.63-12.93-5.35-9.36-22.63,12.93,5.35,9.36ZM688.16,734.96l17.32-6.7-3.89-10.05-17.32,6.7,3.89,10.05ZM708.86,722.42l-2.8-18.19-10.65,1.64,2.8,18.19,10.65-1.64ZM706.21,718.56l-22.63-12.93-5.35,9.36,22.63,12.93,5.35-9.36ZM700.86,727.92l55.32,31.61,5.35-9.36-55.32-31.61-5.35,9.36h0ZM774.23,743.13l-17.32,6.7,3.89,10.05,17.32-6.7-3.89-10.05h0ZM753.53,755.67l2.8,18.19,10.65-1.64-2.8-18.19-10.65,1.64h0ZM756.18,759.53l22.63,12.93,5.35-9.36-22.63-12.93-5.35,9.36Z"/>
  <path class="cls-3" d="M607.34,743.53c2.33-1.85,2.73-5.24.88-7.57-1.85-2.33-5.24-2.73-7.57-.88l6.69,8.45ZM586.13,746.58c-2.33,1.85-2.73,5.24-.88,7.57s5.24,2.73,7.57.88l-6.69-8.45ZM586.13,755.03c2.33,1.85,5.72,1.45,7.57-.88,1.85-2.33,1.45-5.72-.88-7.57l-6.69,8.45ZM578.29,735.08c-2.33-1.85-5.72-1.45-7.57.88-1.85,2.33-1.45,5.72.88,7.57l6.69-8.45ZM584.08,750.8c0,2.98,2.41,5.39,5.39,5.39s5.39-2.41,5.39-5.39h-10.78ZM594.86,724.94c0-2.98-2.41-5.39-5.39-5.39s-5.39,2.41-5.39,5.39h10.78ZM594.86,750.8c0-2.98-2.41-5.39-5.39-5.39s-5.39,2.41-5.39,5.39h10.78ZM584.08,814.03c0,2.98,2.41,5.39,5.39,5.39s5.39-2.41,5.39-5.39h-10.78ZM571.61,821.3c-2.33,1.85-2.73,5.24-.88,7.57s5.24,2.73,7.57.88l-6.69-8.45ZM592.82,818.25c2.33-1.85,2.73-5.24.88-7.57s-5.24-2.73-7.57-.88l6.69,8.45ZM592.82,809.81c-2.33-1.85-5.72-1.45-7.57.88s-1.45,5.72.88,7.57l6.69-8.45ZM600.65,829.75c2.33,1.85,5.72,1.45,7.57-.88s1.45-5.72-.88-7.57l-6.69,8.45h0ZM594.86,814.03c0-2.98-2.41-5.39-5.39-5.39s-5.39,2.41-5.39,5.39h10.78ZM584.08,839.9c0,2.98,2.41,5.39,5.39,5.39s5.39-2.41,5.39-5.39h-10.78ZM546.44,786.5c-2.78-1.07-5.9.31-6.97,3.08-1.07,2.78.31,5.9,3.08,6.97l3.89-10.05ZM559.87,803.25c2.78,1.07,5.9-.31,6.97-3.08,1.07-2.78-.31-5.9-3.08-6.97l-3.89,10.05ZM567.13,799.04c.45-2.94-1.56-5.69-4.51-6.15-2.94-.45-5.69,1.56-6.15,4.51l10.65,1.64h.01ZM553.68,815.59c-.45,2.94,1.56,5.69,4.51,6.15,2.94.45,5.69-1.56,6.15-4.51l-10.65-1.64h-.01ZM564.48,802.9c2.58-1.48,3.48-4.77,2.01-7.35-1.48-2.58-4.77-3.48-7.35-2.01l5.35,9.36h-.01ZM536.5,806.48c-2.58,1.48-3.48,4.77-2.01,7.35,1.48,2.58,4.77,3.48,7.35,2.01l-5.35-9.36h.01ZM559.14,793.54c-2.58,1.48-3.48,4.77-2.01,7.35,1.48,2.58,4.77,3.48,7.35,2.01l-5.35-9.36h.01ZM619.81,771.29c2.58-1.48,3.48-4.77,2.01-7.35-1.48-2.58-4.77-3.48-7.35-2.01l5.35,9.36h-.01ZM632.5,778.33c2.78,1.07,5.9-.31,6.97-3.08,1.07-2.78-.31-5.9-3.08-6.97l-3.89,10.05h0ZM619.08,761.58c-2.78-1.07-5.9.31-6.97,3.08-1.07,2.78.31,5.9,3.08,6.97l3.89-10.05h0ZM611.81,765.79c-.45,2.94,1.56,5.69,4.51,6.15,2.94.45,5.69-1.56,6.15-4.51l-10.65-1.64h-.01ZM625.26,749.24c.45-2.94-1.56-5.69-4.51-6.15-2.94-.45-5.69,1.56-6.15,4.51l10.65,1.64h.01ZM614.46,761.93c-2.58,1.48-3.48,4.77-2.01,7.35,1.48,2.58,4.77,3.48,7.35,2.01l-5.35-9.36h.01ZM642.44,758.36c2.58-1.48,3.48-4.77,2.01-7.35-1.48-2.58-4.77-3.48-7.35-2.01l5.35,9.36h-.01ZM542.55,768.28c-2.78,1.07-4.16,4.19-3.08,6.97,1.07,2.78,4.19,4.16,6.97,3.08l-3.89-10.05ZM563.75,771.64c2.78-1.07,4.16-4.19,3.08-6.97-1.07-2.78-4.19-4.16-6.97-3.08l3.89,10.05ZM556.48,767.43c.45,2.94,3.2,4.96,6.15,4.51,2.94-.45,4.96-3.21,4.51-6.15l-10.65,1.64h-.01ZM564.33,747.6c-.45-2.94-3.2-4.96-6.15-4.51-2.94.45-4.96,3.2-4.51,6.15l10.65-1.64h.01ZM559.14,771.29c2.58,1.48,5.88.58,7.35-2.01,1.48-2.58.58-5.88-2.01-7.35l-5.35,9.36h.01ZM541.85,749c-2.58-1.48-5.88-.58-7.35,2.01-1.48,2.58-.58,5.88,2.01,7.35l5.35-9.36h-.01ZM564.48,761.93c-2.58-1.48-5.88-.58-7.35,2.01-1.48,2.58-.58,5.88,2.01,7.35l5.35-9.36h-.01ZM614.46,802.9c2.58,1.48,5.88.58,7.35-2.01s.58-5.88-2.01-7.35l-5.35,9.36h.01ZM636.39,796.55c2.78-1.07,4.16-4.19,3.08-6.97-1.07-2.78-4.19-4.16-6.97-3.08l3.89,10.05h0ZM615.19,793.2c-2.78,1.07-4.16,4.19-3.08,6.97,1.07,2.78,4.19,4.16,6.97,3.08l-3.89-10.05h0ZM622.46,797.4c-.45-2.94-3.21-4.96-6.15-4.51s-4.96,3.21-4.51,6.15l10.65-1.64h.01ZM614.61,817.24c.45,2.94,3.21,4.96,6.15,4.51s4.96-3.21,4.51-6.15l-10.65,1.64h-.01ZM619.81,793.54c-2.58-1.48-5.88-.58-7.35,2.01s-.58,5.88,2.01,7.35l5.35-9.36h-.01ZM637.09,815.83c2.58,1.48,5.88.58,7.35-2.01,1.48-2.58.58-5.88-2.01-7.35l-5.35,9.36h.01ZM600.65,735.08l-14.52,11.5,6.69,8.45,14.52-11.5-6.69-8.45h0ZM592.82,746.58l-14.52-11.5-6.69,8.45,14.52,11.5,6.69-8.45ZM594.86,750.8v-25.87h-10.78v25.87h10.78ZM584.08,750.8v63.23h10.78v-63.23h-10.78ZM578.29,829.75l14.52-11.5-6.69-8.45-14.52,11.5,6.69,8.45ZM586.13,818.25l14.52,11.5,6.69-8.45-14.52-11.5-6.69,8.45h0ZM584.08,814.03v25.87h10.78v-25.87h-10.78ZM542.55,796.55l17.32,6.7,3.89-10.05-17.32-6.7-3.89,10.05ZM556.48,797.4l-2.8,18.19,10.65,1.64,2.8-18.19-10.65-1.64ZM559.14,793.54l-22.63,12.93,5.35,9.36,22.63-12.93-5.35-9.36ZM564.48,802.9l55.32-31.61-5.35-9.36-55.32,31.61,5.35,9.36h0ZM636.39,768.28l-17.32-6.7-3.89,10.05,17.32,6.7,3.89-10.05ZM622.46,767.43l2.8-18.19-10.65-1.64-2.8,18.19,10.65,1.64ZM619.81,771.29l22.63-12.93-5.35-9.36-22.63,12.93,5.35,9.36ZM546.44,778.33l17.32-6.7-3.89-10.05-17.32,6.7,3.89,10.05ZM567.13,765.79l-2.8-18.19-10.65,1.64,2.8,18.19,10.65-1.64ZM564.48,761.93l-22.63-12.93-5.35,9.36,22.63,12.93,5.35-9.36ZM559.14,771.29l55.32,31.61,5.35-9.36-55.32-31.61-5.35,9.36h0ZM632.5,786.5l-17.32,6.7,3.89,10.05,17.32-6.7-3.89-10.05ZM611.81,799.04l2.8,18.19,10.65-1.64-2.8-18.19-10.65,1.64ZM614.46,802.9l22.63,12.93,5.35-9.36-22.63-12.93-5.35,9.36Z"/>
  <path class="cls-2" d="M478.55,760.82l-2.53-76.02-63.76,37.96c-14.67,7.84-23.6,23.34-23.02,39.97.96,24.63,21.49,43.94,46.13,43.4,24.22-.37,43.56-20.3,43.2-44.53,0-.26-.01-.52-.02-.78h0Z"/>
</svg>