<?xml version="1.0" encoding="UTF-8"?>
<svg id="Ebene_1" data-name="Ebene 1" xmlns="http://www.w3.org/2000/svg" viewBox="0 0 872.77 851.47">
  <defs>
    <style>
      .cls-1 {
        fill: #e1e8ed;
      }

      .cls-2 {
        fill: #5dadec;
      }

      .cls-3 {
        fill: #6b6b6b;
      }
    </style>
  </defs>
  <path class="cls-3" d="M640.8,464.31c-5.33-9-20.33-23-57.67-16.33-20.67,3.67-41.67,5.33-62.67,4.33-77.67-3.33-148-39-197-94-43.33-48.33-70-111.33-70.33-179.33,0-38,7.33-74.67,22.33-109.33,14.67-33.67,4.33-51.33-3-58.67-7.67-7.67-25.67-18.33-61-3.67C75.13,64.65-9.2,201.31.8,347.65c10,137.67,106.67,255.33,234.67,299.67,30.67,10.67,63,17,96.33,18.33,5.33.33,10.67.67,16,.67,111.67,0,216.33-52.67,282.33-142.33,22.33-31,16.33-50.67,10.67-59.67h0Z"/>
  <path class="cls-1" d="M699.96,335.86c-17.84,0-35,2.64-51.2,7.56-19.16-53.53-71.13-92-132.47-92-65.76,0-120.82,44.24-136.07,103.89-16.85-12.59-37.32-19.41-58.36-19.44-53.71,0-97.22,42.53-97.22,95,0,12.73,2.67,24.87,7.31,35.98-9.41-2.72-19.14-4.17-28.93-4.31-59.66,0-108.02,47.24-108.02,105.55s48.36,105.56,108.02,105.56h496.91c95.47,0,172.84-75.6,172.84-168.89s-77.38-168.89-172.82-168.89h.01Z"/>
  <path class="cls-2" d="M314.28,806.14l-2.51-76.02-63.76,37.96c-14.67,7.85-23.59,23.35-23.02,39.98.96,24.63,21.49,43.94,46.13,43.4,24.22-.38,43.55-20.32,43.17-44.55,0-.25,0-.51-.02-.76h0ZM159.19,771.92l-2.53-76.02-63.76,37.96c-14.67,7.84-23.6,23.34-23.02,39.97.96,24.63,21.49,43.94,46.13,43.4,24.22-.37,43.56-20.3,43.2-44.53,0-.26-.01-.52-.02-.78h0Z"/>
  <path class="cls-3" d="M732.11,704.76c2.33-1.85,2.73-5.24.88-7.57-1.85-2.33-5.24-2.73-7.57-.88l6.69,8.45ZM710.9,707.81c-2.33,1.85-2.73,5.24-.88,7.57,1.85,2.33,5.24,2.73,7.57.88l-6.69-8.45ZM710.9,716.26c2.33,1.85,5.72,1.45,7.57-.88,1.85-2.33,1.45-5.72-.88-7.57l-6.69,8.45ZM703.07,696.31c-2.33-1.85-5.72-1.45-7.57.88-1.85,2.33-1.45,5.72.88,7.57l6.69-8.45ZM708.86,712.03c0,2.98,2.41,5.39,5.39,5.39s5.39-2.41,5.39-5.39h-10.78ZM719.63,686.17c0-2.98-2.41-5.39-5.39-5.39s-5.39,2.41-5.39,5.39h10.78ZM719.63,712.03c0-2.98-2.41-5.39-5.39-5.39s-5.39,2.41-5.39,5.39h10.78ZM708.86,775.26c0,2.98,2.41,5.39,5.39,5.39s5.39-2.41,5.39-5.39h-10.78ZM696.38,782.53c-2.33,1.85-2.73,5.24-.88,7.57s5.24,2.73,7.57.88l-6.69-8.45ZM717.59,779.49c2.33-1.85,2.73-5.24.88-7.57s-5.24-2.73-7.57-.88l6.69,8.45ZM717.59,771.04c-2.33-1.85-5.72-1.45-7.57.88-1.85,2.33-1.45,5.72.88,7.57l6.69-8.45ZM725.42,790.98c2.33,1.85,5.72,1.45,7.57-.88,1.85-2.33,1.45-5.72-.88-7.57l-6.69,8.45ZM719.63,775.26c0-2.98-2.41-5.39-5.39-5.39s-5.39,2.41-5.39,5.39h10.78ZM708.86,801.13c0,2.98,2.41,5.39,5.39,5.39s5.39-2.41,5.39-5.39h-10.78ZM671.21,747.73c-2.78-1.07-5.9.31-6.97,3.08-1.07,2.78.31,5.9,3.08,6.97l3.89-10.05h0ZM684.64,764.48c2.78,1.07,5.9-.31,6.97-3.08,1.07-2.78-.31-5.9-3.08-6.97l-3.89,10.05h0ZM691.91,760.27c.45-2.94-1.56-5.69-4.51-6.15-2.94-.45-5.69,1.56-6.15,4.51l10.65,1.64h.01ZM678.46,776.83c-.45,2.94,1.56,5.69,4.51,6.15,2.94.45,5.69-1.56,6.15-4.51l-10.65-1.64h-.01ZM689.26,764.13c2.58-1.48,3.48-4.77,2.01-7.35s-4.77-3.48-7.35-2.01l5.35,9.36h-.01ZM661.28,767.71c-2.58,1.48-3.48,4.77-2.01,7.35,1.48,2.58,4.77,3.48,7.35,2.01l-5.35-9.36h.01ZM683.91,754.78c-2.58,1.48-3.48,4.77-2.01,7.35,1.48,2.58,4.77,3.48,7.35,2.01l-5.35-9.36h.01ZM744.58,732.52c2.58-1.48,3.48-4.77,2.01-7.35-1.48-2.58-4.77-3.48-7.35-2.01l5.35,9.36h-.01ZM757.28,739.56c2.78,1.07,5.9-.31,6.97-3.08,1.07-2.78-.31-5.9-3.08-6.97l-3.89,10.05h0ZM743.85,722.82c-2.78-1.07-5.9.31-6.97,3.08-1.07,2.78.31,5.9,3.08,6.97l3.89-10.05h0ZM736.58,727.02c-.45,2.94,1.56,5.69,4.51,6.15,2.94.45,5.69-1.56,6.15-4.51l-10.65-1.64h-.01ZM750.04,710.47c.45-2.94-1.56-5.69-4.51-6.15-2.94-.45-5.69,1.56-6.15,4.51l10.65,1.64h.01ZM739.23,723.16c-2.58,1.48-3.48,4.77-2.01,7.35,1.48,2.58,4.77,3.48,7.35,2.01l-5.35-9.36h.01ZM767.21,719.59c2.58-1.48,3.48-4.77,2.01-7.35-1.48-2.58-4.77-3.48-7.35-2.01l5.35,9.36h-.01ZM667.33,729.51c-2.78,1.07-4.16,4.19-3.08,6.97,1.07,2.78,4.19,4.16,6.97,3.08l-3.89-10.05h0ZM688.53,732.87c2.78-1.07,4.16-4.19,3.08-6.97-1.07-2.78-4.19-4.16-6.97-3.08l3.89,10.05h0ZM681.26,728.66c.45,2.94,3.2,4.96,6.15,4.51,2.94-.45,4.96-3.21,4.51-6.15l-10.65,1.64h-.01ZM689.11,708.83c-.45-2.94-3.2-4.96-6.15-4.51-2.94.45-4.96,3.2-4.51,6.15l10.65-1.64h.01ZM683.91,732.52c2.58,1.48,5.88.58,7.35-2.01,1.48-2.58.58-5.88-2.01-7.35l-5.35,9.36h.01ZM666.63,710.23c-2.58-1.48-5.88-.58-7.35,2.01-1.48,2.58-.58,5.88,2.01,7.35l5.35-9.36h-.01ZM689.26,723.16c-2.58-1.48-5.88-.58-7.35,2.01-1.48,2.58-.58,5.88,2.01,7.35l5.35-9.36h-.01ZM739.23,764.13c2.58,1.48,5.88.58,7.35-2.01s.58-5.88-2.01-7.35l-5.35,9.36h.01ZM761.17,757.78c2.78-1.07,4.16-4.19,3.08-6.97-1.07-2.78-4.19-4.16-6.97-3.08l3.89,10.05h0ZM739.96,754.43c-2.78,1.07-4.16,4.19-3.08,6.97,1.07,2.78,4.19,4.16,6.97,3.08l-3.89-10.05h0ZM747.23,758.63c-.45-2.94-3.21-4.96-6.15-4.51-2.94.45-4.96,3.21-4.51,6.15l10.65-1.64h.01ZM739.38,778.47c.45,2.94,3.21,4.96,6.15,4.51s4.96-3.21,4.51-6.15l-10.65,1.64h-.01ZM744.58,754.78c-2.58-1.48-5.88-.58-7.35,2.01s-.58,5.88,2.01,7.35l5.35-9.36h-.01ZM761.87,777.07c2.58,1.48,5.88.58,7.35-2.01,1.48-2.58.58-5.88-2.01-7.35l-5.35,9.36h.01ZM725.42,696.31l-14.52,11.5,6.69,8.45,14.52-11.5-6.69-8.45ZM717.59,707.81l-14.52-11.5-6.69,8.45,14.52,11.5,6.69-8.45ZM719.63,712.03v-25.87h-10.78v25.87h10.78ZM708.86,712.03v63.23h10.78v-63.23h-10.78ZM703.07,790.98l14.52-11.5-6.69-8.45-14.52,11.5,6.69,8.45ZM710.9,779.49l14.52,11.5,6.69-8.45-14.52-11.5-6.69,8.45ZM708.86,775.26v25.87h10.78v-25.87h-10.78ZM667.33,757.78l17.32,6.7,3.89-10.05-17.32-6.7-3.89,10.05h0ZM681.26,758.63l-2.8,18.19,10.65,1.64,2.8-18.19-10.65-1.64ZM683.91,754.78l-22.63,12.93,5.35,9.36,22.63-12.93-5.35-9.36h0ZM689.26,764.13l55.32-31.61-5.35-9.36-55.32,31.61,5.35,9.36ZM761.17,729.51l-17.32-6.7-3.89,10.05,17.32,6.7,3.89-10.05ZM747.23,728.66l2.8-18.19-10.65-1.64-2.8,18.19,10.65,1.64ZM744.58,732.52l22.63-12.93-5.35-9.36-22.63,12.93,5.35,9.36ZM671.21,739.56l17.32-6.7-3.89-10.05-17.32,6.7,3.89,10.05ZM691.91,727.02l-2.8-18.19-10.65,1.64,2.8,18.19,10.65-1.64ZM689.26,723.16l-22.63-12.93-5.35,9.36,22.63,12.93,5.35-9.36ZM683.91,732.52l55.32,31.61,5.35-9.36-55.32-31.61-5.35,9.36h0ZM757.28,747.73l-17.32,6.7,3.89,10.05,17.32-6.7-3.89-10.05h0ZM736.58,760.27l2.8,18.19,10.65-1.64-2.8-18.19-10.65,1.64h0ZM739.23,764.13l22.63,12.93,5.35-9.36-22.63-12.93-5.35,9.36Z"/>
  <path class="cls-3" d="M590.39,748.13c2.33-1.85,2.73-5.24.88-7.57-1.85-2.33-5.24-2.73-7.57-.88l6.69,8.45ZM569.18,751.18c-2.33,1.85-2.73,5.24-.88,7.57s5.24,2.73,7.57.88l-6.69-8.45ZM569.18,759.63c2.33,1.85,5.72,1.45,7.57-.88,1.85-2.33,1.45-5.72-.88-7.57l-6.69,8.45ZM561.34,739.68c-2.33-1.85-5.72-1.45-7.57.88-1.85,2.33-1.45,5.72.88,7.57l6.69-8.45ZM567.13,755.4c0,2.98,2.41,5.39,5.39,5.39s5.39-2.41,5.39-5.39h-10.78ZM577.91,729.54c0-2.98-2.41-5.39-5.39-5.39s-5.39,2.41-5.39,5.39h10.78ZM577.91,755.4c0-2.98-2.41-5.39-5.39-5.39s-5.39,2.41-5.39,5.39h10.78ZM567.13,818.63c0,2.98,2.41,5.39,5.39,5.39s5.39-2.41,5.39-5.39h-10.78ZM554.66,825.9c-2.33,1.85-2.73,5.24-.88,7.57s5.24,2.73,7.57.88l-6.69-8.45ZM575.87,822.85c2.33-1.85,2.73-5.24.88-7.57s-5.24-2.73-7.57-.88l6.69,8.45ZM575.87,814.41c-2.33-1.85-5.72-1.45-7.57.88s-1.45,5.72.88,7.57l6.69-8.45ZM583.7,834.35c2.33,1.85,5.72,1.45,7.57-.88s1.45-5.72-.88-7.57l-6.69,8.45h0ZM577.91,818.63c0-2.98-2.41-5.39-5.39-5.39s-5.39,2.41-5.39,5.39h10.78ZM567.13,844.5c0,2.98,2.41,5.39,5.39,5.39s5.39-2.41,5.39-5.39h-10.78ZM529.49,791.1c-2.78-1.07-5.9.31-6.97,3.08-1.07,2.78.31,5.9,3.08,6.97l3.89-10.05ZM542.92,807.85c2.78,1.07,5.9-.31,6.97-3.08,1.07-2.78-.31-5.9-3.08-6.97l-3.89,10.05ZM550.18,803.64c.45-2.94-1.56-5.69-4.51-6.15-2.94-.45-5.69,1.56-6.15,4.51l10.65,1.64h.01ZM536.73,820.19c-.45,2.94,1.56,5.69,4.51,6.15,2.94.45,5.69-1.56,6.15-4.51l-10.65-1.64h-.01ZM547.53,807.5c2.58-1.48,3.48-4.77,2.01-7.35-1.48-2.58-4.77-3.48-7.35-2.01l5.35,9.36h-.01ZM519.55,811.08c-2.58,1.48-3.48,4.77-2.01,7.35,1.48,2.58,4.77,3.48,7.35,2.01l-5.35-9.36h.01ZM542.19,798.14c-2.58,1.48-3.48,4.77-2.01,7.35,1.48,2.58,4.77,3.48,7.35,2.01l-5.35-9.36h.01ZM602.86,775.89c2.58-1.48,3.48-4.77,2.01-7.35-1.48-2.58-4.77-3.48-7.35-2.01l5.35,9.36h-.01ZM615.55,782.93c2.78,1.07,5.9-.31,6.97-3.08,1.07-2.78-.31-5.9-3.08-6.97l-3.89,10.05h0ZM602.13,766.18c-2.78-1.07-5.9.31-6.97,3.08-1.07,2.78.31,5.9,3.08,6.97l3.89-10.05h0ZM594.86,770.39c-.45,2.94,1.56,5.69,4.51,6.15,2.94.45,5.69-1.56,6.15-4.51l-10.65-1.64h-.01ZM608.31,753.84c.45-2.94-1.56-5.69-4.51-6.15-2.94-.45-5.69,1.56-6.15,4.51l10.65,1.64h.01ZM597.51,766.53c-2.58,1.48-3.48,4.77-2.01,7.35,1.48,2.58,4.77,3.48,7.35,2.01l-5.35-9.36h.01ZM625.49,762.96c2.58-1.48,3.48-4.77,2.01-7.35-1.48-2.58-4.77-3.48-7.35-2.01l5.35,9.36h-.01ZM525.6,772.88c-2.78,1.07-4.16,4.19-3.08,6.97,1.07,2.78,4.19,4.16,6.97,3.08l-3.89-10.05ZM546.8,776.24c2.78-1.07,4.16-4.19,3.08-6.97-1.07-2.78-4.19-4.16-6.97-3.08l3.89,10.05ZM539.53,772.03c.45,2.94,3.2,4.96,6.15,4.51,2.94-.45,4.96-3.21,4.51-6.15l-10.65,1.64h-.01ZM547.38,752.2c-.45-2.94-3.2-4.96-6.15-4.51-2.94.45-4.96,3.2-4.51,6.15l10.65-1.64h.01ZM542.19,775.89c2.58,1.48,5.88.58,7.35-2.01,1.48-2.58.58-5.88-2.01-7.35l-5.35,9.36h.01ZM524.9,753.6c-2.58-1.48-5.88-.58-7.35,2.01-1.48,2.58-.58,5.88,2.01,7.35l5.35-9.36h-.01ZM547.53,766.53c-2.58-1.48-5.88-.58-7.35,2.01-1.48,2.58-.58,5.88,2.01,7.35l5.35-9.36h-.01ZM597.51,807.5c2.58,1.48,5.88.58,7.35-2.01s.58-5.88-2.01-7.35l-5.35,9.36h.01ZM619.44,801.15c2.78-1.07,4.16-4.19,3.08-6.97-1.07-2.78-4.19-4.16-6.97-3.08l3.89,10.05h0ZM598.24,797.8c-2.78,1.07-4.16,4.19-3.08,6.97,1.07,2.78,4.19,4.16,6.97,3.08l-3.89-10.05h0ZM605.51,802c-.45-2.94-3.21-4.96-6.15-4.51s-4.96,3.21-4.51,6.15l10.65-1.64h.01ZM597.66,821.84c.45,2.94,3.21,4.96,6.15,4.51s4.96-3.21,4.51-6.15l-10.65,1.64h-.01ZM602.86,798.14c-2.58-1.48-5.88-.58-7.35,2.01s-.58,5.88,2.01,7.35l5.35-9.36h-.01ZM620.14,820.43c2.58,1.48,5.88.58,7.35-2.01,1.48-2.58.58-5.88-2.01-7.35l-5.35,9.36h.01ZM583.7,739.68l-14.52,11.5,6.69,8.45,14.52-11.5-6.69-8.45h0ZM575.87,751.18l-14.52-11.5-6.69,8.45,14.52,11.5,6.69-8.45ZM577.91,755.4v-25.87h-10.78v25.87h10.78ZM567.13,755.4v63.23h10.78v-63.23h-10.78ZM561.34,834.35l14.52-11.5-6.69-8.45-14.52,11.5,6.69,8.45ZM569.18,822.85l14.52,11.5,6.69-8.45-14.52-11.5-6.69,8.45h0ZM567.13,818.63v25.87h10.78v-25.87h-10.78ZM525.6,801.15l17.32,6.7,3.89-10.05-17.32-6.7-3.89,10.05ZM539.53,802l-2.8,18.19,10.65,1.64,2.8-18.19-10.65-1.64ZM542.19,798.14l-22.63,12.93,5.35,9.36,22.63-12.93-5.35-9.36ZM547.53,807.5l55.32-31.61-5.35-9.36-55.32,31.61,5.35,9.36h0ZM619.44,772.88l-17.32-6.7-3.89,10.05,17.32,6.7,3.89-10.05ZM605.51,772.03l2.8-18.19-10.65-1.64-2.8,18.19,10.65,1.64ZM602.86,775.89l22.63-12.93-5.35-9.36-22.63,12.93,5.35,9.36ZM529.49,782.93l17.32-6.7-3.89-10.05-17.32,6.7,3.89,10.05ZM550.18,770.39l-2.8-18.19-10.65,1.64,2.8,18.19,10.65-1.64ZM547.53,766.53l-22.63-12.93-5.35,9.36,22.63,12.93,5.35-9.36ZM542.19,775.89l55.32,31.61,5.35-9.36-55.32-31.61-5.35,9.36h0ZM615.55,791.1l-17.32,6.7,3.89,10.05,17.32-6.7-3.89-10.05ZM594.86,803.64l2.8,18.19,10.65-1.64-2.8-18.19-10.65,1.64ZM597.51,807.5l22.63,12.93,5.35-9.36-22.63-12.93-5.35,9.36Z"/>
  <path class="cls-2" d="M461.6,765.42l-2.53-76.02-63.76,37.96c-14.67,7.84-23.6,23.34-23.02,39.97.96,24.63,21.49,43.94,46.13,43.4,24.22-.37,43.56-20.3,43.2-44.53,0-.26-.01-.52-.02-.78h0Z"/>
</svg>