<?xml version="1.0" encoding="UTF-8"?>
<svg id="Ebene_1" xmlns="http://www.w3.org/2000/svg" version="1.1" viewBox="0 0 777.77 600.02">
  <!-- Generator: Adobe Illustrator 30.6.0, SVG Export Plug-In . SVG Version: 2.1.4 Build 109)  -->
  <defs>
    <style>
      .st0 {
        fill: #e1e8ed;
      }

      .st1 {
        fill: #5dadec;
      }

      .st2 {
        fill: #6b6b6b;
      }
    </style>
  </defs>
  <path class="st0" d="M604.96,84.44c-17.84,0-35,2.64-51.2,7.56C534.6,38.47,482.63,0,421.29,0c-65.76,0-120.82,44.24-136.07,103.89-16.85-12.59-37.32-19.41-58.36-19.44-53.71,0-97.22,42.53-97.22,95,0,12.73,2.67,24.87,7.31,35.98-9.41-2.72-19.14-4.17-28.93-4.31C48.36,211.12,0,258.36,0,316.67s48.36,105.56,108.02,105.56h496.91c95.47,0,172.84-75.6,172.84-168.89s-77.38-168.89-172.82-168.89h.01Z"/>
  <path class="st1" d="M244.43,554.69l-2.51-76.02-63.76,37.96c-14.67,7.85-23.59,23.35-23.02,39.98.96,24.63,21.49,43.94,46.13,43.4,24.22-.38,43.55-20.32,43.17-44.55,0-.25,0-.51-.02-.76h0ZM89.34,520.47l-2.53-76.02-63.76,37.96C8.38,490.25-.55,505.75.03,522.38c.96,24.63,21.49,43.94,46.13,43.4,24.22-.37,43.56-20.3,43.2-44.53,0-.26-.01-.52-.02-.78h0ZM675.1,442.69"/>
  <path class="st2" d="M662.26,453.31c2.33-1.85,2.73-5.24.88-7.57-1.85-2.33-5.24-2.73-7.57-.88l6.69,8.45ZM641.05,456.36c-2.33,1.85-2.73,5.24-.88,7.57,1.85,2.33,5.24,2.73,7.57.88l-6.69-8.45ZM641.05,464.81c2.33,1.85,5.72,1.45,7.57-.88,1.85-2.33,1.45-5.72-.88-7.57l-6.69,8.45ZM633.22,444.86c-2.33-1.85-5.72-1.45-7.57.88-1.85,2.33-1.45,5.72.88,7.57l6.69-8.45ZM639.01,460.58c0,2.98,2.41,5.39,5.39,5.39s5.39-2.41,5.39-5.39h-10.78ZM649.78,434.72c0-2.98-2.41-5.39-5.39-5.39s-5.39,2.41-5.39,5.39h10.78ZM649.78,460.58c0-2.98-2.41-5.39-5.39-5.39s-5.39,2.41-5.39,5.39h10.78ZM639.01,523.81c0,2.98,2.41,5.39,5.39,5.39s5.39-2.41,5.39-5.39h-10.78ZM626.53,531.08c-2.33,1.85-2.73,5.24-.88,7.57s5.24,2.73,7.57.88l-6.69-8.45ZM647.74,528.04c2.33-1.85,2.73-5.24.88-7.57s-5.24-2.73-7.57-.88l6.69,8.45ZM647.74,519.59c-2.33-1.85-5.72-1.45-7.57.88-1.85,2.33-1.45,5.72.88,7.57l6.69-8.45ZM655.57,539.53c2.33,1.85,5.72,1.45,7.57-.88,1.85-2.33,1.45-5.72-.88-7.57l-6.69,8.45ZM649.78,523.81c0-2.98-2.41-5.39-5.39-5.39s-5.39,2.41-5.39,5.39h10.78ZM639.01,549.68c0,2.98,2.41,5.39,5.39,5.39s5.39-2.41,5.39-5.39h-10.78ZM601.36,496.28c-2.78-1.07-5.9.31-6.97,3.08-1.07,2.78.31,5.9,3.08,6.97l3.89-10.05h0ZM614.79,513.03c2.78,1.07,5.9-.31,6.97-3.08,1.07-2.78-.31-5.9-3.08-6.97l-3.89,10.05h0ZM622.06,508.82c.45-2.94-1.56-5.69-4.51-6.15-2.94-.45-5.69,1.56-6.15,4.51l10.65,1.64h.01ZM608.61,525.38c-.45,2.94,1.56,5.69,4.51,6.15,2.94.45,5.69-1.56,6.15-4.51l-10.65-1.64h-.01ZM619.41,512.68c2.58-1.48,3.48-4.77,2.01-7.35s-4.77-3.48-7.35-2.01l5.35,9.36h-.01ZM591.43,516.26c-2.58,1.48-3.48,4.77-2.01,7.35,1.48,2.58,4.77,3.48,7.35,2.01l-5.35-9.36h.01ZM614.06,503.33c-2.58,1.48-3.48,4.77-2.01,7.35,1.48,2.58,4.77,3.48,7.35,2.01l-5.35-9.36h.01ZM674.73,481.07c2.58-1.48,3.48-4.77,2.01-7.35-1.48-2.58-4.77-3.48-7.35-2.01l5.35,9.36h-.01ZM687.43,488.11c2.78,1.07,5.9-.31,6.97-3.08,1.07-2.78-.31-5.9-3.08-6.97l-3.89,10.05h0ZM674,471.37c-2.78-1.07-5.9.31-6.97,3.08-1.07,2.78.31,5.9,3.08,6.97l3.89-10.05h0ZM666.73,475.57c-.45,2.94,1.56,5.69,4.51,6.15,2.94.45,5.69-1.56,6.15-4.51l-10.65-1.64h-.01ZM680.19,459.02c.45-2.94-1.56-5.69-4.51-6.15-2.94-.45-5.69,1.56-6.15,4.51l10.65,1.64h.01ZM669.38,471.71c-2.58,1.48-3.48,4.77-2.01,7.35,1.48,2.58,4.77,3.48,7.35,2.01l-5.35-9.36h.01ZM697.36,468.14c2.58-1.48,3.48-4.77,2.01-7.35-1.48-2.58-4.77-3.48-7.35-2.01l5.35,9.36h-.01ZM597.48,478.06c-2.78,1.07-4.16,4.19-3.08,6.97,1.07,2.78,4.19,4.16,6.97,3.08l-3.89-10.05h0ZM618.68,481.42c2.78-1.07,4.16-4.19,3.08-6.97-1.07-2.78-4.19-4.16-6.97-3.08l3.89,10.05h0ZM611.41,477.21c.45,2.94,3.2,4.96,6.15,4.51,2.94-.45,4.96-3.21,4.51-6.15l-10.65,1.64h-.01ZM619.26,457.38c-.45-2.94-3.2-4.96-6.15-4.51-2.94.45-4.96,3.2-4.51,6.15l10.65-1.64h.01ZM614.06,481.07c2.58,1.48,5.88.58,7.35-2.01,1.48-2.58.58-5.88-2.01-7.35l-5.35,9.36h.01ZM596.78,458.78c-2.58-1.48-5.88-.58-7.35,2.01-1.48,2.58-.58,5.88,2.01,7.35l5.35-9.36h-.01ZM619.41,471.71c-2.58-1.48-5.88-.58-7.35,2.01-1.48,2.58-.58,5.88,2.01,7.35l5.35-9.36h-.01ZM669.38,512.68c2.58,1.48,5.88.58,7.35-2.01s.58-5.88-2.01-7.35l-5.35,9.36h.01ZM691.32,506.33c2.78-1.07,4.16-4.19,3.08-6.97-1.07-2.78-4.19-4.16-6.97-3.08l3.89,10.05h0ZM670.11,502.98c-2.78,1.07-4.16,4.19-3.08,6.97,1.07,2.78,4.19,4.16,6.97,3.08l-3.89-10.05h0ZM677.38,507.18c-.45-2.94-3.21-4.96-6.15-4.51-2.94.45-4.96,3.21-4.51,6.15l10.65-1.64h.01ZM669.53,527.02c.45,2.94,3.21,4.96,6.15,4.51s4.96-3.21,4.51-6.15l-10.65,1.64h-.01ZM674.73,503.33c-2.58-1.48-5.88-.58-7.35,2.01s-.58,5.88,2.01,7.35l5.35-9.36h-.01ZM692.02,525.62c2.58,1.48,5.88.58,7.35-2.01,1.48-2.58.58-5.88-2.01-7.35l-5.35,9.36h.01ZM655.57,444.86l-14.52,11.5,6.69,8.45,14.52-11.5-6.69-8.45ZM647.74,456.36l-14.52-11.5-6.69,8.45,14.52,11.5,6.69-8.45ZM649.78,460.58v-25.87h-10.78v25.87h10.78ZM639.01,460.58v63.23h10.78v-63.23h-10.78ZM633.22,539.53l14.52-11.5-6.69-8.45-14.52,11.5,6.69,8.45ZM641.05,528.04l14.52,11.5,6.69-8.45-14.52-11.5-6.69,8.45ZM639.01,523.81v25.87h10.78v-25.87h-10.78ZM597.48,506.33l17.32,6.7,3.89-10.05-17.32-6.7-3.89,10.05h0ZM611.41,507.18l-2.8,18.19,10.65,1.64,2.8-18.19-10.65-1.64ZM614.06,503.33l-22.63,12.93,5.35,9.36,22.63-12.93-5.35-9.36h0ZM619.41,512.68l55.32-31.61-5.35-9.36-55.32,31.61,5.35,9.36ZM691.32,478.06l-17.32-6.7-3.89,10.05,17.32,6.7,3.89-10.05ZM677.38,477.21l2.8-18.19-10.65-1.64-2.8,18.19,10.65,1.64ZM674.73,481.07l22.63-12.93-5.35-9.36-22.63,12.93,5.35,9.36ZM601.36,488.11l17.32-6.7-3.89-10.05-17.32,6.7,3.89,10.05ZM622.06,475.57l-2.8-18.19-10.65,1.64,2.8,18.19,10.65-1.64ZM619.41,471.71l-22.63-12.93-5.35,9.36,22.63,12.93,5.35-9.36ZM614.06,481.07l55.32,31.61,5.35-9.36-55.32-31.61-5.35,9.36h0ZM687.43,496.28l-17.32,6.7,3.89,10.05,17.32-6.7-3.89-10.05h0ZM666.73,508.82l2.8,18.19,10.65-1.64-2.8-18.19-10.65,1.64h0ZM669.38,512.68l22.63,12.93,5.35-9.36-22.63-12.93-5.35,9.36Z"/>
  <path class="st2" d="M520.54,496.68c2.33-1.85,2.73-5.24.88-7.57-1.85-2.33-5.24-2.73-7.57-.88l6.69,8.45ZM499.33,499.73c-2.33,1.85-2.73,5.24-.88,7.57s5.24,2.73,7.57.88l-6.69-8.45ZM499.33,508.18c2.33,1.85,5.72,1.45,7.57-.88,1.85-2.33,1.45-5.72-.88-7.57l-6.69,8.45ZM491.49,488.23c-2.33-1.85-5.72-1.45-7.57.88-1.85,2.33-1.45,5.72.88,7.57l6.69-8.45ZM497.28,503.95c0,2.98,2.41,5.39,5.39,5.39s5.39-2.41,5.39-5.39h-10.78ZM508.06,478.09c0-2.98-2.41-5.39-5.39-5.39s-5.39,2.41-5.39,5.39h10.78ZM508.06,503.95c0-2.98-2.41-5.39-5.39-5.39s-5.39,2.41-5.39,5.39h10.78ZM497.28,567.18c0,2.98,2.41,5.39,5.39,5.39s5.39-2.41,5.39-5.39h-10.78ZM484.81,574.45c-2.33,1.85-2.73,5.24-.88,7.57s5.24,2.73,7.57.88l-6.69-8.45ZM506.02,571.4c2.33-1.85,2.73-5.24.88-7.57s-5.24-2.73-7.57-.88l6.69,8.45ZM506.02,562.96c-2.33-1.85-5.72-1.45-7.57.88s-1.45,5.72.88,7.57l6.69-8.45ZM513.85,582.9c2.33,1.85,5.72,1.45,7.57-.88s1.45-5.72-.88-7.57l-6.69,8.45h0ZM508.06,567.18c0-2.98-2.41-5.39-5.39-5.39s-5.39,2.41-5.39,5.39h10.78ZM497.28,593.05c0,2.98,2.41,5.39,5.39,5.39s5.39-2.41,5.39-5.39h-10.78ZM459.64,539.65c-2.78-1.07-5.9.31-6.97,3.08-1.07,2.78.31,5.9,3.08,6.97l3.89-10.05ZM473.07,556.4c2.78,1.07,5.9-.31,6.97-3.08,1.07-2.78-.31-5.9-3.08-6.97l-3.89,10.05ZM480.33,552.19c.45-2.94-1.56-5.69-4.51-6.15-2.94-.45-5.69,1.56-6.15,4.51l10.65,1.64h.01ZM466.88,568.74c-.45,2.94,1.56,5.69,4.51,6.15,2.94.45,5.69-1.56,6.15-4.51l-10.65-1.64h-.01ZM477.68,556.05c2.58-1.48,3.48-4.77,2.01-7.35-1.48-2.58-4.77-3.48-7.35-2.01l5.35,9.36h-.01ZM449.7,559.63c-2.58,1.48-3.48,4.77-2.01,7.35,1.48,2.58,4.77,3.48,7.35,2.01l-5.35-9.36h.01ZM472.34,546.69c-2.58,1.48-3.48,4.77-2.01,7.35,1.48,2.58,4.77,3.48,7.35,2.01l-5.35-9.36h.01ZM533.01,524.44c2.58-1.48,3.48-4.77,2.01-7.35-1.48-2.58-4.77-3.48-7.35-2.01l5.35,9.36h-.01ZM545.7,531.48c2.78,1.07,5.9-.31,6.97-3.08,1.07-2.78-.31-5.9-3.08-6.97l-3.89,10.05h0ZM532.28,514.73c-2.78-1.07-5.9.31-6.97,3.08-1.07,2.78.31,5.9,3.08,6.97l3.89-10.05h0ZM525.01,518.94c-.45,2.94,1.56,5.69,4.51,6.15,2.94.45,5.69-1.56,6.15-4.51l-10.65-1.64h-.01ZM538.46,502.39c.45-2.94-1.56-5.69-4.51-6.15-2.94-.45-5.69,1.56-6.15,4.51l10.65,1.64h.01ZM527.66,515.08c-2.58,1.48-3.48,4.77-2.01,7.35,1.48,2.58,4.77,3.48,7.35,2.01l-5.35-9.36h.01ZM555.64,511.51c2.58-1.48,3.48-4.77,2.01-7.35-1.48-2.58-4.77-3.48-7.35-2.01l5.35,9.36h-.01ZM455.75,521.43c-2.78,1.07-4.16,4.19-3.08,6.97,1.07,2.78,4.19,4.16,6.97,3.08l-3.89-10.05ZM476.95,524.79c2.78-1.07,4.16-4.19,3.08-6.97-1.07-2.78-4.19-4.16-6.97-3.08l3.89,10.05ZM469.68,520.58c.45,2.94,3.2,4.96,6.15,4.51,2.94-.45,4.96-3.21,4.51-6.15l-10.65,1.64h-.01ZM477.53,500.75c-.45-2.94-3.2-4.96-6.15-4.51-2.94.45-4.96,3.2-4.51,6.15l10.65-1.64h.01ZM472.34,524.44c2.58,1.48,5.88.58,7.35-2.01,1.48-2.58.58-5.88-2.01-7.35l-5.35,9.36h.01ZM455.05,502.15c-2.58-1.48-5.88-.58-7.35,2.01-1.48,2.58-.58,5.88,2.01,7.35l5.35-9.36h-.01ZM477.68,515.08c-2.58-1.48-5.88-.58-7.35,2.01-1.48,2.58-.58,5.88,2.01,7.35l5.35-9.36h-.01ZM527.66,556.05c2.58,1.48,5.88.58,7.35-2.01s.58-5.88-2.01-7.35l-5.35,9.36h.01ZM549.59,549.7c2.78-1.07,4.16-4.19,3.08-6.97-1.07-2.78-4.19-4.16-6.97-3.08l3.89,10.05h0ZM528.39,546.35c-2.78,1.07-4.16,4.19-3.08,6.97,1.07,2.78,4.19,4.16,6.97,3.08l-3.89-10.05h0ZM535.66,550.55c-.45-2.94-3.21-4.96-6.15-4.51s-4.96,3.21-4.51,6.15l10.65-1.64h.01ZM527.81,570.39c.45,2.94,3.21,4.96,6.15,4.51s4.96-3.21,4.51-6.15l-10.65,1.64h-.01ZM533.01,546.69c-2.58-1.48-5.88-.58-7.35,2.01s-.58,5.88,2.01,7.35l5.35-9.36h-.01ZM550.29,568.98c2.58,1.48,5.88.58,7.35-2.01,1.48-2.58.58-5.88-2.01-7.35l-5.35,9.36h.01ZM513.85,488.23l-14.52,11.5,6.69,8.45,14.52-11.5-6.69-8.45h0ZM506.02,499.73l-14.52-11.5-6.69,8.45,14.52,11.5,6.69-8.45ZM508.06,503.95v-25.87h-10.78v25.87h10.78ZM497.28,503.95v63.23h10.78v-63.23h-10.78ZM491.49,582.9l14.52-11.5-6.69-8.45-14.52,11.5,6.69,8.45ZM499.33,571.4l14.52,11.5,6.69-8.45-14.52-11.5-6.69,8.45h0ZM497.28,567.18v25.87h10.78v-25.87h-10.78ZM455.75,549.7l17.32,6.7,3.89-10.05-17.32-6.7-3.89,10.05ZM469.68,550.55l-2.8,18.19,10.65,1.64,2.8-18.19-10.65-1.64ZM472.34,546.69l-22.63,12.93,5.35,9.36,22.63-12.93-5.35-9.36ZM477.68,556.05l55.32-31.61-5.35-9.36-55.32,31.61,5.35,9.36h0ZM549.59,521.43l-17.32-6.7-3.89,10.05,17.32,6.7,3.89-10.05ZM535.66,520.58l2.8-18.19-10.65-1.64-2.8,18.19,10.65,1.64ZM533.01,524.44l22.63-12.93-5.35-9.36-22.63,12.93,5.35,9.36ZM459.64,531.48l17.32-6.7-3.89-10.05-17.32,6.7,3.89,10.05ZM480.33,518.94l-2.8-18.19-10.65,1.64,2.8,18.19,10.65-1.64ZM477.68,515.08l-22.63-12.93-5.35,9.36,22.63,12.93,5.35-9.36ZM472.34,524.44l55.32,31.61,5.35-9.36-55.32-31.61-5.35,9.36h0ZM545.7,539.65l-17.32,6.7,3.89,10.05,17.32-6.7-3.89-10.05ZM525.01,552.19l2.8,18.19,10.65-1.64-2.8-18.19-10.65,1.64ZM527.66,556.05l22.63,12.93,5.35-9.36-22.63-12.93-5.35,9.36Z"/>
  <path class="st1" d="M391.75,513.97l-2.53-76.02-63.76,37.96c-14.67,7.84-23.6,23.34-23.02,39.97.96,24.63,21.49,43.94,46.13,43.4,24.22-.37,43.56-20.3,43.2-44.53,0-.26-.01-.52-.02-.78h0Z"/>
</svg>