<?xml version="1.0" encoding="UTF-8"?>
<svg id="Ebene_1" xmlns="http://www.w3.org/2000/svg" version="1.1" viewBox="0 0 874.25 850.57">
  <!-- Generator: Adobe Illustrator 30.6.0, SVG Export Plug-In . SVG Version: 2.1.4 Build 109)  -->
  <defs>
    <style>
      .st0 {
        fill: #e1e8ed;
      }

      .st1 {
        fill: #5dadec;
      }

      .st2 {
        fill: #ffac33;
      }
    </style>
  </defs>
  <path class="st2" d="M355.55,44.44s0-44.44,44.44-44.44,44.44,44.44,44.44,44.44v44.44s0,44.44-44.44,44.44-44.44-44.44-44.44-44.44c0,0,0-44.44,0-44.44ZM755.55,355.56s44.44,0,44.44,44.44-44.44,44.44-44.44,44.44h-44.44s-44.44,0-44.44-44.44,44.44-44.44,44.44-44.44h44.44ZM88.88,355.56s44.44,0,44.44,44.44-44.44,44.44-44.44,44.44h-44.44s-44.44,0-44.44-44.44,44.44-44.44,44.44-44.44h44.44ZM202.68,162.07s31.42,31.42,0,62.84c-31.42,31.42-62.84,0-62.84,0l-31.44-31.4s-31.42-31.42,0-62.87c31.44-31.42,62.87,0,62.87,0l31.42,31.42h0ZM660.17,224.91s-31.42,31.42-62.84,0,0-62.84,0-62.84l31.42-31.42s31.42-31.42,62.84,0,0,62.84,0,62.84l-31.42,31.42h0M669.35,628.73"/>
  <circle class="st2" cx="399.99" cy="400" r="222.22"/>
  <path class="st0" d="M701.44,334.99c-17.84,0-35,2.64-51.2,7.56-19.16-53.53-71.13-92-132.47-92-65.76,0-120.82,44.24-136.07,103.89-16.85-12.59-37.32-19.41-58.36-19.44-53.71,0-97.22,42.53-97.22,95,0,12.73,2.67,24.87,7.31,35.98-9.41-2.72-19.14-4.17-28.93-4.31-59.66,0-108.02,47.24-108.02,105.55s48.36,105.56,108.02,105.56h496.91c95.47,0,172.84-75.6,172.84-168.89s-77.38-168.89-172.82-168.89h.01Z"/>
  <path class="st1" d="M340.91,805.24l-2.51-76.02-63.76,37.96c-14.67,7.85-23.59,23.35-23.02,39.98.96,24.63,21.49,43.94,46.13,43.4,24.22-.38,43.55-20.32,43.17-44.55,0-.25,0-.51-.02-.76h.01ZM185.82,771.02l-2.53-76.02-63.76,37.96c-14.67,7.84-23.6,23.34-23.02,39.97.96,24.63,21.49,43.94,46.13,43.4,24.22-.37,43.56-20.3,43.2-44.53,0-.26,0-.52-.02-.78h0ZM496.93,783.02l-2.51-76.02-63.76,37.96c-14.67,7.85-23.59,23.35-23.02,39.98.96,24.63,21.49,43.94,46.13,43.4,24.22-.38,43.55-20.32,43.17-44.55,0-.25-.01-.51-.02-.76h0ZM629.77,805.24l-2.51-76.02-63.76,37.96c-14.66,7.85-23.59,23.36-23,39.98.96,24.63,21.49,43.94,46.13,43.4,24.21-.38,43.53-20.31,43.15-44.53,0-.26-.01-.52-.02-.79h.01ZM763.57,771.02l-2.53-76.02-63.76,37.96c-14.66,7.85-23.59,23.36-23,39.98.95,24.63,21.49,43.95,46.13,43.4,24.22-.38,43.55-20.32,43.17-44.55,0-.25-.01-.51-.02-.76h.01Z"/>
</svg>