<?xml version="1.0" encoding="UTF-8"?>
<svg id="Ebene_1" data-name="Ebene 1" xmlns="http://www.w3.org/2000/svg" viewBox="0 0 777.77 558.94">
  <defs>
    <style>
      .cls-1 {
        fill: #e1e8ed;
      }

      .cls-2 {
        fill: #6b6b6b;
      }
    </style>
  </defs>
  <path class="cls-1" d="M604.96,84.44c-17.84,0-35,2.64-51.2,7.56C534.6,38.47,482.63,0,421.29,0c-65.76,0-120.82,44.24-136.07,103.89-16.85-12.59-37.32-19.41-58.36-19.44-53.71,0-97.22,42.53-97.22,95,0,12.73,2.67,24.87,7.31,35.98-9.41-2.72-19.14-4.17-28.93-4.31C48.36,211.12,0,258.36,0,316.67s48.36,105.56,108.02,105.56h496.91c95.47,0,172.84-75.6,172.84-168.89s-77.38-168.89-172.82-168.89h.01Z"/>
  <polygon class="cls-2" points="106 472.89 83.74 485.44 61.74 472.44 62 446.89 84.26 434.34 106.26 447.34 106 472.89"/>
  <polygon class="cls-2" points="198 536.1 175.74 548.65 153.74 535.65 154 510.1 176.26 497.55 198.26 510.55 198 536.1"/>
  <polygon class="cls-2" points="316 485 293.74 497.55 271.74 484.55 272 459 294.26 446.44 316.26 459.44 316 485"/>
  <polygon class="cls-2" points="425 546.39 402.74 558.94 380.74 545.94 381 520.39 403.26 507.84 425.26 520.84 425 546.39"/>
  <polygon class="cls-2" points="516 479.39 493.74 491.94 471.74 478.94 472 453.39 494.26 440.84 516.26 453.84 516 479.39"/>
  <polygon class="cls-2" points="597.71 546.39 575.45 558.94 553.45 545.94 553.71 520.39 575.97 507.84 597.97 520.84 597.71 546.39"/>
  <polygon class="cls-2" points="691.63 472.89 669.38 485.44 647.38 472.44 647.63 446.89 669.89 434.34 691.89 447.34 691.63 472.89"/>
</svg>