<?xml version="1.0" encoding="UTF-8"?>
<svg id="Ebene_1" data-name="Ebene 1" xmlns="http://www.w3.org/2000/svg" viewBox="0 0 777.77 600.96">
  <defs>
    <style>
      .cls-1 {
        fill: #e1e8ed;
      }

      .cls-2 {
        fill: #6b6b6b;
      }
    </style>
  </defs>
  <path class="cls-1" d="M604.96,84.44c-17.84,0-35,2.64-51.2,7.56C534.6,38.47,482.62,0,421.29,0c-65.76,0-120.82,44.24-136.07,103.89-16.85-12.59-37.32-19.41-58.36-19.44-53.71,0-97.22,42.53-97.22,95,0,12.73,2.67,24.84,7.31,35.96-9.41-2.71-19.14-4.15-28.93-4.29-59.67,0-108.02,47.24-108.02,105.56s48.36,105.56,108.02,105.56h496.91c95.47,0,172.84-75.6,172.84-168.89s-77.38-168.89-172.82-168.89v-.02s.01,0,.01,0Z"/>
  <path class="cls-2" d="M633,455.83c2.33-1.85,2.73-5.24.88-7.57-1.85-2.33-5.24-2.73-7.57-.88l6.69,8.45ZM611.79,458.88c-2.33,1.85-2.73,5.24-.88,7.57,1.85,2.33,5.24,2.73,7.57.88l-6.69-8.45ZM611.79,467.33c2.33,1.85,5.72,1.45,7.57-.88,1.85-2.33,1.45-5.72-.88-7.57l-6.69,8.45ZM603.96,447.38c-2.33-1.85-5.72-1.45-7.57.88-1.85,2.33-1.45,5.72.88,7.57l6.69-8.45ZM609.75,463.1c0,2.98,2.41,5.39,5.39,5.39s5.39-2.41,5.39-5.39h-10.78ZM620.52,437.24c0-2.98-2.41-5.39-5.39-5.39s-5.39,2.41-5.39,5.39h10.78ZM620.52,463.1c0-2.98-2.41-5.39-5.39-5.39s-5.39,2.41-5.39,5.39h10.78ZM609.75,526.33c0,2.98,2.41,5.39,5.39,5.39s5.39-2.41,5.39-5.39h-10.78ZM597.27,533.6c-2.33,1.85-2.73,5.24-.88,7.57s5.24,2.73,7.57.88l-6.69-8.45ZM618.48,530.56c2.33-1.85,2.73-5.24.88-7.57s-5.24-2.73-7.57-.88l6.69,8.45ZM618.48,522.11c-2.33-1.85-5.72-1.45-7.57.88-1.85,2.33-1.45,5.72.88,7.57l6.69-8.45ZM626.31,542.05c2.33,1.85,5.72,1.45,7.57-.88,1.85-2.33,1.45-5.72-.88-7.57l-6.69,8.45ZM620.52,526.33c0-2.98-2.41-5.39-5.39-5.39s-5.39,2.41-5.39,5.39h10.78ZM609.75,552.2c0,2.98,2.41,5.39,5.39,5.39s5.39-2.41,5.39-5.39h-10.78ZM572.1,498.8c-2.78-1.07-5.9.31-6.97,3.08-1.07,2.78.31,5.9,3.08,6.97l3.89-10.05h0ZM585.53,515.55c2.78,1.07,5.9-.31,6.97-3.08,1.07-2.78-.31-5.9-3.08-6.97l-3.89,10.05h0ZM592.8,511.34c.45-2.94-1.56-5.69-4.51-6.15-2.94-.45-5.69,1.56-6.15,4.51l10.65,1.64h.01ZM579.35,527.9c-.45,2.94,1.56,5.69,4.51,6.15,2.94.45,5.69-1.56,6.15-4.51l-10.65-1.64h-.01ZM590.15,515.2c2.58-1.48,3.48-4.77,2.01-7.35s-4.77-3.48-7.35-2.01l5.35,9.36h-.01ZM562.17,518.78c-2.58,1.48-3.48,4.77-2.01,7.35,1.48,2.58,4.77,3.48,7.35,2.01l-5.35-9.36h.01ZM584.8,505.85c-2.58,1.48-3.48,4.77-2.01,7.35,1.48,2.58,4.77,3.48,7.35,2.01l-5.35-9.36h.01ZM645.47,483.59c2.58-1.48,3.48-4.77,2.01-7.35-1.48-2.58-4.77-3.48-7.35-2.01l5.35,9.36h-.01ZM658.17,490.63c2.78,1.07,5.9-.31,6.97-3.08,1.07-2.78-.31-5.9-3.08-6.97l-3.89,10.05h0ZM644.74,473.89c-2.78-1.07-5.9.31-6.97,3.08-1.07,2.78.31,5.9,3.08,6.97l3.89-10.05h0ZM637.47,478.09c-.45,2.94,1.56,5.69,4.51,6.15,2.94.45,5.69-1.56,6.15-4.51l-10.65-1.64h-.01ZM650.93,461.54c.45-2.94-1.56-5.69-4.51-6.15-2.94-.45-5.69,1.56-6.15,4.51l10.65,1.64h.01ZM640.12,474.23c-2.58,1.48-3.48,4.77-2.01,7.35,1.48,2.58,4.77,3.48,7.35,2.01l-5.35-9.36h.01ZM668.1,470.66c2.58-1.48,3.48-4.77,2.01-7.35-1.48-2.58-4.77-3.48-7.35-2.01l5.35,9.36h-.01ZM568.22,480.58c-2.78,1.07-4.16,4.19-3.08,6.97,1.07,2.78,4.19,4.16,6.97,3.08l-3.89-10.05h0ZM589.42,483.94c2.78-1.07,4.16-4.19,3.08-6.97-1.07-2.78-4.19-4.16-6.97-3.08l3.89,10.05h0ZM582.15,479.73c.45,2.94,3.2,4.96,6.15,4.51,2.94-.45,4.96-3.21,4.51-6.15l-10.65,1.64h-.01ZM590,459.9c-.45-2.94-3.2-4.96-6.15-4.51-2.94.45-4.96,3.2-4.51,6.15l10.65-1.64h.01ZM584.8,483.59c2.58,1.48,5.88.58,7.35-2.01,1.48-2.58.58-5.88-2.01-7.35l-5.35,9.36h.01ZM567.52,461.3c-2.58-1.48-5.88-.58-7.35,2.01-1.48,2.58-.58,5.88,2.01,7.35l5.35-9.36h-.01ZM590.15,474.23c-2.58-1.48-5.88-.58-7.35,2.01-1.48,2.58-.58,5.88,2.01,7.35l5.35-9.36h-.01ZM640.12,515.2c2.58,1.48,5.88.58,7.35-2.01s.58-5.88-2.01-7.35l-5.35,9.36h.01ZM662.06,508.85c2.78-1.07,4.16-4.19,3.08-6.97-1.07-2.78-4.19-4.16-6.97-3.08l3.89,10.05h0ZM640.85,505.5c-2.78,1.07-4.16,4.19-3.08,6.97,1.07,2.78,4.19,4.16,6.97,3.08l-3.89-10.05h0ZM648.12,509.7c-.45-2.94-3.21-4.96-6.15-4.51-2.94.45-4.96,3.21-4.51,6.15l10.65-1.64h.01ZM640.27,529.54c.45,2.94,3.21,4.96,6.15,4.51s4.96-3.21,4.51-6.15l-10.65,1.64h-.01ZM645.47,505.85c-2.58-1.48-5.88-.58-7.35,2.01s-.58,5.88,2.01,7.35l5.35-9.36h-.01ZM662.76,528.14c2.58,1.48,5.88.58,7.35-2.01,1.48-2.58.58-5.88-2.01-7.35l-5.35,9.36h.01ZM626.31,447.38l-14.52,11.5,6.69,8.45,14.52-11.5-6.69-8.45ZM618.48,458.88l-14.52-11.5-6.69,8.45,14.52,11.5,6.69-8.45ZM620.52,463.1v-25.87h-10.78v25.87h10.78ZM609.75,463.1v63.23h10.78v-63.23h-10.78ZM603.96,542.05l14.52-11.5-6.69-8.45-14.52,11.5,6.69,8.45ZM611.79,530.56l14.52,11.5,6.69-8.45-14.52-11.5-6.69,8.45ZM609.75,526.33v25.87h10.78v-25.87h-10.78ZM568.22,508.85l17.32,6.7,3.89-10.05-17.32-6.7-3.89,10.05h0ZM582.15,509.7l-2.8,18.19,10.65,1.64,2.8-18.19-10.65-1.64ZM584.8,505.85l-22.63,12.93,5.35,9.36,22.63-12.93-5.35-9.36h0ZM590.15,515.2l55.32-31.61-5.35-9.36-55.32,31.61,5.35,9.36ZM662.06,480.58l-17.32-6.7-3.89,10.05,17.32,6.7,3.89-10.05ZM648.12,479.73l2.8-18.19-10.65-1.64-2.8,18.19,10.65,1.64ZM645.47,483.59l22.63-12.93-5.35-9.36-22.63,12.93,5.35,9.36ZM572.1,490.63l17.32-6.7-3.89-10.05-17.32,6.7,3.89,10.05ZM592.8,478.09l-2.8-18.19-10.65,1.64,2.8,18.19,10.65-1.64ZM590.15,474.23l-22.63-12.93-5.35,9.36,22.63,12.93,5.35-9.36ZM584.8,483.59l55.32,31.61,5.35-9.36-55.32-31.61-5.35,9.36h0ZM658.17,498.8l-17.32,6.7,3.89,10.05,17.32-6.7-3.89-10.05ZM637.47,511.34l2.8,18.19,10.65-1.64-2.8-18.19-10.65,1.64h0ZM640.12,515.2l22.63,12.93,5.35-9.36-22.63-12.93-5.35,9.36Z"/>
  <path class="cls-2" d="M268.96,497.5c2.2-1.74,2.57-4.93.83-7.13-1.74-2.2-4.93-2.57-7.13-.83l6.3,7.96h0ZM248.97,500.37c-2.2,1.74-2.57,4.93-.83,7.13s4.93,2.57,7.13.83l-6.3-7.96ZM248.97,508.33c2.2,1.74,5.39,1.37,7.13-.83,1.74-2.2,1.37-5.39-.83-7.13l-6.3,7.96ZM241.6,489.54c-2.2-1.74-5.39-1.37-7.13.83-1.74,2.2-1.37,5.39.83,7.13l6.3-7.96ZM247.05,504.35c0,2.8,2.27,5.08,5.08,5.08s5.08-2.27,5.08-5.08h-10.16ZM257.2,479.98c0-2.8-2.27-5.08-5.08-5.08s-5.08,2.27-5.08,5.08h10.16ZM257.2,504.35c0-2.8-2.27-5.08-5.08-5.08s-5.08,2.27-5.08,5.08h10.16ZM247.05,563.92c0,2.8,2.27,5.08,5.08,5.08s5.08-2.27,5.08-5.08h-10.16ZM235.29,570.77c-2.2,1.74-2.57,4.93-.83,7.13s4.93,2.57,7.13.83l-6.3-7.96ZM255.28,567.9c2.2-1.74,2.57-4.93.83-7.13-1.74-2.2-4.93-2.57-7.13-.83l6.3,7.96h0ZM255.28,559.94c-2.2-1.74-5.39-1.37-7.13.83s-1.37,5.39.83,7.13l6.3-7.96ZM262.66,578.73c2.2,1.74,5.39,1.37,7.13-.83s1.37-5.39-.83-7.13l-6.3,7.96h0ZM257.2,563.92c0-2.8-2.27-5.08-5.08-5.08s-5.08,2.27-5.08,5.08h10.16ZM247.05,588.29c0,2.8,2.27,5.08,5.08,5.08s5.08-2.27,5.08-5.08h-10.16ZM211.58,537.99c-2.62-1.01-5.56.29-6.57,2.9-1.01,2.61.29,5.55,2.9,6.57l3.66-9.47h.01ZM224.23,553.77c2.62,1.01,5.56-.29,6.57-2.9,1.01-2.61-.29-5.55-2.9-6.57l-3.66,9.47h-.01ZM231.08,549.8c.43-2.77-1.47-5.36-4.24-5.79s-5.36,1.47-5.79,4.25l10.04,1.55h0ZM218.41,565.4c-.43,2.77,1.47,5.36,4.24,5.79s5.36-1.47,5.79-4.25l-10.04-1.55h0ZM228.58,553.44c2.43-1.39,3.28-4.49,1.89-6.93-1.39-2.43-4.49-3.28-6.93-1.89l5.04,8.82ZM202.22,556.81c-2.43,1.39-3.28,4.49-1.89,6.93,1.39,2.43,4.49,3.28,6.93,1.89l-5.04-8.82ZM223.55,544.62c-2.43,1.39-3.28,4.49-1.89,6.93,1.39,2.43,4.49,3.28,6.93,1.89l-5.04-8.82ZM280.71,523.65c2.43-1.39,3.28-4.49,1.89-6.93-1.39-2.43-4.49-3.28-6.93-1.89l5.04,8.82h0ZM292.67,530.29c2.61,1.01,5.55-.29,6.57-2.9,1.01-2.61-.29-5.55-2.9-6.57l-3.66,9.47h-.01ZM280.02,514.51c-2.61-1.01-5.55.29-6.57,2.9-1.01,2.62.29,5.55,2.9,6.57l3.66-9.47h.01ZM273.17,518.47c-.43,2.77,1.47,5.36,4.25,5.79,2.77.43,5.36-1.47,5.79-4.25l-10.04-1.55h0ZM285.85,502.88c.43-2.77-1.47-5.36-4.25-5.79-2.77-.43-5.36,1.47-5.79,4.24l10.04,1.55h0ZM275.67,514.84c-2.43,1.39-3.28,4.49-1.89,6.93,1.39,2.43,4.49,3.28,6.93,1.89l-5.04-8.82h0ZM302.03,511.47c2.43-1.39,3.28-4.49,1.89-6.93-1.39-2.43-4.49-3.28-6.93-1.89l5.04,8.82h0ZM207.92,520.82c-2.62,1.01-3.92,3.95-2.9,6.57,1.01,2.61,3.95,3.92,6.57,2.9l-3.66-9.47h-.01ZM227.9,523.98c2.62-1.01,3.92-3.95,2.9-6.57-1.01-2.62-3.95-3.92-6.57-2.9l3.66,9.47h.01ZM221.05,520.02c.43,2.77,3.02,4.67,5.79,4.25,2.77-.43,4.67-3.02,4.24-5.79l-10.04,1.55h0ZM228.44,501.33c-.43-2.77-3.02-4.67-5.79-4.24-2.77.43-4.67,3.02-4.24,5.79l10.04-1.55h0ZM223.55,523.65c2.43,1.39,5.54.54,6.93-1.89s.55-5.54-1.89-6.93l-5.04,8.82ZM207.26,502.65c-2.43-1.39-5.54-.55-6.93,1.89-1.39,2.43-.55,5.54,1.89,6.93l5.04-8.82ZM228.58,514.84c-2.43-1.39-5.54-.55-6.93,1.89-1.39,2.43-.55,5.54,1.89,6.93l5.04-8.82ZM275.67,553.44c2.43,1.39,5.54.54,6.93-1.89s.54-5.54-1.89-6.93l-5.04,8.82h0ZM296.33,547.46c2.61-1.01,3.92-3.95,2.9-6.57-1.01-2.61-3.95-3.92-6.57-2.9l3.66,9.47h.01ZM276.36,544.3c-2.61,1.01-3.92,3.95-2.9,6.57,1.01,2.61,3.95,3.92,6.57,2.9l-3.66-9.47h-.01ZM283.21,548.26c-.43-2.77-3.02-4.67-5.79-4.25-2.77.43-4.67,3.02-4.25,5.79l10.04-1.55h0ZM275.81,566.94c.43,2.77,3.02,4.67,5.79,4.25,2.77-.43,4.67-3.02,4.25-5.79l-10.04,1.55h0ZM280.71,544.62c-2.43-1.39-5.54-.54-6.93,1.89s-.54,5.54,1.89,6.93l5.04-8.82h0ZM296.99,565.62c2.43,1.39,5.54.54,6.93-1.89,1.39-2.43.54-5.54-1.89-6.93l-5.04,8.82h0ZM262.66,489.54l-13.68,10.83,6.3,7.96,13.68-10.83-6.3-7.96h0ZM255.28,500.37l-13.68-10.83-6.3,7.96,13.68,10.83,6.3-7.96h0ZM257.2,504.35v-24.37h-10.15v24.37h10.15ZM247.05,504.35v59.57h10.15v-59.57h-10.15ZM241.6,578.73l13.68-10.83-6.3-7.96-13.68,10.83,6.3,7.96h0ZM248.97,567.9l13.68,10.83,6.3-7.96-13.68-10.83-6.3,7.96h0ZM247.05,563.92v24.37h10.15v-24.37h-10.15ZM207.92,547.46l16.31,6.31,3.66-9.47-16.31-6.31-3.66,9.47ZM221.05,548.26l-2.64,17.14,10.04,1.55,2.64-17.14-10.04-1.55ZM223.55,544.62l-21.32,12.18,5.04,8.82,21.32-12.18-5.04-8.82ZM228.58,553.44l52.12-29.78-5.04-8.82-52.12,29.78,5.04,8.82ZM296.33,520.82l-16.31-6.31-3.66,9.47,16.31,6.31,3.66-9.47ZM283.21,520.02l2.64-17.14-10.04-1.55-2.64,17.14,10.04,1.55ZM280.71,523.65l21.32-12.18-5.04-8.82-21.32,12.18,5.04,8.82ZM211.58,530.29l16.31-6.31-3.66-9.47-16.31,6.31,3.66,9.47ZM231.08,518.47l-2.64-17.14-10.04,1.55,2.64,17.14,10.04-1.55ZM228.58,514.84l-21.32-12.18-5.04,8.82,21.32,12.18,5.04-8.82ZM223.55,523.65l52.12,29.78,5.04-8.82-52.12-29.78-5.04,8.82h0ZM292.67,537.99l-16.31,6.31,3.66,9.47,16.31-6.31-3.66-9.47ZM273.17,549.8l2.64,17.14,10.04-1.55-2.64-17.14-10.04,1.55ZM275.67,553.44l21.32,12.18,5.04-8.82-21.32-12.18-5.04,8.82Z"/>
  <path class="cls-2" d="M513.28,499.2c2.33-1.85,2.73-5.24.88-7.57-1.85-2.33-5.24-2.73-7.57-.88l6.69,8.45ZM492.07,502.25c-2.33,1.85-2.73,5.24-.88,7.57s5.24,2.73,7.57.88l-6.69-8.45ZM492.07,510.7c2.33,1.85,5.72,1.45,7.57-.88,1.85-2.33,1.45-5.72-.88-7.57l-6.69,8.45ZM484.23,490.75c-2.33-1.85-5.72-1.45-7.57.88-1.85,2.33-1.45,5.72.88,7.57l6.69-8.45ZM490.02,506.47c0,2.98,2.41,5.39,5.39,5.39s5.39-2.41,5.39-5.39h-10.78ZM500.8,480.61c0-2.98-2.41-5.39-5.39-5.39s-5.39,2.41-5.39,5.39h10.78ZM500.8,506.47c0-2.98-2.41-5.39-5.39-5.39s-5.39,2.41-5.39,5.39h10.78ZM490.02,569.7c0,2.98,2.41,5.39,5.39,5.39s5.39-2.41,5.39-5.39h-10.78ZM477.55,576.97c-2.33,1.85-2.73,5.24-.88,7.57s5.24,2.73,7.57.88l-6.69-8.45ZM498.76,573.92c2.33-1.85,2.73-5.24.88-7.57s-5.24-2.73-7.57-.88l6.69,8.45ZM498.76,565.48c-2.33-1.85-5.72-1.45-7.57.88s-1.45,5.72.88,7.57l6.69-8.45ZM506.59,585.42c2.33,1.85,5.72,1.45,7.57-.88s1.45-5.72-.88-7.57l-6.69,8.45h0ZM500.8,569.7c0-2.98-2.41-5.39-5.39-5.39s-5.39,2.41-5.39,5.39h10.78ZM490.02,595.57c0,2.98,2.41,5.39,5.39,5.39s5.39-2.41,5.39-5.39h-10.78ZM452.38,542.17c-2.78-1.07-5.9.31-6.97,3.08-1.07,2.78.31,5.9,3.08,6.97l3.89-10.05ZM465.81,558.92c2.78,1.07,5.9-.31,6.97-3.08,1.07-2.78-.31-5.9-3.08-6.97l-3.89,10.05ZM473.07,554.71c.45-2.94-1.56-5.69-4.51-6.15-2.94-.45-5.69,1.56-6.15,4.51l10.65,1.64h.01ZM459.62,571.26c-.45,2.94,1.56,5.69,4.51,6.15,2.94.45,5.69-1.56,6.15-4.51l-10.65-1.64h-.01ZM470.42,558.57c2.58-1.48,3.48-4.77,2.01-7.35-1.48-2.58-4.77-3.48-7.35-2.01l5.35,9.36h-.01ZM442.44,562.15c-2.58,1.48-3.48,4.77-2.01,7.35,1.48,2.58,4.77,3.48,7.35,2.01l-5.35-9.36h.01ZM465.08,549.21c-2.58,1.48-3.48,4.77-2.01,7.35,1.48,2.58,4.77,3.48,7.35,2.01l-5.35-9.36h.01ZM525.75,526.96c2.58-1.48,3.48-4.77,2.01-7.35-1.48-2.58-4.77-3.48-7.35-2.01l5.35,9.36h-.01ZM538.44,534c2.78,1.07,5.9-.31,6.97-3.08,1.07-2.78-.31-5.9-3.08-6.97l-3.89,10.05h0ZM525.02,517.25c-2.78-1.07-5.9.31-6.97,3.08-1.07,2.78.31,5.9,3.08,6.97l3.89-10.05h0ZM517.75,521.46c-.45,2.94,1.56,5.69,4.51,6.15,2.94.45,5.69-1.56,6.15-4.51l-10.65-1.64h-.01ZM531.2,504.91c.45-2.94-1.56-5.69-4.51-6.15-2.94-.45-5.69,1.56-6.15,4.51l10.65,1.64h.01ZM520.4,517.6c-2.58,1.48-3.48,4.77-2.01,7.35,1.48,2.58,4.77,3.48,7.35,2.01l-5.35-9.36h.01ZM548.38,514.03c2.58-1.48,3.48-4.77,2.01-7.35-1.48-2.58-4.77-3.48-7.35-2.01l5.35,9.36h-.01ZM448.49,523.95c-2.78,1.07-4.16,4.19-3.08,6.97,1.07,2.78,4.19,4.16,6.97,3.08l-3.89-10.05ZM469.69,527.31c2.78-1.07,4.16-4.19,3.08-6.97-1.07-2.78-4.19-4.16-6.97-3.08l3.89,10.05ZM462.42,523.1c.45,2.94,3.2,4.96,6.15,4.51,2.94-.45,4.96-3.21,4.51-6.15l-10.65,1.64h-.01ZM470.27,503.27c-.45-2.94-3.2-4.96-6.15-4.51-2.94.45-4.96,3.2-4.51,6.15l10.65-1.64h.01ZM465.08,526.96c2.58,1.48,5.88.58,7.35-2.01,1.48-2.58.58-5.88-2.01-7.35l-5.35,9.36h.01ZM447.79,504.67c-2.58-1.48-5.88-.58-7.35,2.01-1.48,2.58-.58,5.88,2.01,7.35l5.35-9.36h-.01ZM470.42,517.6c-2.58-1.48-5.88-.58-7.35,2.01-1.48,2.58-.58,5.88,2.01,7.35l5.35-9.36h-.01ZM520.4,558.57c2.58,1.48,5.88.58,7.35-2.01s.58-5.88-2.01-7.35l-5.35,9.36h.01ZM542.33,552.22c2.78-1.07,4.16-4.19,3.08-6.97-1.07-2.78-4.19-4.16-6.97-3.08l3.89,10.05h0ZM521.13,548.87c-2.78,1.07-4.16,4.19-3.08,6.97,1.07,2.78,4.19,4.16,6.97,3.08l-3.89-10.05h0ZM528.4,553.07c-.45-2.94-3.21-4.96-6.15-4.51s-4.96,3.21-4.51,6.15l10.65-1.64h.01ZM520.55,572.91c.45,2.94,3.21,4.96,6.15,4.51s4.96-3.21,4.51-6.15l-10.65,1.64h-.01ZM525.75,549.21c-2.58-1.48-5.88-.58-7.35,2.01s-.58,5.88,2.01,7.35l5.35-9.36h-.01ZM543.03,571.5c2.58,1.48,5.88.58,7.35-2.01,1.48-2.58.58-5.88-2.01-7.35l-5.35,9.36h.01ZM506.59,490.75l-14.52,11.5,6.69,8.45,14.52-11.5-6.69-8.45h0ZM498.76,502.25l-14.52-11.5-6.69,8.45,14.52,11.5,6.69-8.45ZM500.8,506.47v-25.87h-10.78v25.87h10.78ZM490.02,506.47v63.23h10.78v-63.23h-10.78ZM484.23,585.42l14.52-11.5-6.69-8.45-14.52,11.5,6.69,8.45ZM492.07,573.92l14.52,11.5,6.69-8.45-14.52-11.5-6.69,8.45h0ZM490.02,569.7v25.87h10.78v-25.87h-10.78ZM448.49,552.22l17.32,6.7,3.89-10.05-17.32-6.7-3.89,10.05ZM462.42,553.07l-2.8,18.19,10.65,1.64,2.8-18.19-10.65-1.64ZM465.08,549.21l-22.63,12.93,5.35,9.36,22.63-12.93-5.35-9.36ZM470.42,558.57l55.32-31.61-5.35-9.36-55.32,31.61,5.35,9.36ZM542.33,523.95l-17.32-6.7-3.89,10.05,17.32,6.7,3.89-10.05ZM528.4,523.1l2.8-18.19-10.65-1.64-2.8,18.19,10.65,1.64ZM525.75,526.96l22.63-12.93-5.35-9.36-22.63,12.93,5.35,9.36ZM452.38,534l17.32-6.7-3.89-10.05-17.32,6.7,3.89,10.05ZM473.07,521.46l-2.8-18.19-10.65,1.64,2.8,18.19,10.65-1.64ZM470.42,517.6l-22.63-12.93-5.35,9.36,22.63,12.93,5.35-9.36ZM465.08,526.96l55.32,31.61,5.35-9.36-55.32-31.61-5.35,9.36h0ZM538.44,542.17l-17.32,6.7,3.89,10.05,17.32-6.7-3.89-10.05ZM517.75,554.71l2.8,18.19,10.65-1.64-2.8-18.19-10.65,1.64ZM520.4,558.57l22.63,12.93,5.35-9.36-22.63-12.93-5.35,9.36Z"/>
  <path class="cls-2" d="M150.34,453.88c2.33-1.85,2.73-5.24.88-7.57-1.85-2.33-5.24-2.73-7.57-.88l6.69,8.45ZM129.13,456.93c-2.33,1.85-2.73,5.24-.88,7.57,1.85,2.33,5.24,2.73,7.57.88l-6.69-8.45ZM129.13,465.38c2.33,1.85,5.72,1.45,7.57-.88,1.85-2.33,1.45-5.72-.88-7.57l-6.69,8.45ZM121.3,445.43c-2.33-1.85-5.72-1.45-7.57.88-1.85,2.33-1.45,5.72.88,7.57l6.69-8.45ZM127.09,461.15c0,2.98,2.41,5.39,5.39,5.39s5.39-2.41,5.39-5.39h-10.78ZM137.86,435.29c0-2.98-2.41-5.39-5.39-5.39s-5.39,2.41-5.39,5.39h10.78ZM137.86,461.15c0-2.98-2.41-5.39-5.39-5.39s-5.39,2.41-5.39,5.39h10.78ZM127.09,524.38c0,2.98,2.41,5.39,5.39,5.39s5.39-2.41,5.39-5.39h-10.78ZM114.61,531.65c-2.33,1.85-2.73,5.24-.88,7.57,1.85,2.33,5.24,2.73,7.57.88l-6.69-8.45ZM135.82,528.6c2.33-1.85,2.73-5.24.88-7.57-1.85-2.33-5.24-2.73-7.57-.88l6.69,8.45ZM135.82,520.15c-2.33-1.85-5.72-1.45-7.57.88-1.85,2.33-1.45,5.72.88,7.57l6.69-8.45ZM143.65,540.1c2.33,1.85,5.72,1.45,7.57-.88s1.45-5.72-.88-7.57l-6.69,8.45ZM137.86,524.38c0-2.98-2.41-5.39-5.39-5.39s-5.39,2.41-5.39,5.39h10.78ZM127.09,550.24c0,2.98,2.41,5.39,5.39,5.39s5.39-2.41,5.39-5.39h-10.78ZM89.44,496.85c-2.78-1.07-5.9.31-6.97,3.08-1.07,2.78.31,5.9,3.08,6.97l3.89-10.05ZM102.87,513.6c2.78,1.07,5.9-.31,6.97-3.08,1.07-2.78-.31-5.9-3.08-6.97l-3.89,10.05ZM110.14,509.39c.45-2.94-1.56-5.69-4.51-6.15-2.94-.45-5.69,1.56-6.15,4.51l10.65,1.64h.01ZM96.69,525.94c-.45,2.94,1.56,5.69,4.51,6.15,2.94.45,5.69-1.56,6.15-4.51l-10.65-1.64h-.01ZM107.49,513.25c2.58-1.48,3.48-4.77,2.01-7.35s-4.77-3.48-7.35-2.01l5.35,9.36h-.01ZM79.51,516.83c-2.58,1.48-3.48,4.77-2.01,7.35,1.48,2.58,4.77,3.48,7.35,2.01l-5.35-9.36h.01ZM102.14,503.89c-2.58,1.48-3.48,4.77-2.01,7.35,1.48,2.58,4.77,3.48,7.35,2.01l-5.35-9.36h.01ZM162.81,481.64c2.58-1.48,3.48-4.77,2.01-7.35-1.48-2.58-4.77-3.48-7.35-2.01l5.35,9.36h0ZM175.51,488.68c2.78,1.07,5.9-.31,6.97-3.08,1.07-2.78-.31-5.9-3.08-6.97l-3.89,10.05ZM162.08,471.93c-2.78-1.07-5.9.31-6.97,3.08-1.07,2.78.31,5.9,3.08,6.97l3.89-10.05ZM154.81,476.14c-.45,2.94,1.56,5.69,4.51,6.15,2.94.45,5.69-1.56,6.15-4.51l-10.65-1.64h0ZM168.26,459.59c.45-2.94-1.56-5.69-4.51-6.15-2.94-.45-5.69,1.56-6.15,4.51l10.65,1.64h0ZM157.46,472.28c-2.58,1.48-3.48,4.77-2.01,7.35,1.48,2.58,4.77,3.48,7.35,2.01l-5.35-9.36h0ZM185.44,468.71c2.58-1.48,3.48-4.77,2.01-7.35-1.48-2.58-4.77-3.48-7.35-2.01l5.35,9.36h0ZM85.55,478.63c-2.78,1.07-4.16,4.19-3.08,6.97,1.07,2.78,4.19,4.16,6.97,3.08l-3.89-10.05ZM106.76,481.99c2.78-1.07,4.16-4.19,3.08-6.97-1.07-2.78-4.19-4.16-6.97-3.08l3.89,10.05ZM99.49,477.78c.45,2.94,3.2,4.96,6.15,4.51,2.94-.45,4.96-3.21,4.51-6.15l-10.65,1.64h-.01ZM107.34,457.95c-.45-2.94-3.2-4.96-6.15-4.51-2.94.45-4.96,3.2-4.51,6.15l10.65-1.64h.01ZM102.14,481.64c2.58,1.48,5.88.58,7.35-2.01,1.48-2.58.58-5.88-2.01-7.35l-5.35,9.36h.01ZM84.85,459.35c-2.58-1.48-5.88-.58-7.35,2.01-1.48,2.58-.58,5.88,2.01,7.35l5.35-9.36h-.01ZM107.49,472.28c-2.58-1.48-5.88-.58-7.35,2.01-1.48,2.58-.58,5.88,2.01,7.35l5.35-9.36h-.01ZM157.46,513.25c2.58,1.48,5.88.58,7.35-2.01,1.48-2.58.58-5.88-2.01-7.35l-5.35,9.36h0ZM179.4,506.9c2.78-1.07,4.16-4.19,3.08-6.97-1.07-2.78-4.19-4.16-6.97-3.08l3.89,10.05ZM158.19,503.55c-2.78,1.07-4.16,4.19-3.08,6.97,1.07,2.78,4.19,4.16,6.97,3.08l-3.89-10.05ZM165.46,507.75c-.45-2.94-3.21-4.96-6.15-4.51-2.94.45-4.96,3.21-4.51,6.15l10.65-1.64h0ZM157.61,527.59c.45,2.94,3.21,4.96,6.15,4.51,2.94-.45,4.96-3.21,4.51-6.15l-10.65,1.64h0ZM162.81,503.89c-2.58-1.48-5.88-.58-7.35,2.01s-.58,5.88,2.01,7.35l5.35-9.36h0ZM180.1,526.18c2.58,1.48,5.88.58,7.35-2.01,1.48-2.58.58-5.88-2.01-7.35l-5.35,9.36h0ZM143.65,445.43l-14.52,11.5,6.69,8.45,14.52-11.5-6.69-8.45ZM135.82,456.93l-14.52-11.5-6.69,8.45,14.52,11.5,6.69-8.45ZM137.86,461.15v-25.87h-10.78v25.87h10.78ZM127.09,461.15v63.23h10.78v-63.23h-10.78ZM121.3,540.1l14.52-11.5-6.69-8.45-14.52,11.5,6.69,8.45ZM129.13,528.6l14.52,11.5,6.69-8.45-14.52-11.5-6.69,8.45ZM127.09,524.38v25.87h10.78v-25.87h-10.78ZM85.55,506.9l17.32,6.7,3.89-10.05-17.32-6.7-3.89,10.05h0ZM99.49,507.75l-2.8,18.19,10.65,1.64,2.8-18.19-10.65-1.64ZM102.14,503.89l-22.63,12.93,5.35,9.36,22.63-12.93-5.35-9.36ZM107.49,513.25l55.32-31.61-5.35-9.36-55.32,31.61s5.35,9.36,5.35,9.36ZM179.4,478.63l-17.32-6.7-3.89,10.05,17.32,6.7,3.89-10.05h0ZM165.46,477.78l2.8-18.19-10.65-1.64-2.8,18.19,10.65,1.64ZM162.81,481.64l22.63-12.93-5.35-9.36-22.63,12.93,5.35,9.36ZM89.44,488.68l17.32-6.7-3.89-10.05-17.32,6.7,3.89,10.05ZM110.14,476.14l-2.8-18.19-10.65,1.64,2.8,18.19,10.65-1.64ZM107.49,472.28l-22.63-12.93-5.35,9.36,22.63,12.93,5.35-9.36ZM102.14,481.64l55.32,31.61,5.35-9.36-55.32-31.61-5.35,9.36ZM175.51,496.85l-17.32,6.7,3.89,10.05,17.32-6.7-3.89-10.05h0ZM154.81,509.39l2.8,18.19,10.65-1.64-2.8-18.19-10.65,1.64ZM157.46,513.25l22.63,12.93,5.35-9.36-22.63-12.93-5.35,9.36Z"/>
  <path class="cls-2" d="M390.12,456.38c2.2-1.74,2.57-4.93.83-7.13-1.74-2.2-4.93-2.57-7.13-.83l6.3,7.96h0ZM370.14,459.25c-2.2,1.74-2.57,4.93-.83,7.13,1.74,2.2,4.93,2.57,7.13.83l-6.3-7.96h0ZM370.14,467.21c2.2,1.74,5.39,1.37,7.13-.83,1.74-2.2,1.37-5.39-.83-7.13l-6.3,7.96h0ZM362.76,448.42c-2.2-1.74-5.39-1.37-7.13.83-1.74,2.2-1.37,5.39.83,7.13l6.3-7.96h0ZM368.21,463.23c0,2.8,2.27,5.08,5.08,5.08s5.08-2.27,5.08-5.08h-10.16ZM378.37,438.86c0-2.8-2.27-5.08-5.08-5.08s-5.08,2.27-5.08,5.08h10.16ZM378.37,463.23c0-2.8-2.27-5.08-5.08-5.08s-5.08,2.27-5.08,5.08h10.16ZM368.21,522.8c0,2.8,2.27,5.08,5.08,5.08s5.08-2.27,5.08-5.08h-10.16ZM356.46,529.65c-2.2,1.74-2.57,4.93-.83,7.13,1.74,2.2,4.93,2.57,7.13.83l-6.3-7.96h0ZM376.44,526.78c2.2-1.74,2.57-4.93.83-7.13-1.74-2.2-4.93-2.57-7.13-.83l6.3,7.96h0ZM376.44,518.82c-2.2-1.74-5.39-1.37-7.13.83s-1.37,5.39.83,7.13l6.3-7.96h0ZM383.82,537.61c2.2,1.74,5.39,1.37,7.13-.83s1.37-5.39-.83-7.13l-6.3,7.96h0ZM378.37,522.8c0-2.8-2.27-5.08-5.08-5.08s-5.08,2.27-5.08,5.08h10.16ZM368.21,547.17c0,2.8,2.27,5.08,5.08,5.08s5.08-2.27,5.08-5.08h-10.16ZM332.74,496.87c-2.62-1.01-5.56.29-6.57,2.9s.29,5.55,2.9,6.57l3.66-9.47h.01ZM345.4,512.64c2.62,1.01,5.56-.29,6.57-2.9,1.01-2.61-.29-5.55-2.9-6.57l-3.66,9.47h-.01ZM352.24,508.68c.43-2.77-1.47-5.36-4.24-5.79-2.77-.43-5.36,1.47-5.79,4.25l10.04,1.55h-.01ZM339.57,524.28c-.43,2.77,1.47,5.36,4.24,5.79s5.36-1.47,5.79-4.25l-10.04-1.55h.01ZM349.75,512.32c2.43-1.39,3.28-4.49,1.89-6.93s-4.49-3.28-6.93-1.89l5.04,8.82h0ZM323.38,515.69c-2.43,1.39-3.28,4.49-1.89,6.93,1.39,2.43,4.49,3.28,6.93,1.89l-5.04-8.82h0ZM344.71,503.5c-2.43,1.39-3.28,4.49-1.89,6.93,1.39,2.43,4.49,3.28,6.93,1.89l-5.04-8.82h0ZM401.87,482.53c2.43-1.39,3.28-4.49,1.89-6.93-1.39-2.43-4.49-3.28-6.93-1.89l5.04,8.82h0ZM413.83,489.17c2.61,1.01,5.55-.29,6.57-2.9,1.01-2.61-.29-5.55-2.9-6.57l-3.66,9.47h-.01ZM401.18,473.39c-2.61-1.01-5.55.29-6.57,2.9-1.01,2.62.29,5.55,2.9,6.57l3.66-9.47h.01ZM394.33,477.35c-.43,2.77,1.47,5.36,4.25,5.79,2.77.43,5.36-1.47,5.79-4.25l-10.04-1.55h0ZM407.01,461.76c.43-2.77-1.47-5.36-4.25-5.79-2.77-.43-5.36,1.47-5.79,4.24l10.04,1.55h0ZM396.83,473.72c-2.43,1.39-3.28,4.49-1.89,6.93,1.39,2.43,4.49,3.28,6.93,1.89l-5.04-8.82h0ZM423.19,470.35c2.43-1.39,3.28-4.49,1.89-6.93-1.39-2.43-4.49-3.28-6.93-1.89l5.04,8.82h0ZM329.08,479.7c-2.62,1.01-3.92,3.95-2.9,6.57,1.01,2.61,3.95,3.92,6.57,2.9l-3.66-9.47h-.01ZM349.06,482.86c2.62-1.01,3.92-3.95,2.9-6.57-1.01-2.62-3.95-3.92-6.57-2.9l3.66,9.47h.01ZM342.21,478.9c.43,2.77,3.02,4.67,5.79,4.25,2.77-.43,4.67-3.02,4.24-5.79l-10.04,1.55h.01ZM349.6,460.21c-.43-2.77-3.02-4.67-5.79-4.24-2.77.43-4.67,3.02-4.24,5.79l10.04-1.55h-.01ZM344.71,482.53c2.43,1.39,5.54.54,6.93-1.89,1.39-2.43.55-5.54-1.89-6.93l-5.04,8.82h0ZM328.42,461.53c-2.43-1.39-5.54-.55-6.93,1.89-1.39,2.43-.55,5.54,1.89,6.93l5.04-8.82h0ZM349.75,473.72c-2.43-1.39-5.54-.55-6.93,1.89-1.39,2.43-.55,5.54,1.89,6.93l5.04-8.82h0ZM396.83,512.32c2.43,1.39,5.54.54,6.93-1.89s.54-5.54-1.89-6.93l-5.04,8.82h0ZM417.5,506.34c2.61-1.01,3.92-3.95,2.9-6.57-1.01-2.61-3.95-3.92-6.57-2.9l3.66,9.47h.01ZM397.52,503.17c-2.61,1.01-3.92,3.95-2.9,6.57,1.01,2.61,3.95,3.92,6.57,2.9l-3.66-9.47h-.01ZM404.37,507.14c-.43-2.77-3.02-4.67-5.79-4.25-2.77.43-4.67,3.02-4.25,5.79l10.04-1.55h0ZM396.97,525.82c.43,2.77,3.02,4.67,5.79,4.25,2.77-.43,4.67-3.02,4.25-5.79l-10.04,1.55h0ZM401.87,503.5c-2.43-1.39-5.54-.54-6.93,1.89s-.54,5.54,1.89,6.93l5.04-8.82h0ZM418.15,524.5c2.43,1.39,5.54.54,6.93-1.89,1.39-2.43.54-5.54-1.89-6.93l-5.04,8.82h0ZM383.82,448.42l-13.68,10.83,6.3,7.96,13.68-10.83-6.3-7.96ZM376.44,459.25l-13.68-10.83-6.3,7.96,13.68,10.83,6.3-7.96ZM378.37,463.23v-24.37h-10.15v24.37h10.15ZM368.21,463.23v59.57h10.15v-59.57h-10.15ZM362.76,537.61l13.68-10.83-6.3-7.96-13.68,10.83,6.3,7.96ZM370.14,526.78l13.68,10.83,6.3-7.96-13.68-10.83-6.3,7.96ZM368.21,522.8v24.37h10.15v-24.37h-10.15ZM329.08,506.34l16.31,6.31,3.66-9.47-16.31-6.31-3.66,9.47h0ZM342.21,507.14l-2.64,17.14,10.04,1.55,2.64-17.14-10.04-1.55ZM344.71,503.5l-21.32,12.18,5.04,8.82,21.32-12.18-5.04-8.82ZM349.75,512.32l52.12-29.78-5.04-8.82-52.12,29.78,5.04,8.82ZM417.5,479.7l-16.31-6.31-3.66,9.47,16.31,6.31,3.66-9.47ZM404.37,478.9l2.64-17.14-10.04-1.55-2.64,17.14,10.04,1.55h0ZM401.87,482.53l21.32-12.18-5.04-8.82-21.32,12.18,5.04,8.82ZM332.74,489.17l16.31-6.31-3.66-9.47-16.31,6.31,3.66,9.47ZM352.24,477.35l-2.64-17.14-10.04,1.55,2.64,17.14,10.04-1.55h0ZM349.75,473.72l-21.32-12.18-5.04,8.82,21.32,12.18,5.04-8.82ZM344.71,482.53l52.12,29.78,5.04-8.82-52.12-29.78-5.04,8.82ZM413.83,496.87l-16.31,6.31,3.66,9.47,16.31-6.31-3.66-9.47h0ZM394.33,508.68l2.64,17.14,10.04-1.55-2.64-17.14-10.04,1.55ZM396.83,512.32l21.32,12.18,5.04-8.82-21.32-12.18-5.04,8.82Z"/>
</svg>