<?xml version="1.0" encoding="UTF-8"?>
<svg id="Ebene_1" data-name="Ebene 1" xmlns="http://www.w3.org/2000/svg" viewBox="0 0 874.25 847.15">
  <defs>
    <style>
      .cls-1 {
        fill: #e1e8ed;
      }

      .cls-2 {
        fill: #6b6b6b;
      }

      .cls-3 {
        fill: #ffac33;
      }
    </style>
  </defs>
  <path class="cls-3" d="M355.55,44.44s0-44.44,44.44-44.44,44.44,44.44,44.44,44.44v44.44s0,44.44-44.44,44.44-44.44-44.44-44.44-44.44c0,0,0-44.44,0-44.44ZM755.55,355.56s44.44,0,44.44,44.44-44.44,44.44-44.44,44.44h-44.44s-44.44,0-44.44-44.44,44.44-44.44,44.44-44.44h44.44ZM88.88,355.56s44.44,0,44.44,44.44-44.44,44.44-44.44,44.44h-44.44s-44.44,0-44.44-44.44,44.44-44.44,44.44-44.44h44.44ZM202.68,162.07s31.42,31.42,0,62.84c-31.42,31.42-62.84,0-62.84,0l-31.44-31.4s-31.42-31.42,0-62.87c31.44-31.42,62.87,0,62.87,0l31.42,31.42h0ZM660.17,224.91s-31.42,31.42-62.84,0,0-62.84,0-62.84l31.42-31.42s31.42-31.42,62.84,0,0,62.84,0,62.84l-31.42,31.42h0M669.35,628.73"/>
  <circle class="cls-3" cx="399.99" cy="400" r="222.22"/>
  <path class="cls-1" d="M701.44,334.99c-17.84,0-35,2.64-51.2,7.56-19.16-53.53-71.13-92-132.47-92-65.76,0-120.82,44.24-136.07,103.89-16.85-12.59-37.32-19.41-58.36-19.44-53.71,0-97.22,42.53-97.22,95,0,12.73,2.67,24.87,7.31,35.98-9.41-2.72-19.14-4.17-28.93-4.31-59.66,0-108.02,47.24-108.02,105.55s48.36,105.56,108.02,105.56h496.91c95.47,0,172.84-75.6,172.84-168.89s-77.38-168.89-172.82-168.89h.01Z"/>
  <path class="cls-2" d="M723.45,702.03c2.33-1.85,2.73-5.24.88-7.57-1.85-2.33-5.24-2.73-7.57-.88l6.69,8.45ZM702.24,705.07c-2.33,1.85-2.73,5.24-.88,7.57,1.85,2.33,5.24,2.73,7.57.88l-6.69-8.45ZM702.24,713.52c2.33,1.85,5.72,1.45,7.57-.88,1.85-2.33,1.45-5.72-.88-7.57l-6.69,8.45ZM694.41,693.58c-2.33-1.85-5.72-1.45-7.57.88-1.85,2.33-1.45,5.72.88,7.57l6.69-8.45ZM700.2,709.3c0,2.98,2.41,5.39,5.39,5.39s5.39-2.41,5.39-5.39h-10.78ZM710.98,683.43c0-2.98-2.41-5.39-5.39-5.39s-5.39,2.41-5.39,5.39h10.78ZM710.98,709.3c0-2.98-2.41-5.39-5.39-5.39s-5.39,2.41-5.39,5.39h10.78ZM700.2,772.53c0,2.98,2.41,5.39,5.39,5.39s5.39-2.41,5.39-5.39h-10.78ZM687.72,779.8c-2.33,1.85-2.73,5.24-.88,7.57,1.85,2.33,5.24,2.73,7.57.88l-6.69-8.45ZM708.93,776.75c2.33-1.85,2.73-5.24.88-7.57-1.85-2.33-5.24-2.73-7.57-.88l6.69,8.45ZM708.93,768.3c-2.33-1.85-5.72-1.45-7.57.88-1.85,2.33-1.45,5.72.88,7.57l6.69-8.45ZM716.76,788.25c2.33,1.85,5.72,1.45,7.57-.88,1.85-2.33,1.45-5.72-.88-7.57l-6.69,8.45ZM710.98,772.53c0-2.98-2.41-5.39-5.39-5.39s-5.39,2.41-5.39,5.39h10.78ZM700.2,798.39c0,2.98,2.41,5.39,5.39,5.39s5.39-2.41,5.39-5.39h-10.78ZM662.56,745c-2.78-1.07-5.9.31-6.97,3.08-1.07,2.78.31,5.9,3.08,6.97l3.89-10.05ZM675.98,761.74c2.78,1.07,5.9-.31,6.97-3.08,1.07-2.78-.31-5.9-3.08-6.97l-3.89,10.05ZM683.25,757.54c.45-2.94-1.56-5.69-4.51-6.15-2.94-.45-5.69,1.56-6.15,4.51l10.65,1.64ZM669.8,774.09c-.45,2.94,1.56,5.69,4.51,6.15,2.94.45,5.69-1.56,6.15-4.51l-10.65-1.64ZM680.6,761.4c2.58-1.48,3.48-4.77,2.01-7.35s-4.77-3.48-7.35-2.01l5.35,9.36ZM652.62,764.97c-2.58,1.48-3.48,4.77-2.01,7.35,1.48,2.58,4.77,3.48,7.35,2.01l-5.35-9.36ZM675.25,752.04c-2.58,1.48-3.48,4.77-2.01,7.35,1.48,2.58,4.77,3.48,7.35,2.01l-5.35-9.36ZM735.92,729.78c2.58-1.48,3.48-4.77,2.01-7.35-1.48-2.58-4.77-3.48-7.35-2.01l5.35,9.36ZM748.62,736.83c2.78,1.07,5.9-.31,6.97-3.08,1.07-2.78-.31-5.9-3.08-6.97l-3.89,10.05ZM735.19,720.08c-2.78-1.07-5.9.31-6.97,3.08-1.07,2.78.31,5.9,3.08,6.97l3.89-10.05ZM727.92,724.29c-.45,2.94,1.56,5.69,4.51,6.15,2.94.45,5.69-1.56,6.15-4.51l-10.65-1.64ZM741.38,707.73c.45-2.94-1.56-5.69-4.51-6.15-2.94-.45-5.69,1.56-6.15,4.51l10.65,1.64ZM730.58,720.43c-2.58,1.48-3.48,4.77-2.01,7.35,1.48,2.58,4.77,3.48,7.35,2.01l-5.35-9.36ZM758.56,716.85c2.58-1.48,3.48-4.77,2.01-7.35-1.48-2.58-4.77-3.48-7.35-2.01l5.35,9.36ZM658.67,726.78c-2.78,1.07-4.16,4.19-3.08,6.97,1.07,2.78,4.19,4.16,6.97,3.08l-3.89-10.05ZM679.87,730.13c2.78-1.07,4.16-4.19,3.08-6.97-1.07-2.78-4.19-4.16-6.97-3.08l3.89,10.05ZM672.6,725.93c.45,2.94,3.2,4.96,6.15,4.51,2.94-.45,4.96-3.21,4.51-6.15l-10.65,1.64ZM680.45,706.09c-.45-2.94-3.2-4.96-6.15-4.51-2.94.45-4.96,3.2-4.51,6.15l10.65-1.64ZM675.25,729.78c2.58,1.48,5.88.58,7.35-2.01,1.48-2.58.58-5.88-2.01-7.35l-5.35,9.36ZM657.97,707.49c-2.58-1.48-5.88-.58-7.35,2.01-1.48,2.58-.58,5.88,2.01,7.35l5.35-9.36ZM680.6,720.43c-2.58-1.48-5.88-.58-7.35,2.01-1.48,2.58-.58,5.88,2.01,7.35l5.35-9.36ZM730.58,761.4c2.58,1.48,5.88.58,7.35-2.01s.58-5.88-2.01-7.35l-5.35,9.36ZM752.51,755.05c2.78-1.07,4.16-4.19,3.08-6.97-1.07-2.78-4.19-4.16-6.97-3.08l3.89,10.05ZM731.31,751.69c-2.78,1.07-4.16,4.19-3.08,6.97,1.07,2.78,4.19,4.16,6.97,3.08l-3.89-10.05ZM738.58,755.9c-.45-2.94-3.21-4.96-6.15-4.51-2.94.45-4.96,3.21-4.51,6.15l10.65-1.64ZM730.73,775.73c.45,2.94,3.21,4.96,6.15,4.51,2.94-.45,4.96-3.21,4.51-6.15l-10.65,1.64ZM735.92,752.04c-2.58-1.48-5.88-.58-7.35,2.01s-.58,5.88,2.01,7.35l5.35-9.36ZM753.21,774.33c2.58,1.48,5.88.58,7.35-2.01,1.48-2.58.58-5.88-2.01-7.35l-5.35,9.36ZM716.76,693.58l-14.52,11.5,6.69,8.45,14.52-11.5-6.69-8.45ZM708.93,705.07l-14.52-11.5-6.69,8.45,14.52,11.5,6.69-8.45ZM710.98,709.3v-25.87h-10.78v25.87h10.78ZM700.2,709.3v63.23h10.78v-63.23h-10.78ZM694.41,788.25l14.52-11.5-6.69-8.45-14.52,11.5,6.69,8.45ZM702.24,776.75l14.52,11.5,6.69-8.45-14.52-11.5-6.69,8.45ZM700.2,772.53v25.87h10.78v-25.87h-10.78ZM658.67,755.05l17.32,6.7,3.89-10.05-17.32-6.7-3.89,10.05ZM672.6,755.9l-2.8,18.19,10.65,1.64,2.8-18.19-10.65-1.64ZM675.25,752.04l-22.63,12.93,5.35,9.36,22.63-12.93-5.35-9.36ZM680.6,761.4l55.32-31.61-5.35-9.36-55.32,31.61,5.35,9.36ZM752.51,726.78l-17.32-6.7-3.89,10.05,17.32,6.7,3.89-10.05ZM738.58,725.93l2.8-18.19-10.65-1.64-2.8,18.19,10.65,1.64ZM735.92,729.78l22.63-12.93-5.35-9.36-22.63,12.93,5.35,9.36ZM662.56,736.83l17.32-6.7-3.89-10.05-17.32,6.7,3.89,10.05ZM683.25,724.29l-2.8-18.19-10.65,1.64,2.8,18.19,10.65-1.64ZM680.6,720.43l-22.63-12.93-5.35,9.36,22.63,12.93,5.35-9.36ZM675.25,729.78l55.32,31.61,5.35-9.36-55.32-31.61-5.35,9.36ZM748.62,745l-17.32,6.7,3.89,10.05,17.32-6.7-3.89-10.05ZM727.92,757.54l2.8,18.19,10.65-1.64-2.8-18.19-10.65,1.64ZM730.58,761.4l22.63,12.93,5.35-9.36-22.63-12.93-5.35,9.36Z"/>
  <path class="cls-2" d="M359.41,743.7c2.2-1.74,2.57-4.93.83-7.13-1.74-2.2-4.93-2.57-7.13-.83l6.3,7.96ZM339.43,746.57c-2.2,1.74-2.57,4.93-.83,7.13,1.74,2.2,4.93,2.57,7.13.83l-6.3-7.96ZM339.43,754.53c2.2,1.74,5.39,1.37,7.13-.83,1.74-2.2,1.37-5.39-.83-7.13l-6.3,7.96ZM332.05,735.74c-2.2-1.74-5.39-1.37-7.13.83-1.74,2.2-1.37,5.39.83,7.13l6.3-7.96ZM337.5,750.55c0,2.8,2.27,5.08,5.08,5.08s5.08-2.27,5.08-5.08h-10.15ZM347.66,726.18c0-2.8-2.27-5.08-5.08-5.08s-5.08,2.27-5.08,5.08h10.15ZM347.66,750.55c0-2.8-2.27-5.08-5.08-5.08s-5.08,2.27-5.08,5.08h10.15ZM337.5,810.12c0,2.8,2.27,5.08,5.08,5.08s5.08-2.27,5.08-5.08h-10.15ZM325.75,816.97c-2.2,1.74-2.57,4.93-.83,7.13,1.74,2.2,4.93,2.57,7.13.83l-6.3-7.96ZM345.73,814.1c2.2-1.74,2.57-4.93.83-7.13-1.74-2.2-4.93-2.57-7.13-.83l6.3,7.96ZM345.73,806.14c-2.2-1.74-5.39-1.37-7.13.83-1.74,2.2-1.37,5.39.83,7.13l6.3-7.96ZM353.11,824.93c2.2,1.74,5.39,1.37,7.13-.83,1.74-2.2,1.37-5.39-.83-7.13l-6.3,7.96ZM347.66,810.12c0-2.8-2.27-5.08-5.08-5.08s-5.08,2.27-5.08,5.08h10.15ZM337.5,834.49c0,2.8,2.27,5.08,5.08,5.08s5.08-2.27,5.08-5.08h-10.15ZM302.03,784.18c-2.62-1.01-5.56.29-6.57,2.9-1.01,2.61.29,5.55,2.9,6.57l3.66-9.47ZM314.69,799.96c2.62,1.01,5.56-.29,6.57-2.9,1.01-2.61-.29-5.55-2.9-6.57l-3.66,9.47ZM321.54,796c.43-2.77-1.47-5.36-4.24-5.79-2.77-.43-5.36,1.47-5.79,4.25l10.04,1.55ZM308.86,811.59c-.43,2.77,1.47,5.36,4.24,5.79,2.77.43,5.36-1.47,5.79-4.25l-10.04-1.55ZM319.04,799.63c2.43-1.39,3.28-4.49,1.89-6.93s-4.49-3.28-6.93-1.89l5.04,8.82ZM292.68,803c-2.43,1.39-3.28,4.49-1.89,6.93,1.39,2.43,4.49,3.28,6.93,1.89l-5.04-8.82ZM314,790.82c-2.43,1.39-3.28,4.49-1.89,6.93,1.39,2.43,4.49,3.28,6.93,1.89l-5.04-8.82ZM371.16,769.85c2.43-1.39,3.28-4.49,1.89-6.93-1.39-2.43-4.49-3.28-6.93-1.89l5.04,8.82ZM383.12,776.49c2.61,1.01,5.55-.29,6.57-2.9,1.01-2.61-.29-5.55-2.9-6.57l-3.66,9.47ZM370.47,760.71c-2.61-1.01-5.55.29-6.57,2.9-1.01,2.62.29,5.55,2.9,6.57l3.66-9.47ZM363.62,764.67c-.43,2.77,1.47,5.36,4.25,5.79,2.77.43,5.36-1.47,5.79-4.25l-10.04-1.55ZM376.3,749.07c.43-2.77-1.47-5.36-4.25-5.79-2.77-.43-5.36,1.47-5.79,4.24l10.04,1.55ZM366.12,761.03c-2.43,1.39-3.28,4.49-1.89,6.93,1.39,2.43,4.49,3.28,6.93,1.89l-5.04-8.82ZM392.48,757.66c2.43-1.39,3.28-4.49,1.89-6.93-1.39-2.43-4.49-3.28-6.93-1.89l5.04,8.82ZM298.37,767.01c-2.62,1.01-3.92,3.95-2.9,6.57,1.01,2.61,3.95,3.92,6.57,2.9l-3.66-9.47ZM318.35,770.18c2.62-1.01,3.92-3.95,2.9-6.57-1.01-2.62-3.95-3.92-6.57-2.9l3.66,9.47ZM311.5,766.21c.43,2.77,3.02,4.67,5.79,4.25,2.77-.43,4.67-3.02,4.24-5.79l-10.04,1.55ZM318.9,747.53c-.43-2.77-3.02-4.67-5.79-4.24-2.77.43-4.67,3.02-4.24,5.79l10.04-1.55ZM314,769.85c2.43,1.39,5.54.54,6.93-1.89,1.39-2.43.55-5.54-1.89-6.93l-5.04,8.82ZM297.71,748.85c-2.43-1.39-5.54-.55-6.93,1.89-1.39,2.43-.55,5.54,1.89,6.93l5.04-8.82ZM319.04,761.03c-2.43-1.39-5.54-.55-6.93,1.89-1.39,2.43-.55,5.54,1.89,6.93l5.04-8.82ZM366.12,799.63c2.43,1.39,5.54.54,6.93-1.89s.54-5.54-1.89-6.93l-5.04,8.82ZM386.79,793.65c2.61-1.01,3.92-3.95,2.9-6.57-1.01-2.61-3.95-3.92-6.57-2.9l3.66,9.47ZM366.81,790.49c-2.61,1.01-3.92,3.95-2.9,6.57,1.01,2.61,3.95,3.92,6.57,2.9l-3.66-9.47ZM373.66,794.45c-.43-2.77-3.02-4.67-5.79-4.25-2.77.43-4.67,3.02-4.25,5.79l10.04-1.55ZM366.26,813.14c.43,2.77,3.02,4.67,5.79,4.25,2.77-.43,4.67-3.02,4.25-5.79l-10.04,1.55ZM371.16,790.82c-2.43-1.39-5.54-.54-6.93,1.89s-.54,5.54,1.89,6.93l5.04-8.82ZM387.45,811.82c2.43,1.39,5.54.54,6.93-1.89,1.39-2.43.54-5.54-1.89-6.93l-5.04,8.82ZM353.11,735.74l-13.68,10.83,6.3,7.96,13.68-10.83-6.3-7.96ZM345.73,746.57l-13.68-10.83-6.3,7.96,13.68,10.83,6.3-7.96ZM347.66,750.55v-24.37h-10.15v24.37h10.15ZM337.5,750.55v59.57h10.15v-59.57h-10.15ZM332.05,824.93l13.68-10.83-6.3-7.96-13.68,10.83,6.3,7.96ZM339.43,814.1l13.68,10.83,6.3-7.96-13.68-10.83-6.3,7.96ZM337.5,810.12v24.37h10.15v-24.37h-10.15ZM298.37,793.65l16.31,6.31,3.66-9.47-16.31-6.31-3.66,9.47ZM311.5,794.45l-2.64,17.14,10.04,1.55,2.64-17.14-10.04-1.55ZM314,790.82l-21.32,12.18,5.04,8.82,21.32-12.18-5.04-8.82ZM319.04,799.63l52.12-29.78-5.04-8.82-52.12,29.78,5.04,8.82ZM386.79,767.01l-16.31-6.31-3.66,9.47,16.31,6.31,3.66-9.47ZM373.66,766.21l2.64-17.14-10.04-1.55-2.64,17.14,10.04,1.55ZM371.16,769.85l21.32-12.18-5.04-8.82-21.32,12.18,5.04,8.82ZM302.03,776.49l16.31-6.31-3.66-9.47-16.31,6.31,3.66,9.47ZM321.54,764.67l-2.64-17.14-10.04,1.55,2.64,17.14,10.04-1.55ZM319.04,761.03l-21.32-12.18-5.04,8.82,21.32,12.18,5.04-8.82ZM314,769.85l52.12,29.78,5.04-8.82-52.12-29.78-5.04,8.82ZM383.12,784.18l-16.31,6.31,3.66,9.47,16.31-6.31-3.66-9.47ZM363.62,796l2.64,17.14,10.04-1.55-2.64-17.14-10.04,1.55ZM366.12,799.63l21.32,12.18,5.04-8.82-21.32-12.18-5.04,8.82Z"/>
  <path class="cls-2" d="M603.73,745.4c2.33-1.85,2.73-5.24.88-7.57-1.85-2.33-5.24-2.73-7.57-.88l6.69,8.45ZM582.52,748.44c-2.33,1.85-2.73,5.24-.88,7.57,1.85,2.33,5.24,2.73,7.57.88l-6.69-8.45ZM582.52,756.89c2.33,1.85,5.72,1.45,7.57-.88,1.85-2.33,1.45-5.72-.88-7.57l-6.69,8.45ZM574.69,736.95c-2.33-1.85-5.72-1.45-7.57.88-1.85,2.33-1.45,5.72.88,7.57l6.69-8.45ZM580.47,752.67c0,2.98,2.41,5.39,5.39,5.39s5.39-2.41,5.39-5.39h-10.78ZM591.25,726.8c0-2.98-2.41-5.39-5.39-5.39s-5.39,2.41-5.39,5.39h10.78ZM591.25,752.67c0-2.98-2.41-5.39-5.39-5.39s-5.39,2.41-5.39,5.39h10.78ZM580.47,815.89c0,2.98,2.41,5.39,5.39,5.39s5.39-2.41,5.39-5.39h-10.78ZM568,823.17c-2.33,1.85-2.73,5.24-.88,7.57,1.85,2.33,5.24,2.73,7.57.88l-6.69-8.45ZM589.21,820.12c2.33-1.85,2.73-5.24.88-7.57-1.85-2.33-5.24-2.73-7.57-.88l6.69,8.45ZM589.21,811.67c-2.33-1.85-5.72-1.45-7.57.88-1.85,2.33-1.45,5.72.88,7.57l6.69-8.45ZM597.04,831.61c2.33,1.85,5.72,1.45,7.57-.88,1.85-2.33,1.45-5.72-.88-7.57l-6.69,8.45ZM591.25,815.89c0-2.98-2.41-5.39-5.39-5.39s-5.39,2.41-5.39,5.39h10.78ZM580.47,841.76c0,2.98,2.41,5.39,5.39,5.39s5.39-2.41,5.39-5.39h-10.78ZM542.83,788.37c-2.78-1.07-5.9.31-6.97,3.08-1.07,2.78.31,5.9,3.08,6.97l3.89-10.05ZM556.26,805.11c2.78,1.07,5.9-.31,6.97-3.08,1.07-2.78-.31-5.9-3.08-6.97l-3.89,10.05ZM563.53,800.91c.45-2.94-1.56-5.69-4.51-6.15-2.94-.45-5.69,1.56-6.15,4.51l10.65,1.64ZM550.07,817.46c-.45,2.94,1.56,5.69,4.51,6.15,2.94.45,5.69-1.56,6.15-4.51l-10.65-1.64ZM560.88,804.77c2.58-1.48,3.48-4.77,2.01-7.35-1.48-2.58-4.77-3.48-7.35-2.01l5.35,9.36ZM532.9,808.34c-2.58,1.48-3.48,4.77-2.01,7.35,1.48,2.58,4.77,3.48,7.35,2.01l-5.35-9.36ZM555.53,795.41c-2.58,1.48-3.48,4.77-2.01,7.35,1.48,2.58,4.77,3.48,7.35,2.01l-5.35-9.36ZM616.2,773.15c2.58-1.48,3.48-4.77,2.01-7.35-1.48-2.58-4.77-3.48-7.35-2.01l5.35,9.36ZM628.9,780.2c2.78,1.07,5.9-.31,6.97-3.08,1.07-2.78-.31-5.9-3.08-6.97l-3.89,10.05ZM615.47,763.45c-2.78-1.07-5.9.31-6.97,3.08-1.07,2.78.31,5.9,3.08,6.97l3.89-10.05ZM608.2,767.65c-.45,2.94,1.56,5.69,4.51,6.15,2.94.45,5.69-1.56,6.15-4.51l-10.65-1.64ZM621.65,751.1c.45-2.94-1.56-5.69-4.51-6.15-2.94-.45-5.69,1.56-6.15,4.51l10.65,1.64ZM610.85,763.8c-2.58,1.48-3.48,4.77-2.01,7.35,1.48,2.58,4.77,3.48,7.35,2.01l-5.35-9.36ZM638.83,760.22c2.58-1.48,3.48-4.77,2.01-7.35-1.48-2.58-4.77-3.48-7.35-2.01l5.35,9.36ZM538.94,770.15c-2.78,1.07-4.16,4.19-3.08,6.97,1.07,2.78,4.19,4.16,6.97,3.08l-3.89-10.05ZM560.15,773.5c2.78-1.07,4.16-4.19,3.08-6.97-1.07-2.78-4.19-4.16-6.97-3.08l3.89,10.05ZM552.88,769.3c.45,2.94,3.2,4.96,6.15,4.51,2.94-.45,4.96-3.21,4.51-6.15l-10.65,1.64ZM560.73,749.46c-.45-2.94-3.2-4.96-6.15-4.51-2.94.45-4.96,3.2-4.51,6.15l10.65-1.64ZM555.53,773.15c2.58,1.48,5.88.58,7.35-2.01,1.48-2.58.58-5.88-2.01-7.35l-5.35,9.36ZM538.24,750.86c-2.58-1.48-5.88-.58-7.35,2.01-1.48,2.58-.58,5.88,2.01,7.35l5.35-9.36ZM560.88,763.8c-2.58-1.48-5.88-.58-7.35,2.01-1.48,2.58-.58,5.88,2.01,7.35l5.35-9.36ZM610.85,804.77c2.58,1.48,5.88.58,7.35-2.01s.58-5.88-2.01-7.35l-5.35,9.36ZM632.78,798.42c2.78-1.07,4.16-4.19,3.08-6.97-1.07-2.78-4.19-4.16-6.97-3.08l3.89,10.05ZM611.58,795.06c-2.78,1.07-4.16,4.19-3.08,6.97,1.07,2.78,4.19,4.16,6.97,3.08l-3.89-10.05ZM618.85,799.27c-.45-2.94-3.21-4.96-6.15-4.51-2.94.45-4.96,3.21-4.51,6.15l10.65-1.64ZM611,819.1c.45,2.94,3.21,4.96,6.15,4.51,2.94-.45,4.96-3.21,4.51-6.15l-10.65,1.64ZM616.2,795.41c-2.58-1.48-5.88-.58-7.35,2.01s-.58,5.88,2.01,7.35l5.35-9.36ZM633.48,817.7c2.58,1.48,5.88.58,7.35-2.01,1.48-2.58.58-5.88-2.01-7.35l-5.35,9.36ZM597.04,736.95l-14.52,11.5,6.69,8.45,14.52-11.5-6.69-8.45ZM589.21,748.44l-14.52-11.5-6.69,8.45,14.52,11.5,6.69-8.45ZM591.25,752.67v-25.87h-10.78v25.87h10.78ZM580.47,752.67v63.23h10.78v-63.23h-10.78ZM574.69,831.61l14.52-11.5-6.69-8.45-14.52,11.5,6.69,8.45ZM582.52,820.12l14.52,11.5,6.69-8.45-14.52-11.5-6.69,8.45ZM580.47,815.89v25.87h10.78v-25.87h-10.78ZM538.94,798.42l17.32,6.7,3.89-10.05-17.32-6.7-3.89,10.05ZM552.88,799.27l-2.8,18.19,10.65,1.64,2.8-18.19-10.65-1.64ZM555.53,795.41l-22.63,12.93,5.35,9.36,22.63-12.93-5.35-9.36ZM560.88,804.77l55.32-31.61-5.35-9.36-55.32,31.61,5.35,9.36ZM632.78,770.15l-17.32-6.7-3.89,10.05,17.32,6.7,3.89-10.05ZM618.85,769.3l2.8-18.19-10.65-1.64-2.8,18.19,10.65,1.64ZM616.2,773.15l22.63-12.93-5.35-9.36-22.63,12.93,5.35,9.36ZM542.83,780.2l17.32-6.7-3.89-10.05-17.32,6.7,3.89,10.05ZM563.53,767.65l-2.8-18.19-10.65,1.64,2.8,18.19,10.65-1.64ZM560.88,763.8l-22.63-12.93-5.35,9.36,22.63,12.93,5.35-9.36ZM555.53,773.15l55.32,31.61,5.35-9.36-55.32-31.61-5.35,9.36ZM628.9,788.37l-17.32,6.7,3.89,10.05,17.32-6.7-3.89-10.05ZM608.2,800.91l2.8,18.19,10.65-1.64-2.8-18.19-10.65,1.64ZM610.85,804.77l22.63,12.93,5.35-9.36-22.63-12.93-5.35,9.36Z"/>
  <path class="cls-2" d="M240.79,700.08c2.33-1.85,2.73-5.24.88-7.57-1.85-2.33-5.24-2.73-7.57-.88l6.69,8.45ZM219.58,703.12c-2.33,1.85-2.73,5.24-.88,7.57,1.85,2.33,5.24,2.73,7.57.88l-6.69-8.45ZM219.58,711.57c2.33,1.85,5.72,1.45,7.57-.88,1.85-2.33,1.45-5.72-.88-7.57l-6.69,8.45ZM211.75,691.63c-2.33-1.85-5.72-1.45-7.57.88-1.85,2.33-1.45,5.72.88,7.57l6.69-8.45ZM217.54,707.35c0,2.98,2.41,5.39,5.39,5.39s5.39-2.41,5.39-5.39h-10.78ZM228.32,681.48c0-2.98-2.41-5.39-5.39-5.39s-5.39,2.41-5.39,5.39h10.78ZM228.32,707.35c0-2.98-2.41-5.39-5.39-5.39s-5.39,2.41-5.39,5.39h10.78ZM217.54,770.57c0,2.98,2.41,5.39,5.39,5.39s5.39-2.41,5.39-5.39h-10.78ZM205.06,777.84c-2.33,1.85-2.73,5.24-.88,7.57,1.85,2.33,5.24,2.73,7.57.88l-6.69-8.45ZM226.27,774.8c2.33-1.85,2.73-5.24.88-7.57-1.85-2.33-5.24-2.73-7.57-.88l6.69,8.45ZM226.27,766.35c-2.33-1.85-5.72-1.45-7.57.88-1.85,2.33-1.45,5.72.88,7.57l6.69-8.45ZM234.1,786.29c2.33,1.85,5.72,1.45,7.57-.88,1.85-2.33,1.45-5.72-.88-7.57l-6.69,8.45ZM228.32,770.57c0-2.98-2.41-5.39-5.39-5.39s-5.39,2.41-5.39,5.39h10.78ZM217.54,796.44c0,2.98,2.41,5.39,5.39,5.39s5.39-2.41,5.39-5.39h-10.78ZM179.89,743.05c-2.78-1.07-5.9.31-6.97,3.08-1.07,2.78.31,5.9,3.08,6.97l3.89-10.05ZM193.32,759.79c2.78,1.07,5.9-.31,6.97-3.08,1.07-2.78-.31-5.9-3.08-6.97l-3.89,10.05ZM200.59,755.59c.45-2.94-1.56-5.69-4.51-6.15-2.94-.45-5.69,1.56-6.15,4.51l10.65,1.64ZM187.14,772.14c-.45,2.94,1.56,5.69,4.51,6.15,2.94.45,5.69-1.56,6.15-4.51l-10.65-1.64ZM197.94,759.45c2.58-1.48,3.48-4.77,2.01-7.35s-4.77-3.48-7.35-2.01l5.35,9.36ZM169.96,763.02c-2.58,1.48-3.48,4.77-2.01,7.35,1.48,2.58,4.77,3.48,7.35,2.01l-5.35-9.36ZM192.59,750.09c-2.58,1.48-3.48,4.77-2.01,7.35,1.48,2.58,4.77,3.48,7.35,2.01l-5.35-9.36ZM253.26,727.83c2.58-1.48,3.48-4.77,2.01-7.35-1.48-2.58-4.77-3.48-7.35-2.01l5.35,9.36ZM265.96,734.88c2.78,1.07,5.9-.31,6.97-3.08,1.07-2.78-.31-5.9-3.08-6.97l-3.89,10.05ZM252.53,718.13c-2.78-1.07-5.9.31-6.97,3.08-1.07,2.78.31,5.9,3.08,6.97l3.89-10.05ZM245.26,722.33c-.45,2.94,1.56,5.69,4.51,6.15,2.94.45,5.69-1.56,6.15-4.51l-10.65-1.64ZM258.72,705.78c.45-2.94-1.56-5.69-4.51-6.15-2.94-.45-5.69,1.56-6.15,4.51l10.65,1.64ZM247.92,718.48c-2.58,1.48-3.48,4.77-2.01,7.35,1.48,2.58,4.77,3.48,7.35,2.01l-5.35-9.36ZM275.89,714.9c2.58-1.48,3.48-4.77,2.01-7.35-1.48-2.58-4.77-3.48-7.35-2.01l5.35,9.36ZM176.01,724.82c-2.78,1.07-4.16,4.19-3.08,6.97,1.07,2.78,4.19,4.16,6.97,3.08l-3.89-10.05ZM197.21,728.18c2.78-1.07,4.16-4.19,3.08-6.97-1.07-2.78-4.19-4.16-6.97-3.08l3.89,10.05ZM189.94,723.97c.45,2.94,3.2,4.96,6.15,4.51,2.94-.45,4.96-3.21,4.51-6.15l-10.65,1.64ZM197.79,704.14c-.45-2.94-3.2-4.96-6.15-4.51-2.94.45-4.96,3.2-4.51,6.15l10.65-1.64ZM192.59,727.83c2.58,1.48,5.88.58,7.35-2.01,1.48-2.58.58-5.88-2.01-7.35l-5.35,9.36ZM175.31,705.54c-2.58-1.48-5.88-.58-7.35,2.01-1.48,2.58-.58,5.88,2.01,7.35l5.35-9.36ZM197.94,718.48c-2.58-1.48-5.88-.58-7.35,2.01-1.48,2.58-.58,5.88,2.01,7.35l5.35-9.36ZM247.92,759.45c2.58,1.48,5.88.58,7.35-2.01,1.48-2.58.58-5.88-2.01-7.35l-5.35,9.36ZM269.85,753.1c2.78-1.07,4.16-4.19,3.08-6.97-1.07-2.78-4.19-4.16-6.97-3.08l3.89,10.05ZM248.65,749.74c-2.78,1.07-4.16,4.19-3.08,6.97,1.07,2.78,4.19,4.16,6.97,3.08l-3.89-10.05ZM255.92,753.95c-.45-2.94-3.21-4.96-6.15-4.51-2.94.45-4.96,3.21-4.51,6.15l10.65-1.64ZM248.07,773.78c.45,2.94,3.21,4.96,6.15,4.51,2.94-.45,4.96-3.21,4.51-6.15l-10.65,1.64ZM253.26,750.09c-2.58-1.48-5.88-.58-7.35,2.01s-.58,5.88,2.01,7.35l5.35-9.36ZM270.55,772.38c2.58,1.48,5.88.58,7.35-2.01,1.48-2.58.58-5.88-2.01-7.35l-5.35,9.36ZM234.1,691.63l-14.52,11.5,6.69,8.45,14.52-11.5-6.69-8.45ZM226.27,703.12l-14.52-11.5-6.69,8.45,14.52,11.5,6.69-8.45ZM228.32,707.35v-25.87h-10.78v25.87h10.78ZM217.54,707.35v63.23h10.78v-63.23h-10.78ZM211.75,786.29l14.52-11.5-6.69-8.45-14.52,11.5,6.69,8.45ZM219.58,774.8l14.52,11.5,6.69-8.45-14.52-11.5-6.69,8.45ZM217.54,770.57v25.87h10.78v-25.87h-10.78ZM176.01,753.1l17.32,6.7,3.89-10.05-17.32-6.7-3.89,10.05ZM189.94,753.95l-2.8,18.19,10.65,1.64,2.8-18.19-10.65-1.64ZM192.59,750.09l-22.63,12.93,5.35,9.36,22.63-12.93-5.35-9.36ZM197.94,759.45l55.32-31.61-5.35-9.36-55.32,31.61,5.35,9.36ZM269.85,724.82l-17.32-6.7-3.89,10.05,17.32,6.7,3.89-10.05ZM255.92,723.97l2.8-18.19-10.65-1.64-2.8,18.19,10.65,1.64ZM253.26,727.83l22.63-12.93-5.35-9.36-22.63,12.93,5.35,9.36ZM179.89,734.88l17.32-6.7-3.89-10.05-17.32,6.7,3.89,10.05ZM200.59,722.33l-2.8-18.19-10.65,1.64,2.8,18.19,10.65-1.64ZM197.94,718.48l-22.63-12.93-5.35,9.36,22.63,12.93,5.35-9.36ZM192.59,727.83l55.32,31.61,5.35-9.36-55.32-31.61-5.35,9.36ZM265.96,743.05l-17.32,6.7,3.89,10.05,17.32-6.7-3.89-10.05ZM245.26,755.59l2.8,18.19,10.65-1.64-2.8-18.19-10.65,1.64ZM247.92,759.45l22.63,12.93,5.35-9.36-22.63-12.93-5.35,9.36Z"/>
  <path class="cls-2" d="M480.57,702.58c2.2-1.74,2.57-4.93.83-7.13-1.74-2.2-4.93-2.57-7.13-.83l6.3,7.96ZM460.59,705.45c-2.2,1.74-2.57,4.93-.83,7.13,1.74,2.2,4.93,2.57,7.13.83l-6.3-7.96ZM460.59,713.41c2.2,1.74,5.39,1.37,7.13-.83,1.74-2.2,1.37-5.39-.83-7.13l-6.3,7.96ZM453.21,694.62c-2.2-1.74-5.39-1.37-7.13.83-1.74,2.2-1.37,5.39.83,7.13l6.3-7.96ZM458.66,709.43c0,2.8,2.27,5.08,5.08,5.08s5.08-2.27,5.08-5.08h-10.15ZM468.82,685.06c0-2.8-2.27-5.08-5.08-5.08s-5.08,2.27-5.08,5.08h10.15ZM468.82,709.43c0-2.8-2.27-5.08-5.08-5.08s-5.08,2.27-5.08,5.08h10.15ZM458.66,769c0,2.8,2.27,5.08,5.08,5.08s5.08-2.27,5.08-5.08h-10.15ZM446.91,775.85c-2.2,1.74-2.57,4.93-.83,7.13,1.74,2.2,4.93,2.57,7.13.83l-6.3-7.96ZM466.89,772.98c2.2-1.74,2.57-4.93.83-7.13-1.74-2.2-4.93-2.57-7.13-.83l6.3,7.96ZM466.89,765.02c-2.2-1.74-5.39-1.37-7.13.83-1.74,2.2-1.37,5.39.83,7.13l6.3-7.96ZM474.27,783.81c2.2,1.74,5.39,1.37,7.13-.83,1.74-2.2,1.37-5.39-.83-7.13l-6.3,7.96ZM468.82,769c0-2.8-2.27-5.08-5.08-5.08s-5.08,2.27-5.08,5.08h10.15ZM458.66,793.37c0,2.8,2.27,5.08,5.08,5.08s5.08-2.27,5.08-5.08h-10.15ZM423.2,743.06c-2.62-1.01-5.56.29-6.57,2.9-1.01,2.61.29,5.55,2.9,6.57l3.66-9.47ZM435.85,758.84c2.62,1.01,5.56-.29,6.57-2.9,1.01-2.61-.29-5.55-2.9-6.57l-3.66,9.47ZM442.7,754.88c.43-2.77-1.47-5.36-4.24-5.79-2.77-.43-5.36,1.47-5.79,4.25l10.04,1.55ZM430.02,770.47c-.43,2.77,1.47,5.36,4.24,5.79,2.77.43,5.36-1.47,5.79-4.25l-10.04-1.55ZM440.2,758.51c2.43-1.39,3.28-4.49,1.89-6.93s-4.49-3.28-6.93-1.89l5.04,8.82ZM413.84,761.88c-2.43,1.39-3.28,4.49-1.89,6.93,1.39,2.43,4.49,3.28,6.93,1.89l-5.04-8.82ZM435.16,749.7c-2.43,1.39-3.28,4.49-1.89,6.93,1.39,2.43,4.49,3.28,6.93,1.89l-5.04-8.82ZM492.32,728.73c2.43-1.39,3.28-4.49,1.89-6.93-1.39-2.43-4.49-3.28-6.93-1.89l5.04,8.82ZM504.29,735.36c2.61,1.01,5.55-.29,6.57-2.9,1.01-2.61-.29-5.55-2.9-6.57l-3.66,9.47ZM491.63,719.58c-2.61-1.01-5.55.29-6.57,2.9-1.01,2.62.29,5.55,2.9,6.57l3.66-9.47ZM484.79,723.55c-.43,2.77,1.47,5.36,4.25,5.79,2.77.43,5.36-1.47,5.79-4.25l-10.04-1.55ZM497.46,707.95c.43-2.77-1.47-5.36-4.25-5.79-2.77-.43-5.36,1.47-5.79,4.24l10.04,1.55ZM487.28,719.91c-2.43,1.39-3.28,4.49-1.89,6.93,1.39,2.43,4.49,3.28,6.93,1.89l-5.04-8.82ZM513.65,716.54c2.43-1.39,3.28-4.49,1.89-6.93-1.39-2.43-4.49-3.28-6.93-1.89l5.04,8.82ZM419.53,725.89c-2.62,1.01-3.92,3.95-2.9,6.57,1.01,2.61,3.95,3.92,6.57,2.9l-3.66-9.47ZM439.51,729.05c2.62-1.01,3.92-3.95,2.9-6.57-1.01-2.62-3.95-3.92-6.57-2.9l3.66,9.47ZM432.66,725.09c.43,2.77,3.02,4.67,5.79,4.25,2.77-.43,4.67-3.02,4.24-5.79l-10.04,1.55ZM440.06,706.41c-.43-2.77-3.02-4.67-5.79-4.24-2.77.43-4.67,3.02-4.24,5.79l10.04-1.55ZM435.16,728.73c2.43,1.39,5.54.54,6.93-1.89,1.39-2.43.55-5.54-1.89-6.93l-5.04,8.82ZM418.88,707.73c-2.43-1.39-5.54-.55-6.93,1.89-1.39,2.43-.55,5.54,1.89,6.93l5.04-8.82ZM440.2,719.91c-2.43-1.39-5.54-.55-6.93,1.89-1.39,2.43-.55,5.54,1.89,6.93l5.04-8.82ZM487.28,758.51c2.43,1.39,5.54.54,6.93-1.89s.54-5.54-1.89-6.93l-5.04,8.82ZM507.95,752.53c2.61-1.01,3.92-3.95,2.9-6.57-1.01-2.61-3.95-3.92-6.57-2.9l3.66,9.47ZM487.97,749.37c-2.61,1.01-3.92,3.95-2.9,6.57,1.01,2.61,3.95,3.92,6.57,2.9l-3.66-9.47ZM494.82,753.33c-.43-2.77-3.02-4.67-5.79-4.25-2.77.43-4.67,3.02-4.25,5.79l10.04-1.55ZM487.43,772.02c.43,2.77,3.02,4.67,5.79,4.25,2.77-.43,4.67-3.02,4.25-5.79l-10.04,1.55ZM492.32,749.7c-2.43-1.39-5.54-.54-6.93,1.89s-.54,5.54,1.89,6.93l5.04-8.82ZM508.61,770.7c2.43,1.39,5.54.54,6.93-1.89,1.39-2.43.54-5.54-1.89-6.93l-5.04,8.82ZM474.27,694.62l-13.68,10.83,6.3,7.96,13.68-10.83-6.3-7.96ZM466.89,705.45l-13.68-10.83-6.3,7.96,13.68,10.83,6.3-7.96ZM468.82,709.43v-24.37h-10.15v24.37h10.15ZM458.66,709.43v59.57h10.15v-59.57h-10.15ZM453.21,783.81l13.68-10.83-6.3-7.96-13.68,10.83,6.3,7.96ZM460.59,772.98l13.68,10.83,6.3-7.96-13.68-10.83-6.3,7.96ZM458.66,769v24.37h10.15v-24.37h-10.15ZM419.53,752.53l16.31,6.31,3.66-9.47-16.31-6.31-3.66,9.47ZM432.66,753.33l-2.64,17.14,10.04,1.55,2.64-17.14-10.04-1.55ZM435.16,749.7l-21.32,12.18,5.04,8.82,21.32-12.18-5.04-8.82ZM440.2,758.51l52.12-29.78-5.04-8.82-52.12,29.78,5.04,8.82ZM507.95,725.89l-16.31-6.31-3.66,9.47,16.31,6.31,3.66-9.47ZM494.82,725.09l2.64-17.14-10.04-1.55-2.64,17.14,10.04,1.55ZM492.32,728.73l21.32-12.18-5.04-8.82-21.32,12.18,5.04,8.82ZM423.2,735.36l16.31-6.31-3.66-9.47-16.31,6.31,3.66,9.47ZM442.7,723.55l-2.64-17.14-10.04,1.55,2.64,17.14,10.04-1.55ZM440.2,719.91l-21.32-12.18-5.04,8.82,21.32,12.18,5.04-8.82ZM435.16,728.73l52.12,29.78,5.04-8.82-52.12-29.78-5.04,8.82ZM504.29,743.06l-16.31,6.31,3.66,9.47,16.31-6.31-3.66-9.47ZM484.79,754.88l2.64,17.14,10.04-1.55-2.64-17.14-10.04,1.55ZM487.28,758.51l21.32,12.18,5.04-8.82-21.32-12.18-5.04,8.82Z"/>
</svg>