<?xml version="1.0" encoding="UTF-8"?>
<svg id="Ebene_1" data-name="Ebene 1" xmlns="http://www.w3.org/2000/svg" viewBox="0 0 872.77 850.42">
  <defs>
    <style>
      .cls-1 {
        fill: #e1e8ed;
      }

      .cls-2 {
        fill: #6b6b6b;
      }
    </style>
  </defs>
  <path class="cls-2" d="M640.8,464.31c-5.33-9-20.33-23-57.67-16.33-20.67,3.67-41.67,5.33-62.67,4.33-77.67-3.33-148-39-197-94-43.33-48.33-70-111.33-70.33-179.33,0-38,7.33-74.67,22.33-109.33,14.67-33.67,4.33-51.33-3-58.67-7.67-7.67-25.67-18.33-61-3.67C75.13,64.65-9.2,201.31.8,347.65c10,137.67,106.67,255.33,234.67,299.67,30.67,10.67,63,17,96.33,18.33,5.33.33,10.67.67,16,.67,111.67,0,216.33-52.67,282.33-142.33,22.33-31,16.33-50.67,10.67-59.67h0Z"/>
  <path class="cls-1" d="M699.96,335.86c-17.84,0-35,2.64-51.2,7.56-19.16-53.53-71.13-92-132.47-92-65.76,0-120.82,44.24-136.07,103.89-16.85-12.59-37.32-19.41-58.36-19.44-53.71,0-97.22,42.53-97.22,95,0,12.73,2.67,24.87,7.31,35.98-9.41-2.72-19.14-4.17-28.93-4.31-59.66,0-108.02,47.24-108.02,105.55s48.36,105.56,108.02,105.56h496.91c95.47,0,172.84-75.6,172.84-168.89s-77.38-168.89-172.82-168.89h.01Z"/>
  <path class="cls-2" d="M711.19,705.3c2.33-1.85,2.73-5.24.88-7.57s-5.24-2.73-7.57-.88l6.69,8.45ZM689.98,708.34c-2.33,1.85-2.73,5.24-.88,7.57s5.24,2.73,7.57.88l-6.69-8.45ZM689.98,716.79c2.33,1.85,5.72,1.45,7.57-.88,1.85-2.33,1.45-5.72-.88-7.57l-6.69,8.45ZM682.15,696.85c-2.33-1.85-5.72-1.45-7.57.88-1.85,2.33-1.45,5.72.88,7.57l6.69-8.45ZM687.94,712.57c0,2.98,2.41,5.39,5.39,5.39s5.39-2.41,5.39-5.39h-10.78ZM698.72,686.7c0-2.98-2.41-5.39-5.39-5.39s-5.39,2.41-5.39,5.39h10.78ZM698.72,712.57c0-2.98-2.41-5.39-5.39-5.39s-5.39,2.41-5.39,5.39h10.78ZM687.94,775.8c0,2.98,2.41,5.39,5.39,5.39s5.39-2.41,5.39-5.39h-10.78ZM675.46,783.07c-2.33,1.85-2.73,5.24-.88,7.57s5.24,2.73,7.57.88l-6.69-8.45ZM696.67,780.02c2.33-1.85,2.73-5.24.88-7.57s-5.24-2.73-7.57-.88l6.69,8.45ZM696.67,771.57c-2.33-1.85-5.72-1.45-7.57.88-1.85,2.33-1.45,5.72.88,7.57l6.69-8.45ZM704.5,791.52c2.33,1.85,5.72,1.45,7.57-.88,1.85-2.33,1.45-5.72-.88-7.57l-6.69,8.45ZM698.72,775.8c0-2.98-2.41-5.39-5.39-5.39s-5.39,2.41-5.39,5.39h10.78ZM687.94,801.66c0,2.98,2.41,5.39,5.39,5.39s5.39-2.41,5.39-5.39h-10.78ZM650.3,748.27c-2.78-1.07-5.9.31-6.97,3.08-1.07,2.78.31,5.9,3.08,6.97l3.89-10.05h0ZM663.72,765.01c2.78,1.07,5.9-.31,6.97-3.08,1.07-2.78-.31-5.9-3.08-6.97l-3.89,10.05h0ZM670.99,760.81c.45-2.94-1.56-5.69-4.51-6.15-2.94-.45-5.69,1.56-6.15,4.51l10.65,1.64h.01ZM657.54,777.36c-.45,2.94,1.56,5.69,4.51,6.15,2.94.45,5.69-1.56,6.15-4.51l-10.65-1.64h-.01ZM668.34,764.67c2.58-1.48,3.48-4.77,2.01-7.35s-4.77-3.48-7.35-2.01l5.35,9.36h-.01ZM640.36,768.24c-2.58,1.48-3.48,4.77-2.01,7.35,1.48,2.58,4.77,3.48,7.35,2.01l-5.35-9.36h.01ZM662.99,755.31c-2.58,1.48-3.48,4.77-2.01,7.35,1.48,2.58,4.77,3.48,7.35,2.01l-5.35-9.36h.01ZM723.66,733.05c2.58-1.48,3.48-4.77,2.01-7.35-1.48-2.58-4.77-3.48-7.35-2.01l5.35,9.36h-.01ZM736.36,740.1c2.78,1.07,5.9-.31,6.97-3.08,1.07-2.78-.31-5.9-3.08-6.97l-3.89,10.05h0ZM722.93,723.35c-2.78-1.07-5.9.31-6.97,3.08-1.07,2.78.31,5.9,3.08,6.97l3.89-10.05h0ZM715.66,727.56c-.45,2.94,1.56,5.69,4.51,6.15,2.94.45,5.69-1.56,6.15-4.51l-10.65-1.64h-.01ZM729.12,711c.45-2.94-1.56-5.69-4.51-6.15-2.94-.45-5.69,1.56-6.15,4.51l10.65,1.64h.01ZM718.32,723.7c-2.58,1.48-3.48,4.77-2.01,7.35,1.48,2.58,4.77,3.48,7.35,2.01l-5.35-9.36h.01ZM746.3,720.12c2.58-1.48,3.48-4.77,2.01-7.35-1.48-2.58-4.77-3.48-7.35-2.01l5.35,9.36h-.01ZM646.41,730.05c-2.78,1.07-4.16,4.19-3.08,6.97,1.07,2.78,4.19,4.16,6.97,3.08l-3.89-10.05h0ZM667.61,733.4c2.78-1.07,4.16-4.19,3.08-6.97-1.07-2.78-4.19-4.16-6.97-3.08l3.89,10.05h0ZM660.34,729.2c.45,2.94,3.2,4.96,6.15,4.51,2.94-.45,4.96-3.21,4.51-6.15l-10.65,1.64h-.01ZM668.19,709.36c-.45-2.94-3.2-4.96-6.15-4.51-2.94.45-4.96,3.2-4.51,6.15l10.65-1.64h.01ZM662.99,733.05c2.58,1.48,5.88.58,7.35-2.01,1.48-2.58.58-5.88-2.01-7.35l-5.35,9.36h.01ZM645.71,710.76c-2.58-1.48-5.88-.58-7.35,2.01-1.48,2.58-.58,5.88,2.01,7.35l5.35-9.36h-.01ZM668.34,723.7c-2.58-1.48-5.88-.58-7.35,2.01-1.48,2.58-.58,5.88,2.01,7.35l5.35-9.36h-.01ZM718.32,764.67c2.58,1.48,5.88.58,7.35-2.01s.58-5.88-2.01-7.35l-5.35,9.36h.01ZM740.25,758.32c2.78-1.07,4.16-4.19,3.08-6.97-1.07-2.78-4.19-4.16-6.97-3.08l3.89,10.05h0ZM719.05,754.96c-2.78,1.07-4.16,4.19-3.08,6.97,1.07,2.78,4.19,4.16,6.97,3.08l-3.89-10.05h0ZM726.32,759.17c-.45-2.94-3.21-4.96-6.15-4.51s-4.96,3.21-4.51,6.15l10.65-1.64h.01ZM718.47,779c.45,2.94,3.21,4.96,6.15,4.51s4.96-3.21,4.51-6.15l-10.65,1.64h-.01ZM723.66,755.31c-2.58-1.48-5.88-.58-7.35,2.01s-.58,5.88,2.01,7.35l5.35-9.36h-.01ZM740.95,777.6c2.58,1.48,5.88.58,7.35-2.01,1.48-2.58.58-5.88-2.01-7.35l-5.35,9.36h.01ZM704.5,696.85l-14.52,11.5,6.69,8.45,14.52-11.5-6.69-8.45ZM696.67,708.34l-14.52-11.5-6.69,8.45,14.52,11.5,6.69-8.45ZM698.72,712.57v-25.87h-10.78v25.87h10.78ZM687.94,712.57v63.23h10.78v-63.23h-10.78ZM682.15,791.52l14.52-11.5-6.69-8.45-14.52,11.5,6.69,8.45ZM689.98,780.02l14.52,11.5,6.69-8.45-14.52-11.5-6.69,8.45ZM687.94,775.8v25.87h10.78v-25.87h-10.78ZM646.41,758.32l17.32,6.7,3.89-10.05-17.32-6.7-3.89,10.05ZM660.34,759.17l-2.8,18.19,10.65,1.64,2.8-18.19-10.65-1.64ZM662.99,755.31l-22.63,12.93,5.35,9.36,22.63-12.93-5.35-9.36ZM668.34,764.67l55.32-31.61-5.35-9.36-55.32,31.61,5.35,9.36ZM740.25,730.05l-17.32-6.7-3.89,10.05,17.32,6.7,3.89-10.05ZM726.32,729.2l2.8-18.19-10.65-1.64-2.8,18.19,10.65,1.64ZM723.66,733.05l22.63-12.93-5.35-9.36-22.63,12.93,5.35,9.36ZM650.3,740.1l17.32-6.7-3.89-10.05-17.32,6.7,3.89,10.05ZM670.99,727.56l-2.8-18.19-10.65,1.64,2.8,18.19,10.65-1.64ZM668.34,723.7l-22.63-12.93-5.35,9.36,22.63,12.93,5.35-9.36ZM662.99,733.05l55.32,31.61,5.35-9.36-55.32-31.61-5.35,9.36ZM736.36,748.27l-17.32,6.7,3.89,10.05,17.32-6.7-3.89-10.05ZM715.66,760.81l2.8,18.19,10.65-1.64-2.8-18.19-10.65,1.64ZM718.32,764.67l22.63,12.93,5.35-9.36-22.63-12.93-5.35,9.36Z"/>
  <path class="cls-2" d="M347.15,746.97c2.2-1.74,2.57-4.93.83-7.13-1.74-2.2-4.93-2.57-7.13-.83l6.3,7.96h0ZM327.17,749.84c-2.2,1.74-2.57,4.93-.83,7.13,1.74,2.2,4.93,2.57,7.13.83l-6.3-7.96h0ZM327.17,757.8c2.2,1.74,5.39,1.37,7.13-.83s1.37-5.39-.83-7.13l-6.3,7.96h0ZM319.79,739.01c-2.2-1.74-5.39-1.37-7.13.83s-1.37,5.39.83,7.13l6.3-7.96h0ZM325.24,753.82c0,2.8,2.27,5.08,5.08,5.08s5.08-2.27,5.08-5.08h-10.16ZM335.4,729.45c0-2.8-2.27-5.08-5.08-5.08s-5.08,2.27-5.08,5.08h10.16ZM335.4,753.82c0-2.8-2.27-5.08-5.08-5.08s-5.08,2.27-5.08,5.08h10.16ZM325.24,813.39c0,2.8,2.27,5.08,5.08,5.08s5.08-2.27,5.08-5.08h-10.16ZM313.49,820.24c-2.2,1.74-2.57,4.93-.83,7.13,1.74,2.2,4.93,2.57,7.13.83l-6.3-7.96h0ZM333.47,817.37c2.2-1.74,2.57-4.93.83-7.13-1.74-2.2-4.93-2.57-7.13-.83l6.3,7.96h0ZM333.47,809.41c-2.2-1.74-5.39-1.37-7.13.83s-1.37,5.39.83,7.13l6.3-7.96h0ZM340.85,828.2c2.2,1.74,5.39,1.37,7.13-.83s1.37-5.39-.83-7.13l-6.3,7.96h0ZM335.4,813.39c0-2.8-2.27-5.08-5.08-5.08s-5.08,2.27-5.08,5.08h10.16ZM325.24,837.76c0,2.8,2.27,5.08,5.08,5.08s5.08-2.27,5.08-5.08h-10.16ZM289.77,787.45c-2.62-1.01-5.56.29-6.57,2.9-1.01,2.61.29,5.55,2.9,6.57l3.66-9.47h.01ZM302.43,803.23c2.62,1.01,5.56-.29,6.57-2.9,1.01-2.61-.29-5.55-2.9-6.57l-3.66,9.47h-.01ZM309.28,799.27c.43-2.77-1.47-5.36-4.24-5.79s-5.36,1.47-5.79,4.25l10.04,1.55h-.01ZM296.6,814.86c-.43,2.77,1.47,5.36,4.24,5.79s5.36-1.47,5.79-4.25l-10.04-1.55h.01ZM306.78,802.9c2.43-1.39,3.28-4.49,1.89-6.93s-4.49-3.28-6.93-1.89l5.04,8.82h0ZM280.42,806.27c-2.43,1.39-3.28,4.49-1.89,6.93,1.39,2.43,4.49,3.28,6.93,1.89l-5.04-8.82h0ZM301.74,794.09c-2.43,1.39-3.28,4.49-1.89,6.93,1.39,2.43,4.49,3.28,6.93,1.89l-5.04-8.82h0ZM358.9,773.12c2.43-1.39,3.28-4.49,1.89-6.93-1.39-2.43-4.49-3.28-6.93-1.89l5.04,8.82h0ZM370.86,779.76c2.61,1.01,5.55-.29,6.57-2.9,1.01-2.61-.29-5.55-2.9-6.57l-3.66,9.47h-.01ZM358.21,763.98c-2.61-1.01-5.55.29-6.57,2.9-1.01,2.62.29,5.55,2.9,6.57l3.66-9.47h.01ZM351.36,767.94c-.43,2.77,1.47,5.36,4.25,5.79,2.77.43,5.36-1.47,5.79-4.25l-10.04-1.55h0ZM364.04,752.34c.43-2.77-1.47-5.36-4.25-5.79-2.77-.43-5.36,1.47-5.79,4.24l10.04,1.55ZM353.86,764.3c-2.43,1.39-3.28,4.49-1.89,6.93,1.39,2.43,4.49,3.28,6.93,1.89l-5.04-8.82h0ZM380.22,760.93c2.43-1.39,3.28-4.49,1.89-6.93-1.39-2.43-4.49-3.28-6.93-1.89l5.04,8.82h0ZM286.11,770.28c-2.62,1.01-3.92,3.95-2.9,6.57,1.01,2.61,3.95,3.92,6.57,2.9l-3.66-9.47h-.01ZM306.09,773.45c2.62-1.01,3.92-3.95,2.9-6.57-1.01-2.62-3.95-3.92-6.57-2.9l3.66,9.47h.01ZM299.24,769.48c.43,2.77,3.02,4.67,5.79,4.25,2.77-.43,4.67-3.02,4.24-5.79l-10.04,1.55h.01ZM306.64,750.8c-.43-2.77-3.02-4.67-5.79-4.24-2.77.43-4.67,3.02-4.24,5.79l10.04-1.55h-.01ZM301.74,773.12c2.43,1.39,5.54.54,6.93-1.89,1.39-2.43.55-5.54-1.89-6.93l-5.04,8.82h0ZM285.45,752.12c-2.43-1.39-5.54-.55-6.93,1.89-1.39,2.43-.55,5.54,1.89,6.93l5.04-8.82h0ZM306.78,764.3c-2.43-1.39-5.54-.55-6.93,1.89-1.39,2.43-.55,5.54,1.89,6.93l5.04-8.82h0ZM353.86,802.9c2.43,1.39,5.54.54,6.93-1.89s.54-5.54-1.89-6.93l-5.04,8.82h0ZM374.53,796.92c2.61-1.01,3.92-3.95,2.9-6.57-1.01-2.61-3.95-3.92-6.57-2.9l3.66,9.47h.01ZM354.55,793.76c-2.61,1.01-3.92,3.95-2.9,6.57,1.01,2.61,3.95,3.92,6.57,2.9l-3.66-9.47h-.01ZM361.4,797.72c-.43-2.77-3.02-4.67-5.79-4.25-2.77.43-4.67,3.02-4.25,5.79l10.04-1.55h0ZM354,816.41c.43,2.77,3.02,4.67,5.79,4.25,2.77-.43,4.67-3.02,4.25-5.79l-10.04,1.55h0ZM358.9,794.09c-2.43-1.39-5.54-.54-6.93,1.89s-.54,5.54,1.89,6.93l5.04-8.82h0ZM375.19,815.09c2.43,1.39,5.54.54,6.93-1.89,1.39-2.43.54-5.54-1.89-6.93l-5.04,8.82h0ZM340.85,739.01l-13.68,10.83,6.3,7.96,13.68-10.83-6.3-7.96ZM333.47,749.84l-13.68-10.83-6.3,7.96,13.68,10.83,6.3-7.96ZM335.4,753.82v-24.37h-10.15v24.37h10.15ZM325.24,753.82v59.57h10.15v-59.57h-10.15ZM319.79,828.2l13.68-10.83-6.3-7.96-13.68,10.83,6.3,7.96ZM327.17,817.37l13.68,10.83,6.3-7.96-13.68-10.83-6.3,7.96ZM325.24,813.39v24.37h10.15v-24.37h-10.15ZM286.11,796.92l16.31,6.31,3.66-9.47-16.31-6.31-3.66,9.47ZM299.24,797.72l-2.64,17.14,10.04,1.55,2.64-17.14-10.04-1.55ZM301.74,794.09l-21.32,12.18,5.04,8.82,21.32-12.18-5.04-8.82ZM306.78,802.9l52.12-29.78-5.04-8.82-52.12,29.78,5.04,8.82ZM374.53,770.28l-16.31-6.31-3.66,9.47,16.31,6.31,3.66-9.47ZM361.4,769.48l2.64-17.14-10.04-1.55-2.64,17.14,10.04,1.55ZM358.9,773.12l21.32-12.18-5.04-8.82-21.32,12.18,5.04,8.82ZM289.77,779.76l16.31-6.31-3.66-9.47-16.31,6.31,3.66,9.47ZM309.28,767.94l-2.64-17.14-10.04,1.55,2.64,17.14,10.04-1.55ZM306.78,764.3l-21.32-12.18-5.04,8.82,21.32,12.18,5.04-8.82ZM301.74,773.12l52.12,29.78,5.04-8.82-52.12-29.78-5.04,8.82ZM370.86,787.45l-16.31,6.31,3.66,9.47,16.31-6.31-3.66-9.47ZM351.36,799.27l2.64,17.14,10.04-1.55-2.64-17.14-10.04,1.55ZM353.86,802.9l21.32,12.18,5.04-8.82-21.32-12.18-5.04,8.82Z"/>
  <path class="cls-2" d="M591.47,748.67c2.33-1.85,2.73-5.24.88-7.57s-5.24-2.73-7.57-.88l6.69,8.45ZM570.26,751.71c-2.33,1.85-2.73,5.24-.88,7.57s5.24,2.73,7.57.88l-6.69-8.45ZM570.26,760.16c2.33,1.85,5.72,1.45,7.57-.88,1.85-2.33,1.45-5.72-.88-7.57l-6.69,8.45ZM562.43,740.22c-2.33-1.85-5.72-1.45-7.57.88-1.85,2.33-1.45,5.72.88,7.57l6.69-8.45ZM568.21,755.94c0,2.98,2.41,5.39,5.39,5.39s5.39-2.41,5.39-5.39h-10.78ZM578.99,730.07c0-2.98-2.41-5.39-5.39-5.39s-5.39,2.41-5.39,5.39h10.78ZM578.99,755.94c0-2.98-2.41-5.39-5.39-5.39s-5.39,2.41-5.39,5.39h10.78ZM568.21,819.16c0,2.98,2.41,5.39,5.39,5.39s5.39-2.41,5.39-5.39h-10.78ZM555.74,826.44c-2.33,1.85-2.73,5.24-.88,7.57s5.24,2.73,7.57.88l-6.69-8.45ZM576.95,823.39c2.33-1.85,2.73-5.24.88-7.57s-5.24-2.73-7.57-.88l6.69,8.45ZM576.95,814.94c-2.33-1.85-5.72-1.45-7.57.88-1.85,2.33-1.45,5.72.88,7.57l6.69-8.45ZM584.78,834.88c2.33,1.85,5.72,1.45,7.57-.88,1.85-2.33,1.45-5.72-.88-7.57l-6.69,8.45ZM578.99,819.16c0-2.98-2.41-5.39-5.39-5.39s-5.39,2.41-5.39,5.39h10.78ZM568.21,845.03c0,2.98,2.41,5.39,5.39,5.39s5.39-2.41,5.39-5.39h-10.78ZM530.57,791.64c-2.78-1.07-5.9.31-6.97,3.08-1.07,2.78.31,5.9,3.08,6.97l3.89-10.05h0ZM544,808.38c2.78,1.07,5.9-.31,6.97-3.08,1.07-2.78-.31-5.9-3.08-6.97l-3.89,10.05h0ZM551.27,804.18c.45-2.94-1.56-5.69-4.51-6.15-2.94-.45-5.69,1.56-6.15,4.51l10.65,1.64h.01ZM537.81,820.73c-.45,2.94,1.56,5.69,4.51,6.15,2.94.45,5.69-1.56,6.15-4.51l-10.65-1.64h-.01ZM548.62,808.04c2.58-1.48,3.48-4.77,2.01-7.35-1.48-2.58-4.77-3.48-7.35-2.01l5.35,9.36h-.01ZM520.64,811.61c-2.58,1.48-3.48,4.77-2.01,7.35,1.48,2.58,4.77,3.48,7.35,2.01l-5.35-9.36h.01ZM543.27,798.68c-2.58,1.48-3.48,4.77-2.01,7.35,1.48,2.58,4.77,3.48,7.35,2.01l-5.35-9.36h.01ZM603.94,776.42c2.58-1.48,3.48-4.77,2.01-7.35-1.48-2.58-4.77-3.48-7.35-2.01l5.35,9.36h-.01ZM616.64,783.47c2.78,1.07,5.9-.31,6.97-3.08,1.07-2.78-.31-5.9-3.08-6.97l-3.89,10.05h0ZM603.21,766.72c-2.78-1.07-5.9.31-6.97,3.08-1.07,2.78.31,5.9,3.08,6.97l3.89-10.05h0ZM595.94,770.92c-.45,2.94,1.56,5.69,4.51,6.15,2.94.45,5.69-1.56,6.15-4.51l-10.65-1.64h-.01ZM609.39,754.37c.45-2.94-1.56-5.69-4.51-6.15-2.94-.45-5.69,1.56-6.15,4.51l10.65,1.64h.01ZM598.59,767.07c-2.58,1.48-3.48,4.77-2.01,7.35,1.48,2.58,4.77,3.48,7.35,2.01l-5.35-9.36h.01ZM626.57,763.49c2.58-1.48,3.48-4.77,2.01-7.35-1.48-2.58-4.77-3.48-7.35-2.01l5.35,9.36h-.01ZM526.68,773.42c-2.78,1.07-4.16,4.19-3.08,6.97,1.07,2.78,4.19,4.16,6.97,3.08l-3.89-10.05h0ZM547.89,776.77c2.78-1.07,4.16-4.19,3.08-6.97-1.07-2.78-4.19-4.16-6.97-3.08l3.89,10.05h0ZM540.62,772.57c.45,2.94,3.2,4.96,6.15,4.51,2.94-.45,4.96-3.21,4.51-6.15l-10.65,1.64h-.01ZM548.47,752.73c-.45-2.94-3.2-4.96-6.15-4.51-2.94.45-4.96,3.2-4.51,6.15l10.65-1.64h.01ZM543.27,776.42c2.58,1.48,5.88.58,7.35-2.01,1.48-2.58.58-5.88-2.01-7.35l-5.35,9.36h.01ZM525.98,754.13c-2.58-1.48-5.88-.58-7.35,2.01-1.48,2.58-.58,5.88,2.01,7.35l5.35-9.36h-.01ZM548.62,767.07c-2.58-1.48-5.88-.58-7.35,2.01-1.48,2.58-.58,5.88,2.01,7.35l5.35-9.36h-.01ZM598.59,808.04c2.58,1.48,5.88.58,7.35-2.01s.58-5.88-2.01-7.35l-5.35,9.36h.01ZM620.52,801.69c2.78-1.07,4.16-4.19,3.08-6.97-1.07-2.78-4.19-4.16-6.97-3.08l3.89,10.05h0ZM599.32,798.33c-2.78,1.07-4.16,4.19-3.08,6.97,1.07,2.78,4.19,4.16,6.97,3.08l-3.89-10.05h0ZM606.59,802.54c-.45-2.94-3.21-4.96-6.15-4.51s-4.96,3.21-4.51,6.15l10.65-1.64h.01ZM598.74,822.37c.45,2.94,3.21,4.96,6.15,4.51s4.96-3.21,4.51-6.15l-10.65,1.64h-.01ZM603.94,798.68c-2.58-1.48-5.88-.58-7.35,2.01s-.58,5.88,2.01,7.35l5.35-9.36h-.01ZM621.22,820.97c2.58,1.48,5.88.58,7.35-2.01,1.48-2.58.58-5.88-2.01-7.35l-5.35,9.36h.01ZM584.78,740.22l-14.52,11.5,6.69,8.45,14.52-11.5-6.69-8.45ZM576.95,751.71l-14.52-11.5-6.69,8.45,14.52,11.5,6.69-8.45ZM578.99,755.94v-25.87h-10.78v25.87h10.78ZM568.21,755.94v63.23h10.78v-63.23h-10.78ZM562.43,834.88l14.52-11.5-6.69-8.45-14.52,11.5,6.69,8.45ZM570.26,823.39l14.52,11.5,6.69-8.45-14.52-11.5-6.69,8.45ZM568.21,819.16v25.87h10.78v-25.87h-10.78ZM526.68,801.69l17.32,6.7,3.89-10.05-17.32-6.7-3.89,10.05ZM540.62,802.54l-2.8,18.19,10.65,1.64,2.8-18.19-10.65-1.64ZM543.27,798.68l-22.63,12.93,5.35,9.36,22.63-12.93-5.35-9.36ZM548.62,808.04l55.32-31.61-5.35-9.36-55.32,31.61,5.35,9.36ZM620.52,773.42l-17.32-6.7-3.89,10.05,17.32,6.7,3.89-10.05ZM606.59,772.57l2.8-18.19-10.65-1.64-2.8,18.19,10.65,1.64ZM603.94,776.42l22.63-12.93-5.35-9.36-22.63,12.93,5.35,9.36ZM530.57,783.47l17.32-6.7-3.89-10.05-17.32,6.7,3.89,10.05ZM551.27,770.92l-2.8-18.19-10.65,1.64,2.8,18.19,10.65-1.64ZM548.62,767.07l-22.63-12.93-5.35,9.36,22.63,12.93,5.35-9.36ZM543.27,776.42l55.32,31.61,5.35-9.36-55.32-31.61-5.35,9.36ZM616.64,791.64l-17.32,6.7,3.89,10.05,17.32-6.7-3.89-10.05ZM595.94,804.18l2.8,18.19,10.65-1.64-2.8-18.19-10.65,1.64ZM598.59,808.04l22.63,12.93,5.35-9.36-22.63-12.93-5.35,9.36Z"/>
  <path class="cls-2" d="M228.53,703.35c2.33-1.85,2.73-5.24.88-7.57-1.85-2.33-5.24-2.73-7.57-.88l6.69,8.45ZM207.32,706.39c-2.33,1.85-2.73,5.24-.88,7.57,1.85,2.33,5.24,2.73,7.57.88l-6.69-8.45ZM207.32,714.84c2.33,1.85,5.72,1.45,7.57-.88s1.45-5.72-.88-7.57l-6.69,8.45ZM199.49,694.9c-2.33-1.85-5.72-1.45-7.57.88s-1.45,5.72.88,7.57l6.69-8.45ZM205.28,710.62c0,2.98,2.41,5.39,5.39,5.39s5.39-2.41,5.39-5.39h-10.78ZM216.06,684.75c0-2.98-2.41-5.39-5.39-5.39s-5.39,2.41-5.39,5.39h10.78ZM216.06,710.62c0-2.98-2.41-5.39-5.39-5.39s-5.39,2.41-5.39,5.39h10.78ZM205.28,773.84c0,2.98,2.41,5.39,5.39,5.39s5.39-2.41,5.39-5.39h-10.78ZM192.8,781.11c-2.33,1.85-2.73,5.24-.88,7.57,1.85,2.33,5.24,2.73,7.57.88l-6.69-8.45ZM214.01,778.07c2.33-1.85,2.73-5.24.88-7.57-1.85-2.33-5.24-2.73-7.57-.88l6.69,8.45ZM214.01,769.62c-2.33-1.85-5.72-1.45-7.57.88s-1.45,5.72.88,7.57l6.69-8.45ZM221.84,789.56c2.33,1.85,5.72,1.45,7.57-.88s1.45-5.72-.88-7.57l-6.69,8.45ZM216.06,773.84c0-2.98-2.41-5.39-5.39-5.39s-5.39,2.41-5.39,5.39h10.78ZM205.28,799.71c0,2.98,2.41,5.39,5.39,5.39s5.39-2.41,5.39-5.39h-10.78ZM167.63,746.32c-2.78-1.07-5.9.31-6.97,3.08-1.07,2.78.31,5.9,3.08,6.97l3.89-10.05ZM181.06,763.06c2.78,1.07,5.9-.31,6.97-3.08,1.07-2.78-.31-5.9-3.08-6.97l-3.89,10.05ZM188.33,758.86c.45-2.94-1.56-5.69-4.51-6.15-2.94-.45-5.69,1.56-6.15,4.51l10.65,1.64h0ZM174.88,775.41c-.45,2.94,1.56,5.69,4.51,6.15,2.94.45,5.69-1.56,6.15-4.51l-10.65-1.64h0ZM185.68,762.72c2.58-1.48,3.48-4.77,2.01-7.35s-4.77-3.48-7.35-2.01l5.35,9.36h0ZM157.7,766.29c-2.58,1.48-3.48,4.77-2.01,7.35,1.48,2.58,4.77,3.48,7.35,2.01l-5.35-9.36h0ZM180.33,753.36c-2.58,1.48-3.48,4.77-2.01,7.35,1.48,2.58,4.77,3.48,7.35,2.01l-5.35-9.36h0ZM241,731.1c2.58-1.48,3.48-4.77,2.01-7.35-1.48-2.58-4.77-3.48-7.35-2.01l5.35,9.36h0ZM253.7,738.15c2.78,1.07,5.9-.31,6.97-3.08,1.07-2.78-.31-5.9-3.08-6.97l-3.89,10.05ZM240.27,721.4c-2.78-1.07-5.9.31-6.97,3.08-1.07,2.78.31,5.9,3.08,6.97l3.89-10.05ZM233,725.6c-.45,2.94,1.56,5.69,4.51,6.15,2.94.45,5.69-1.56,6.15-4.51l-10.65-1.64h0ZM246.46,709.05c.45-2.94-1.56-5.69-4.51-6.15-2.94-.45-5.69,1.56-6.15,4.51l10.65,1.64h0ZM235.66,721.75c-2.58,1.48-3.48,4.77-2.01,7.35,1.48,2.58,4.77,3.48,7.35,2.01l-5.35-9.36h0ZM263.63,718.17c2.58-1.48,3.48-4.77,2.01-7.35-1.48-2.58-4.77-3.48-7.35-2.01l5.35,9.36h-.01ZM163.75,728.09c-2.78,1.07-4.16,4.19-3.08,6.97,1.07,2.78,4.19,4.16,6.97,3.08l-3.89-10.05ZM184.95,731.45c2.78-1.07,4.16-4.19,3.08-6.97-1.07-2.78-4.19-4.16-6.97-3.08l3.89,10.05ZM177.68,727.24c.45,2.94,3.2,4.96,6.15,4.51,2.94-.45,4.96-3.21,4.51-6.15l-10.65,1.64h0ZM185.53,707.41c-.45-2.94-3.2-4.96-6.15-4.51-2.94.45-4.96,3.2-4.51,6.15l10.65-1.64h0ZM180.33,731.1c2.58,1.48,5.88.58,7.35-2.01,1.48-2.58.58-5.88-2.01-7.35l-5.35,9.36h0ZM163.05,708.81c-2.58-1.48-5.88-.58-7.35,2.01-1.48,2.58-.58,5.88,2.01,7.35l5.35-9.36h0ZM185.68,721.75c-2.58-1.48-5.88-.58-7.35,2.01-1.48,2.58-.58,5.88,2.01,7.35l5.35-9.36h0ZM235.66,762.72c2.58,1.48,5.88.58,7.35-2.01,1.48-2.58.58-5.88-2.01-7.35l-5.35,9.36h0ZM257.59,756.37c2.78-1.07,4.16-4.19,3.08-6.97-1.07-2.78-4.19-4.16-6.97-3.08l3.89,10.05ZM236.39,753.01c-2.78,1.07-4.16,4.19-3.08,6.97,1.07,2.78,4.19,4.16,6.97,3.08l-3.89-10.05ZM243.66,757.22c-.45-2.94-3.21-4.96-6.15-4.51-2.94.45-4.96,3.21-4.51,6.15l10.65-1.64h0ZM235.81,777.05c.45,2.94,3.21,4.96,6.15,4.51,2.94-.45,4.96-3.21,4.51-6.15l-10.65,1.64h-.01ZM241,753.36c-2.58-1.48-5.88-.58-7.35,2.01s-.58,5.88,2.01,7.35l5.35-9.36h0ZM258.29,775.65c2.58,1.48,5.88.58,7.35-2.01,1.48-2.58.58-5.88-2.01-7.35l-5.35,9.36h.01ZM221.84,694.9l-14.52,11.5,6.69,8.45,14.52-11.5-6.69-8.45ZM214.01,706.39l-14.52-11.5-6.69,8.45,14.52,11.5,6.69-8.45ZM216.06,710.62v-25.87h-10.78v25.87h10.78ZM205.28,710.62v63.23h10.78v-63.23h-10.78ZM199.49,789.56l14.52-11.5-6.69-8.45-14.52,11.5,6.69,8.45ZM207.32,778.07l14.52,11.5,6.69-8.45-14.52-11.5-6.69,8.45ZM205.28,773.84v25.87h10.78v-25.87h-10.78ZM163.75,756.37l17.32,6.7,3.89-10.05-17.32-6.7-3.89,10.05ZM177.68,757.22l-2.8,18.19,10.65,1.64,2.8-18.19-10.65-1.64ZM180.33,753.36l-22.63,12.93,5.35,9.36,22.63-12.93-5.35-9.36ZM185.68,762.72l55.32-31.61-5.35-9.36-55.32,31.61,5.35,9.36ZM257.59,728.09l-17.32-6.7-3.89,10.05,17.32,6.7,3.89-10.05ZM243.66,727.24l2.8-18.19-10.65-1.64-2.8,18.19,10.65,1.64ZM241,731.1l22.63-12.93-5.35-9.36-22.63,12.93,5.35,9.36h0ZM167.63,738.15l17.32-6.7-3.89-10.05-17.32,6.7,3.89,10.05ZM188.33,725.6l-2.8-18.19-10.65,1.64,2.8,18.19,10.65-1.64ZM185.68,721.75l-22.63-12.93-5.35,9.36,22.63,12.93,5.35-9.36ZM180.33,731.1l55.32,31.61,5.35-9.36-55.32-31.61-5.35,9.36ZM253.7,746.32l-17.32,6.7,3.89,10.05,17.32-6.7-3.89-10.05h0ZM233,758.86l2.8,18.19,10.65-1.64-2.8-18.19-10.65,1.64ZM235.66,762.72l22.63,12.93,5.35-9.36-22.63-12.93-5.35,9.36h0Z"/>
  <path class="cls-2" d="M468.31,705.85c2.2-1.74,2.57-4.93.83-7.13-1.74-2.2-4.93-2.57-7.13-.83l6.3,7.96h0ZM448.33,708.72c-2.2,1.74-2.57,4.93-.83,7.13,1.74,2.2,4.93,2.57,7.13.83l-6.3-7.96h0ZM448.33,716.68c2.2,1.74,5.39,1.37,7.13-.83s1.37-5.39-.83-7.13l-6.3,7.96h0ZM440.95,697.89c-2.2-1.74-5.39-1.37-7.13.83s-1.37,5.39.83,7.13l6.3-7.96h0ZM446.4,712.7c0,2.8,2.27,5.08,5.08,5.08s5.08-2.27,5.08-5.08h-10.16ZM456.56,688.33c0-2.8-2.27-5.08-5.08-5.08s-5.08,2.27-5.08,5.08h10.16ZM456.56,712.7c0-2.8-2.27-5.08-5.08-5.08s-5.08,2.27-5.08,5.08h10.16ZM446.4,772.27c0,2.8,2.27,5.08,5.08,5.08s5.08-2.27,5.08-5.08h-10.16ZM434.65,779.12c-2.2,1.74-2.57,4.93-.83,7.13,1.74,2.2,4.93,2.57,7.13.83l-6.3-7.96h0ZM454.63,776.25c2.2-1.74,2.57-4.93.83-7.13-1.74-2.2-4.93-2.57-7.13-.83l6.3,7.96h0ZM454.63,768.29c-2.2-1.74-5.39-1.37-7.13.83s-1.37,5.39.83,7.13l6.3-7.96h0ZM462.01,787.08c2.2,1.74,5.39,1.37,7.13-.83s1.37-5.39-.83-7.13l-6.3,7.96h0ZM456.56,772.27c0-2.8-2.27-5.08-5.08-5.08s-5.08,2.27-5.08,5.08h10.16ZM446.4,796.64c0,2.8,2.27,5.08,5.08,5.08s5.08-2.27,5.08-5.08h-10.16ZM410.94,746.33c-2.62-1.01-5.56.29-6.57,2.9-1.01,2.61.29,5.55,2.9,6.57l3.66-9.47h.01ZM423.59,762.11c2.62,1.01,5.56-.29,6.57-2.9,1.01-2.61-.29-5.55-2.9-6.57l-3.66,9.47h-.01ZM430.44,758.15c.43-2.77-1.47-5.36-4.24-5.79s-5.36,1.47-5.79,4.25l10.04,1.55h-.01ZM417.76,773.74c-.43,2.77,1.47,5.36,4.24,5.79s5.36-1.47,5.79-4.25l-10.04-1.55h.01ZM427.94,761.78c2.43-1.39,3.28-4.49,1.89-6.93s-4.49-3.28-6.93-1.89l5.04,8.82h0ZM401.58,765.15c-2.43,1.39-3.28,4.49-1.89,6.93,1.39,2.43,4.49,3.28,6.93,1.89l-5.04-8.82h0ZM422.9,752.97c-2.43,1.39-3.28,4.49-1.89,6.93,1.39,2.43,4.49,3.28,6.93,1.89l-5.04-8.82h0ZM480.06,732c2.43-1.39,3.28-4.49,1.89-6.93-1.39-2.43-4.49-3.28-6.93-1.89l5.04,8.82h0ZM492.03,738.63c2.61,1.01,5.55-.29,6.57-2.9,1.01-2.61-.29-5.55-2.9-6.57l-3.66,9.47h-.01ZM479.37,722.85c-2.61-1.01-5.55.29-6.57,2.9-1.01,2.62.29,5.55,2.9,6.57l3.66-9.47h.01ZM472.53,726.82c-.43,2.77,1.47,5.36,4.25,5.79,2.77.43,5.36-1.47,5.79-4.25l-10.04-1.55h0ZM485.2,711.22c.43-2.77-1.47-5.36-4.25-5.79-2.77-.43-5.36,1.47-5.79,4.24l10.04,1.55ZM475.02,723.18c-2.43,1.39-3.28,4.49-1.89,6.93,1.39,2.43,4.49,3.28,6.93,1.89l-5.04-8.82h0ZM501.39,719.81c2.43-1.39,3.28-4.49,1.89-6.93-1.39-2.43-4.49-3.28-6.93-1.89l5.04,8.82ZM407.27,729.16c-2.62,1.01-3.92,3.95-2.9,6.57,1.01,2.61,3.95,3.92,6.57,2.9l-3.66-9.47h-.01ZM427.25,732.32c2.62-1.01,3.92-3.95,2.9-6.57-1.01-2.62-3.95-3.92-6.57-2.9l3.66,9.47h.01ZM420.4,728.36c.43,2.77,3.02,4.67,5.79,4.25,2.77-.43,4.67-3.02,4.24-5.79l-10.04,1.55h.01ZM427.8,709.68c-.43-2.77-3.02-4.67-5.79-4.24-2.77.43-4.67,3.02-4.24,5.79l10.04-1.55h-.01ZM422.9,732c2.43,1.39,5.54.54,6.93-1.89,1.39-2.43.55-5.54-1.89-6.93l-5.04,8.82h0ZM406.62,711c-2.43-1.39-5.54-.55-6.93,1.89-1.39,2.43-.55,5.54,1.89,6.93l5.04-8.82h0ZM427.94,723.18c-2.43-1.39-5.54-.55-6.93,1.89-1.39,2.43-.55,5.54,1.89,6.93l5.04-8.82h0ZM475.02,761.78c2.43,1.39,5.54.54,6.93-1.89s.54-5.54-1.89-6.93l-5.04,8.82h0ZM495.69,755.8c2.61-1.01,3.92-3.95,2.9-6.57-1.01-2.61-3.95-3.92-6.57-2.9l3.66,9.47h.01ZM475.71,752.64c-2.61,1.01-3.92,3.95-2.9,6.57,1.01,2.61,3.95,3.92,6.57,2.9l-3.66-9.47h-.01ZM482.56,756.6c-.43-2.77-3.02-4.67-5.79-4.25-2.77.43-4.67,3.02-4.25,5.79l10.04-1.55h0ZM475.17,775.29c.43,2.77,3.02,4.67,5.79,4.25,2.77-.43,4.67-3.02,4.25-5.79l-10.04,1.55h0ZM480.06,752.97c-2.43-1.39-5.54-.54-6.93,1.89s-.54,5.54,1.89,6.93l5.04-8.82h0ZM496.35,773.97c2.43,1.39,5.54.54,6.93-1.89s.54-5.54-1.89-6.93l-5.04,8.82h0ZM462.01,697.89l-13.68,10.83,6.3,7.96,13.68-10.83-6.3-7.96ZM454.63,708.72l-13.68-10.83-6.3,7.96,13.68,10.83,6.3-7.96ZM456.56,712.7v-24.37h-10.15v24.37h10.15ZM446.4,712.7v59.57h10.15v-59.57h-10.15ZM440.95,787.08l13.68-10.83-6.3-7.96-13.68,10.83,6.3,7.96ZM448.33,776.25l13.68,10.83,6.3-7.96-13.68-10.83-6.3,7.96ZM446.4,772.27v24.37h10.15v-24.37h-10.15ZM407.27,755.8l16.31,6.31,3.66-9.47-16.31-6.31-3.66,9.47ZM420.4,756.6l-2.64,17.14,10.04,1.55,2.64-17.14-10.04-1.55ZM422.9,752.97l-21.32,12.18,5.04,8.82,21.32-12.18-5.04-8.82ZM427.94,761.78l52.12-29.78-5.04-8.82-52.12,29.78,5.04,8.82ZM495.69,729.16l-16.31-6.31-3.66,9.47,16.31,6.31,3.66-9.47ZM482.56,728.36l2.64-17.14-10.04-1.55-2.64,17.14,10.04,1.55ZM480.06,732l21.32-12.18-5.04-8.82-21.32,12.18,5.04,8.82ZM410.94,738.63l16.31-6.31-3.66-9.47-16.31,6.31,3.66,9.47ZM430.44,726.82l-2.64-17.14-10.04,1.55,2.64,17.14,10.04-1.55ZM427.94,723.18l-21.32-12.18-5.04,8.82,21.32,12.18,5.04-8.82ZM422.9,732l52.12,29.78,5.04-8.82-52.12-29.78-5.04,8.82ZM492.03,746.33l-16.31,6.31,3.66,9.47,16.31-6.31-3.66-9.47ZM472.53,758.15l2.64,17.14,10.04-1.55-2.64-17.14-10.04,1.55ZM475.02,761.78l21.32,12.18,5.04-8.82-21.32-12.18-5.04,8.82Z"/>
</svg>