<?xml version="1.0" encoding="UTF-8"?>
<svg id="Ebene_1" data-name="Ebene 1" xmlns="http://www.w3.org/2000/svg" viewBox="0 0 777.77 757.22">
  <defs>
    <style>
      .cls-1 {
        fill: #e1e8ed;
      }

      .cls-2 {
        fill: #5dadec;
      }

      .cls-3 {
        fill: #ffac33;
      }
    </style>
  </defs>
  <path class="cls-1" d="M604.96,84.44c-17.84,0-35,2.64-51.2,7.56C534.6,38.47,482.62,0,421.29,0c-65.76,0-120.82,44.24-136.07,103.89-16.85-12.59-37.32-19.41-58.36-19.44-53.71,0-97.22,42.53-97.22,95,0,12.73,2.67,24.84,7.31,35.96-9.41-2.71-19.14-4.15-28.93-4.29-59.67,0-108.02,47.24-108.02,105.56s48.36,105.56,108.02,105.56h496.91c95.47,0,172.84-75.6,172.84-168.89s-77.38-168.89-172.82-168.89v-.02s.01,0,.01,0Z"/>
  <path class="cls-3" d="M458.31,589.5l-80.2-22.76,36.99-130.32-134.27,167.72,80.2,22.76-36.99,130.32,134.27-167.72Z"/>
  <path class="cls-2" d="M272.7,546.65l-2.51-76.02-63.76,37.96c-14.67,7.85-23.59,23.35-23.02,39.98.96,24.63,21.49,43.94,46.13,43.4,24.22-.38,43.55-20.32,43.17-44.55,0-.25,0-.51-.02-.76h.01ZM117.61,512.43l-2.53-76.02-63.76,37.96c-14.67,7.84-23.6,23.34-23.02,39.97.96,24.63,21.49,43.94,46.13,43.4,24.22-.37,43.56-20.3,43.2-44.53,0-.26,0-.52-.02-.78h0ZM561.56,546.65l-2.51-76.02-63.76,37.96c-14.66,7.85-23.59,23.36-23,39.98.96,24.63,21.49,43.94,46.13,43.4,24.21-.38,43.53-20.31,43.15-44.53,0-.26-.01-.52-.02-.79h.01ZM695.36,512.43l-2.53-76.02-63.76,37.96c-14.66,7.85-23.59,23.36-23,39.98.95,24.63,21.49,43.95,46.13,43.4,24.22-.38,43.55-20.32,43.17-44.55,0-.25-.01-.51-.02-.76h.01Z"/>
</svg>