<?xml version="1.0" encoding="UTF-8"?>
<svg id="Ebene_1" data-name="Ebene 1" xmlns="http://www.w3.org/2000/svg" viewBox="0 0 872.77 1003.79">
  <defs>
    <style>
      .cls-1 {
        fill: #e1e8ed;
      }

      .cls-2 {
        fill: #5dadec;
      }

      .cls-3 {
        fill: #6b6b6b;
      }

      .cls-4 {
        fill: #ffac33;
      }
    </style>
  </defs>
  <path class="cls-3" d="M640.8,464.31c-5.33-9-20.33-23-57.67-16.33-20.67,3.67-41.67,5.33-62.67,4.33-77.67-3.33-148-39-197-94-43.33-48.33-70-111.33-70.33-179.33,0-38,7.33-74.67,22.33-109.33,14.67-33.67,4.33-51.33-3-58.67-7.67-7.67-25.67-18.33-61-3.67C75.13,64.65-9.2,201.31.8,347.65c10,137.67,106.67,255.33,234.67,299.67,30.67,10.67,63,17,96.33,18.33,5.33.33,10.67.67,16,.67,111.67,0,216.33-52.67,282.33-142.33,22.33-31,16.33-50.67,10.67-59.67h0Z"/>
  <path class="cls-1" d="M699.96,335.86c-17.84,0-35,2.64-51.2,7.56-19.16-53.53-71.13-92-132.47-92-65.76,0-120.82,44.24-136.07,103.89-16.85-12.59-37.32-19.41-58.36-19.44-53.71,0-97.22,42.53-97.22,95,0,12.73,2.67,24.87,7.31,35.98-9.41-2.72-19.14-4.17-28.93-4.31-59.66,0-108.02,47.24-108.02,105.55s48.36,105.56,108.02,105.56h496.91c95.47,0,172.84-75.6,172.84-168.89s-77.38-168.89-172.82-168.89h.01Z"/>
  <path class="cls-4" d="M502.58,836.07l-80.2-22.76,36.99-130.32-134.27,167.72,80.2,22.76-36.99,130.32,134.27-167.72Z"/>
  <path class="cls-2" d="M316.97,793.22l-2.51-76.02-63.76,37.96c-14.67,7.85-23.59,23.35-23.02,39.98.96,24.63,21.49,43.94,46.13,43.4,24.22-.38,43.55-20.32,43.17-44.55,0-.25,0-.51-.02-.76h.01,0ZM161.88,759l-2.53-76.02-63.76,37.96c-14.67,7.84-23.6,23.34-23.02,39.97.96,24.63,21.49,43.94,46.13,43.4,24.22-.37,43.56-20.3,43.2-44.53,0-.26,0-.52-.02-.78h0ZM605.83,793.22l-2.51-76.02-63.76,37.96c-14.66,7.85-23.59,23.36-23,39.98.96,24.63,21.49,43.94,46.13,43.4,24.21-.38,43.53-20.31,43.15-44.53,0-.26-.01-.52-.02-.79h.01ZM739.63,759l-2.53-76.02-63.76,37.96c-14.66,7.85-23.59,23.36-23,39.98.95,24.63,21.49,43.95,46.13,43.4,24.22-.38,43.55-20.32,43.17-44.55,0-.25-.01-.51-.02-.76h.01Z"/>
</svg>