<?xml version="1.0" encoding="UTF-8"?>
<svg id="Ebene_1" xmlns="http://www.w3.org/2000/svg" version="1.1" viewBox="0 0 777.77 693.91">
  <!-- Generator: Adobe Illustrator 30.6.0, SVG Export Plug-In . SVG Version: 2.1.4 Build 109)  -->
  <defs>
    <style>
      .st0 {
        fill: #e1e8ed;
      }

      .st1 {
        fill: #6b6b6b;
      }
    </style>
  </defs>
  <path class="st0" d="M604.96,84.44c-17.84,0-35,2.64-51.2,7.56C534.6,38.47,482.62,0,421.29,0c-65.76,0-120.82,44.24-136.07,103.89-16.85-12.59-37.32-19.41-58.36-19.44-53.71,0-97.22,42.53-97.22,95,0,12.73,2.67,24.84,7.31,35.96-9.41-2.71-19.14-4.15-28.93-4.29C48.35,211.12,0,258.36,0,316.68s48.36,105.56,108.02,105.56h496.91c95.47,0,172.84-75.6,172.84-168.89s-77.38-168.89-172.82-168.89v-.02s.01,0,.01,0Z"/>
  <path class="st1" d="M443.83,693.91c-9.74,0-19.32-3.46-27.13-10.16l-5.59-4.78c-5.88-5.03-6.57-13.86-1.54-19.74,5.02-5.88,13.86-6.57,19.74-1.54l5.6,4.79c6.28,5.38,12.95,2.96,14.84,2.08,1.9-.87,8.08-4.36,8.08-12.61,0-7.65-6.22-13.88-13.88-13.88h-211.76c-7.73,0-14-6.27-14-14s6.27-14,14-14h211.76c23.09,0,41.88,18.79,41.88,41.88,0,16.55-9.34,31.13-24.38,38.05-5.69,2.62-11.69,3.9-17.62,3.9h0ZM543.8,641.04c-15.8,0-30.49-8.32-38.71-22.72l-1.15-2c-3.86-6.7-1.56-15.26,5.14-19.12s15.26-1.56,19.12,5.14l1.18,2.05c4.79,8.39,12.99,9.64,19.08,8.02s12.61-6.77,12.61-16.39-7.6-16.94-16.94-16.94H202.7c-7.73,0-14-6.27-14-14s6.27-14,14-14h341.43c24.78,0,44.94,20.16,44.94,44.94,0,20.68-13.43,38.15-33.42,43.45-3.96,1.05-7.94,1.56-11.84,1.56h-.01ZM488.2,520.09H232.19c-7.73,0-14-6.27-14-14s6.27-14,14-14h256.01c7.65,0,13.88-6.22,13.88-13.88,0-8.25-6.18-11.74-8.08-12.61s-8.57-3.3-14.83,2.07l-5.62,4.8c-5.88,5.02-14.71,4.33-19.74-1.54-5.03-5.88-4.34-14.71,1.54-19.74l5.6-4.79c12.55-10.76,29.7-13.16,44.74-6.24,15.04,6.92,24.38,21.49,24.38,38.05,0,23.09-18.79,41.88-41.88,41.88h0Z"/>
</svg>